<?xml version="1.0" encoding="UTF-8"?>
<svg width="24px" height="24px" viewBox="0 0 24 24" version="1.1" xmlns="http://www.w3.org/2000/svg" xmlns:xlink="http://www.w3.org/1999/xlink">
    <!-- Generator: Sketch 48.1 (47250) - http://www.bohemiancoding.com/sketch -->
    <title>Icon / shareandroid / thin / rounded</title>
    <desc>Created with Sketch.</desc>
    <defs></defs>
    <g id="Symbols" stroke="none" stroke-width="1" fill="none" fill-rule="evenodd">
        <g id="Icon-/-shareandroid-/-thin-/-rounded">
            <g id="Grid"></g>
            <path d="M19,7 C20.1045695,7 21,6.1045695 21,5 C21,3.8954305 20.1045695,3 19,3 C17.8954305,3 17,3.8954305 17,5 C17,6.1045695 17.8954305,7 19,7 Z M19,8 C17.3431458,8 16,6.65685425 16,5 C16,3.34314575 17.3431458,2 19,2 C20.6568542,2 22,3.34314575 22,5 C22,6.65685425 20.6568542,8 19,8 Z" id="Oval-3" fill="#141414" fill-rule="nonzero"></path>
            <path d="M3,14 C4.1045695,14 5,13.1045695 5,12 C5,10.8954305 4.1045695,10 3,10 C1.8954305,10 1,10.8954305 1,12 C1,13.1045695 1.8954305,14 3,14 Z M3,15 C1.34314575,15 0,13.6568542 0,12 C0,10.3431458 1.34314575,9 3,9 C4.65685425,9 6,10.3431458 6,12 C6,13.6568542 4.65685425,15 3,15 Z" id="Oval-3-Copy" fill="#141414" fill-rule="nonzero"></path>
            <path d="M19,21 C20.1045695,21 21,20.1045695 21,19 C21,17.8954305 20.1045695,17 19,17 C17.8954305,17 17,17.8954305 17,19 C17,20.1045695 17.8954305,21 19,21 Z M19,22 C17.3431458,22 16,20.6568542 16,19 C16,17.3431458 17.3431458,16 19,16 C20.6568542,16 22,17.3431458 22,19 C22,20.6568542 20.6568542,22 19,22 Z" id="Oval-3-Copy-2" fill="#141414" fill-rule="nonzero"></path>
            <polygon id="Line" fill="#141414" fill-rule="nonzero" points="5.2455858 11.563314 17.1589098 6.35123474 16.758091 5.4350774 4.84476697 10.6471567"></polygon>
            <polygon id="Line-2" fill="#141414" fill-rule="nonzero" points="4.84359805 13.3523319 16.7623066 18.5667669 17.1631255 17.6506096 5.24441689 12.4361746"></polygon>
        </g>
    </g>
</svg>