<?xml version="1.0" encoding="UTF-8"?>
<svg width="24px" height="24px" viewBox="0 0 24 24" version="1.1" xmlns="http://www.w3.org/2000/svg" xmlns:xlink="http://www.w3.org/1999/xlink">
    <!-- Generator: Sketch 48.1 (47250) - http://www.bohemiancoding.com/sketch -->
    <title>Icon / star / bold / rounded</title>
    <desc>Created with Sketch.</desc>
    <defs></defs>
    <g id="Symbols" stroke="none" stroke-width="1" fill="none" fill-rule="evenodd">
        <g id="Icon-/-star-/-bold-/-rounded">
            <g id="Grid"></g>
            <path d="M6.31434338,19.825635 L12,16.9946097 L17.6856566,19.825635 L16.7501561,13.5434193 L21.1995857,9.01087342 L14.9357579,7.95927585 L12,2.3269832 L9.06424206,7.95927585 L2.80041434,9.01087342 L7.24984388,13.5434193 L6.31434338,19.825635 Z M12,19.228824 L7.20579603,21.6159735 C6.21701935,22.1083092 5.01634052,21.7058643 4.52400482,20.7170876 C4.3413817,20.3503186 4.27580916,19.9363099 4.33615621,19.5310582 L5.12497982,14.2338295 L1.37317521,10.4119403 C0.599387325,9.62369791 0.611105036,8.35742217 1.39934744,7.58363429 C1.69173186,7.29661152 2.06521454,7.10631259 2.46928008,7.03847638 L7.75100385,6.15175852 L10.2264651,1.4025516 C10.7370145,0.423055296 11.9449353,0.042898777 12.9244316,0.553448251 C13.2877582,0.742827441 13.5841558,1.03922498 13.7735349,1.4025516 L16.2489961,6.15175852 L21.5307199,7.03847638 C22.6200447,7.22135678 23.3548631,8.25268287 23.1719827,9.34200768 C23.1041465,9.74607322 22.9138476,10.1195559 22.6268248,10.4119403 L18.8750202,14.2338295 L19.6638438,19.5310582 C19.8265341,20.6235808 19.072756,21.6411319 17.9802334,21.8038222 C17.5749817,21.8641692 17.160973,21.7985967 16.794204,21.6159735 L12,19.228824 Z" id="Star" fill="#141414" fill-rule="nonzero"></path>
        </g>
    </g>
</svg>