<?xml version="1.0" encoding="UTF-8"?>
<svg width="24px" height="24px" viewBox="0 0 24 24" version="1.1" xmlns="http://www.w3.org/2000/svg" xmlns:xlink="http://www.w3.org/1999/xlink">
    <!-- Generator: Sketch 48.1 (47250) - http://www.bohemiancoding.com/sketch -->
    <title>Icon / arrowright / bold / rounded</title>
    <desc>Created with Sketch.</desc>
    <defs></defs>
    <g id="Symbols" stroke="none" stroke-width="1" fill="none" fill-rule="evenodd">
        <g id="Icon-/-arrowright-/-bold-/-rounded">
            <g id="Grid"></g>
            <path d="M1,13 L23,13 C23.5522847,13 24,12.5522847 24,12 C24,11.4477153 23.5522847,11 23,11 L1,11 C0.44771525,11 8.8817842e-16,11.4477153 8.8817842e-16,12 C8.8817842e-16,12.5522847 0.44771525,13 1,13 Z" id="Line" fill="#141414" fill-rule="nonzero"></path>
            <path d="M16.2928932,17.2928932 C15.9023689,17.6834175 15.9023689,18.3165825 16.2928932,18.7071068 C16.6834175,19.0976311 17.3165825,19.0976311 17.7071068,18.7071068 L23.7071068,12.7071068 C24.0976311,12.3165825 24.0976311,11.6834175 23.7071068,11.2928932 L17.7071068,5.29289322 C17.3165825,4.90236893 16.6834175,4.90236893 16.2928932,5.29289322 C15.9023689,5.68341751 15.9023689,6.31658249 16.2928932,6.70710678 L21.5857864,12 L16.2928932,17.2928932 Z" id="Line" fill="#141414" fill-rule="nonzero"></path>
        </g>
    </g>
</svg>