<?xml version="1.0" encoding="UTF-8"?>
<svg width="24px" height="24px" viewBox="0 0 24 24" version="1.1" xmlns="http://www.w3.org/2000/svg" xmlns:xlink="http://www.w3.org/1999/xlink">
    <!-- Generator: Sketch 48.1 (47250) - http://www.bohemiancoding.com/sketch -->
    <title>Icon / login / thin / rounded</title>
    <desc>Created with Sketch.</desc>
    <defs></defs>
    <g id="Symbols" stroke="none" stroke-width="1" fill="none" fill-rule="evenodd">
        <g id="Icon-/-login-/-thin-/-rounded">
            <g id="Grid"></g>
            <path d="M4,12 C4,11.7238576 4.22385763,11.5 4.5,11.5 C4.77614237,11.5 5,11.7238576 5,12 C5,16.9705627 9.02943725,21 14,21 C18.9705627,21 23,16.9705627 23,12 C23,7.02943725 18.9705627,3 14,3 C13.7238576,3 13.5,2.77614237 13.5,2.5 C13.5,2.22385763 13.7238576,2 14,2 C19.5228475,2 24,6.4771525 24,12 C24,17.5228475 19.5228475,22 14,22 C8.4771525,22 4,17.5228475 4,12 Z" id="Oval-18" fill="#141414" fill-rule="nonzero" transform="translate(14.000000, 12.000000) rotate(-45.000000) translate(-14.000000, -12.000000) "></path>
            <path d="M0.5,12.5 C0.223857625,12.5 0,12.2761424 0,12 C0,11.7238576 0.223857625,11.5 0.5,11.5 L16,11.5 C16.2761424,11.5 16.5,11.7238576 16.5,12 C16.5,12.2761424 16.2761424,12.5 16,12.5 L0.5,12.5 Z" id="Line" fill="#141414" fill-rule="nonzero"></path>
            <path d="M12.6464466,9.35355339 C12.4511845,9.15829124 12.4511845,8.84170876 12.6464466,8.64644661 C12.8417088,8.45118446 13.1582912,8.45118446 13.3535534,8.64644661 L16.3535534,11.6464466 C16.5488155,11.8417088 16.5488155,12.1582912 16.3535534,12.3535534 L13.3535534,15.3535534 C13.1582912,15.5488155 12.8417088,15.5488155 12.6464466,15.3535534 C12.4511845,15.1582912 12.4511845,14.8417088 12.6464466,14.6464466 L15.2928932,12 L12.6464466,9.35355339 Z" id="Line-2" fill="#141414" fill-rule="nonzero"></path>
        </g>
    </g>
</svg>