<?xml version="1.0" encoding="UTF-8"?>
<svg width="24px" height="24px" viewBox="0 0 24 24" version="1.1" xmlns="http://www.w3.org/2000/svg" xmlns:xlink="http://www.w3.org/1999/xlink">
    <!-- Generator: Sketch 48.1 (47250) - http://www.bohemiancoding.com/sketch -->
    <title>Icon / login / thin / square</title>
    <desc>Created with Sketch.</desc>
    <defs></defs>
    <g id="Symbols" stroke="none" stroke-width="1" fill="none" fill-rule="evenodd">
        <g id="Icon-/-login-/-thin-/-square">
            <g id="Grid"></g>
            <path d="M6.92893219,19.0710678 L7.63603897,18.363961 C9.26471863,19.9926407 11.5147186,21 14,21 C18.9705627,21 23,16.9705627 23,12 C23,7.02943725 18.9705627,3 14,3 C11.5147186,3 9.26471863,4.00735931 7.63603897,5.63603897 L6.92893219,4.92893219 C8.73857625,3.11928813 11.2385763,2 14,2 C19.5228475,2 24,6.4771525 24,12 C24,17.5228475 19.5228475,22 14,22 C11.2385763,22 8.73857625,20.8807119 6.92893219,19.0710678 Z" id="Combined-Shape" fill="#141414"></path>
            <polygon id="Line" fill="#141414" fill-rule="nonzero" points="0 12.5 0 11.5 16 11.5 16 12.5"></polygon>
            <polygon id="Line-2" fill="#141414" fill-rule="nonzero" points="12.2928932 9 13 8.29289322 16.7071068 12 13 15.7071068 12.2928932 15 15.2928932 12"></polygon>
        </g>
    </g>
</svg>