<?xml version="1.0" encoding="UTF-8"?>
<svg width="24px" height="24px" viewBox="0 0 24 24" version="1.1" xmlns="http://www.w3.org/2000/svg" xmlns:xlink="http://www.w3.org/1999/xlink">
    <!-- Generator: Sketch 48.1 (47250) - http://www.bohemiancoding.com/sketch -->
    <title>Icon / duplicate / bold / rounded</title>
    <desc>Created with Sketch.</desc>
    <defs></defs>
    <g id="Symbols" stroke="none" stroke-width="1" fill="none" fill-rule="evenodd">
        <g id="Icon-/-duplicate-/-bold-/-rounded">
            <g id="Grid"></g>
            <path d="M6,6 L6,22 L22,22 L22,6 L6,6 Z M6,4 L22,4 C23.1045695,4 24,4.8954305 24,6 L24,22 C24,23.1045695 23.1045695,24 22,24 L6,24 C4.8954305,24 4,23.1045695 4,22 L4,6 C4,4.8954305 4.8954305,4 6,4 Z" id="Rectangle-3" fill="#141414" fill-rule="nonzero"></path>
            <path d="M13,9 C13,8.44771525 13.4477153,8 14,8 C14.5522847,8 15,8.44771525 15,9 L15,19 C15,19.5522847 14.5522847,20 14,20 C13.4477153,20 13,19.5522847 13,19 L13,9 Z" id="Line" fill="#141414" fill-rule="nonzero"></path>
            <path d="M9,15 C8.44771525,15 8,14.5522847 8,14 C8,13.4477153 8.44771525,13 9,13 L19,13 C19.5522847,13 20,13.4477153 20,14 C20,14.5522847 19.5522847,15 19,15 L9,15 Z" id="Line" fill="#141414" fill-rule="nonzero"></path>
            <path d="M4,2 L2,2 L2,4 C0.8954305,4 0,3.1045695 0,2 C0,0.8954305 0.8954305,0 2,0 C3.1045695,0 4,0.8954305 4,2 Z M2,16 L2,18 L4,18 C4,19.1045695 3.1045695,20 2,20 C0.8954305,20 0,19.1045695 0,18 C0,16.8954305 0.8954305,16 2,16 Z M16,2 C16,0.8954305 16.8954305,0 18,0 C19.1045695,0 20,0.8954305 20,2 C20,3.1045695 19.1045695,4 18,4 L18,2 L16,2 Z" id="Combined-Shape" fill="#141414"></path>
            <path d="M2,2 L18,2 C18.5522847,2 19,1.55228475 19,1 C19,0.44771525 18.5522847,0 18,0 L2,0 C1.44771525,0 1,0.44771525 1,1 C1,1.55228475 1.44771525,2 2,2 Z" id="Line-2" fill="#141414" fill-rule="nonzero"></path>
            <path d="M0,2 L0,18 C0,18.5522847 0.44771525,19 1,19 C1.55228475,19 2,18.5522847 2,18 L2,2 C2,1.44771525 1.55228475,1 1,1 C0.44771525,1 0,1.44771525 0,2 Z" id="Line-2" fill="#141414" fill-rule="nonzero"></path>
            <rect id="Rectangle-14" fill="#141414" x="2" y="18" width="4" height="2"></rect>
            <rect id="Rectangle-4" fill="#141414" x="18" y="2" width="2" height="4"></rect>
        </g>
    </g>
</svg>