<?xml version="1.0" encoding="UTF-8"?>
<svg width="24px" height="24px" viewBox="0 0 24 24" version="1.1" xmlns="http://www.w3.org/2000/svg" xmlns:xlink="http://www.w3.org/1999/xlink">
    <!-- Generator: Sketch 48.1 (47250) - http://www.bohemiancoding.com/sketch -->
    <title>Icon / circlecross / bold / rounded</title>
    <desc>Created with Sketch.</desc>
    <defs></defs>
    <g id="Symbols" stroke="none" stroke-width="1" fill="none" fill-rule="evenodd">
        <g id="Icon-/-circlecross-/-bold-/-rounded">
            <g id="Grid"></g>
            <path d="M12,22 C17.5228475,22 22,17.5228475 22,12 C22,6.4771525 17.5228475,2 12,2 C6.4771525,2 2,6.4771525 2,12 C2,17.5228475 6.4771525,22 12,22 Z M12,24 C5.372583,24 0,18.627417 0,12 C0,5.372583 5.372583,0 12,0 C18.627417,0 24,5.372583 24,12 C24,18.627417 18.627417,24 12,24 Z" id="Oval-6" fill="#141414" fill-rule="nonzero"></path>
            <path d="M9.20710678,16.2071068 C8.81658249,16.5976311 8.18341751,16.5976311 7.79289322,16.2071068 C7.40236893,15.8165825 7.40236893,15.1834175 7.79289322,14.7928932 L14.7928932,7.79289322 C15.1834175,7.40236893 15.8165825,7.40236893 16.2071068,7.79289322 C16.5976311,8.18341751 16.5976311,8.81658249 16.2071068,9.20710678 L9.20710678,16.2071068 Z" id="Line" fill="#141414" fill-rule="nonzero"></path>
            <path d="M7.79289322,9.20710678 C7.40236893,8.81658249 7.40236893,8.18341751 7.79289322,7.79289322 C8.18341751,7.40236893 8.81658249,7.40236893 9.20710678,7.79289322 L16.2071068,14.7928932 C16.5976311,15.1834175 16.5976311,15.8165825 16.2071068,16.2071068 C15.8165825,16.5976311 15.1834175,16.5976311 14.7928932,16.2071068 L7.79289322,9.20710678 Z" id="Line" fill="#141414" fill-rule="nonzero"></path>
        </g>
    </g>
</svg>