<?xml version="1.0" encoding="UTF-8"?>
<svg width="24px" height="24px" viewBox="0 0 24 24" version="1.1" xmlns="http://www.w3.org/2000/svg" xmlns:xlink="http://www.w3.org/1999/xlink">
    <!-- Generator: Sketch 48.1 (47250) - http://www.bohemiancoding.com/sketch -->
    <title>Icon / tablet / thin / rounded</title>
    <desc>Created with Sketch.</desc>
    <defs></defs>
    <g id="Symbols" stroke="none" stroke-width="1" fill="none" fill-rule="evenodd">
        <g id="Icon-/-tablet-/-thin-/-rounded">
            <g id="Grid"></g>
            <path d="M4,1 C3.44771525,1 3,1.44771525 3,2 L3,22 C3,22.5522847 3.44771525,23 4,23 L20,23 C20.5522847,23 21,22.5522847 21,22 L21,2 C21,1.44771525 20.5522847,1 20,1 L4,1 Z M4,0 L20,0 C21.1045695,-2.02906125e-16 22,0.8954305 22,2 L22,22 C22,23.1045695 21.1045695,24 20,24 L4,24 C2.8954305,24 2,23.1045695 2,22 L2,2 C2,0.8954305 2.8954305,2.02906125e-16 4,0 Z" id="Rectangle-2" fill="#141414" fill-rule="nonzero"></path>
            <path d="M11.5,22 L12.5,22 C12.7761424,22 13,21.7761424 13,21.5 C13,21.2238576 12.7761424,21 12.5,21 L11.5,21 C11.2238576,21 11,21.2238576 11,21.5 C11,21.7761424 11.2238576,22 11.5,22 Z" id="Line" fill="#141414" fill-rule="nonzero"></path>
        </g>
    </g>
</svg>