<?xml version="1.0" encoding="UTF-8"?>
<svg width="24px" height="24px" viewBox="0 0 24 24" version="1.1" xmlns="http://www.w3.org/2000/svg" xmlns:xlink="http://www.w3.org/1999/xlink">
    <!-- Generator: Sketch 48.1 (47250) - http://www.bohemiancoding.com/sketch -->
    <title>Icon / heart / bold / rounded</title>
    <desc>Created with Sketch.</desc>
    <defs></defs>
    <g id="Symbols" stroke="none" stroke-width="1" fill="none" fill-rule="evenodd">
        <g id="Icon-/-heart-/-bold-/-rounded">
            <g id="Grid"></g>
            <path d="M13,8.5 C13,9.05228475 12.5522847,9.5 12,9.5 C11.4477153,9.5 11,9.05228475 11,8.5 C11,6.01471863 8.98528137,4 6.5,4 C4.01471863,4 2,6.01471863 2,8.5 C2,12.3190498 5.29619118,16.7710225 12,21.7586525 C18.7038088,16.7710225 22,12.3190498 22,8.5 C22,6.01471863 19.9852814,4 17.5,4 C15.0147186,4 13,6.01471863 13,8.5 Z M12.6068387,23.7951555 C12.5496485,23.8388378 12.4884385,23.8757374 12.4244402,23.9056601 C12.2890865,23.9692767 12.1440678,24.000188 12,24.0000702 C11.8559322,24.000188 11.7109135,23.9692767 11.5755598,23.9056601 C11.5115615,23.8757374 11.4503515,23.8388378 11.3931613,23.7951555 C3.838068,18.2968078 0,13.2336425 0,8.5 C0,4.91014913 2.91014913,2 6.5,2 C8.81576684,2 10.8486843,3.21102216 12,5.0343141 C13.1513157,3.21102216 15.1842332,2 17.5,2 C21.0898509,2 24,4.91014913 24,8.5 C24,13.2336425 20.161932,18.2968078 12.6068387,23.7951555 Z" id="Combined-Shape" fill="#141414" fill-rule="nonzero"></path>
        </g>
    </g>
</svg>