<?xml version="1.0" encoding="UTF-8"?>
<svg width="24px" height="24px" viewBox="0 0 24 24" version="1.1" xmlns="http://www.w3.org/2000/svg" xmlns:xlink="http://www.w3.org/1999/xlink">
    <!-- Generator: Sketch 48.1 (47250) - http://www.bohemiancoding.com/sketch -->
    <title>Icon / phone / thin / rounded</title>
    <desc>Created with Sketch.</desc>
    <defs></defs>
    <g id="Symbols" stroke="none" stroke-width="1" fill="none" fill-rule="evenodd">
        <g id="Icon-/-phone-/-thin-/-rounded">
            <g id="Grid"></g>
            <path d="M7.5,1 C6.94771525,1 6.5,1.44771525 6.5,2 L6.5,22 C6.5,22.5522847 6.94771525,23 7.5,23 L16.5,23 C17.0522847,23 17.5,22.5522847 17.5,22 L17.5,2 C17.5,1.44771525 17.0522847,1 16.5,1 L7.5,1 Z M7.5,0 L16.5,0 C17.6045695,-2.02906125e-16 18.5,0.8954305 18.5,2 L18.5,22 C18.5,23.1045695 17.6045695,24 16.5,24 L7.5,24 C6.3954305,24 5.5,23.1045695 5.5,22 L5.5,2 C5.5,0.8954305 6.3954305,2.02906125e-16 7.5,0 Z" id="Rectangle" fill="#141414" fill-rule="nonzero"></path>
            <path d="M11.5,22 L12.5,22 C12.7761424,22 13,21.7761424 13,21.5 C13,21.2238576 12.7761424,21 12.5,21 L11.5,21 C11.2238576,21 11,21.2238576 11,21.5 C11,21.7761424 11.2238576,22 11.5,22 Z" id="Line" fill="#141414" fill-rule="nonzero"></path>
        </g>
    </g>
</svg>