<?xml version="1.0" encoding="UTF-8"?>
<svg width="24px" height="24px" viewBox="0 0 24 24" version="1.1" xmlns="http://www.w3.org/2000/svg" xmlns:xlink="http://www.w3.org/1999/xlink">
    <!-- Generator: Sketch 48.1 (47250) - http://www.bohemiancoding.com/sketch -->
    <title>Icon / bookmark / bold / rounded</title>
    <desc>Created with Sketch.</desc>
    <defs></defs>
    <g id="Symbols" stroke="none" stroke-width="1" fill="none" fill-rule="evenodd">
        <g id="Icon-/-bookmark-/-bold-/-rounded">
            <g id="Grid"></g>
            <path d="M8,4 L16,4 C16.5522847,4 17,3.55228475 17,3 C17,2.44771525 16.5522847,2 16,2 L8,2 C7.44771525,2 7,2.44771525 7,3 C7,3.55228475 7.44771525,4 8,4 Z" id="Line" fill="#141414" fill-rule="nonzero"></path>
            <path d="M16.2928932,23.7071068 C16.9228581,24.3370716 18,23.8909049 18,23 L18,4 C18,3.44771525 17.5522847,3 17,3 C16.4477153,3 16,3.44771525 16,4 L16,20.5857864 L12.7071068,17.2928932 C12.3165825,16.9023689 11.6834175,16.9023689 11.2928932,17.2928932 L8,20.5857864 L8,4 C8,3.44771525 7.55228475,3 7,3 C6.44771525,3 6,3.44771525 6,4 L6,23 C6,23.8909049 7.07714192,24.3370716 7.70710678,23.7071068 L12,19.4142136 L16.2928932,23.7071068 Z" id="Line-2" fill="#141414" fill-rule="nonzero"></path>
            <path d="M10,4 L8,4 L8,6 C6.8954305,6 6,5.1045695 6,4 C6,2.8954305 6.8954305,2 8,2 C9.1045695,2 10,2.8954305 10,4 Z M14,4 C14,2.8954305 14.8954305,2 16,2 C17.1045695,2 18,2.8954305 18,4 C18,5.1045695 17.1045695,6 16,6 L16,4 L14,4 Z" id="Combined-Shape" fill="#141414"></path>
        </g>
    </g>
</svg>