<?xml version="1.0" encoding="UTF-8"?>
<svg width="24px" height="24px" viewBox="0 0 24 24" version="1.1" xmlns="http://www.w3.org/2000/svg" xmlns:xlink="http://www.w3.org/1999/xlink">
    <!-- Generator: Sketch 48.1 (47250) - http://www.bohemiancoding.com/sketch -->
    <title>Icon / grid / bold / rounded</title>
    <desc>Created with Sketch.</desc>
    <defs></defs>
    <g id="Symbols" stroke="none" stroke-width="1" fill="none" fill-rule="evenodd">
        <g id="Icon-/-grid-/-bold-/-rounded">
            <g id="Grid"></g>
            <path d="M4,2 L9,2 C10.1045695,2 11,2.8954305 11,4 L11,9 C11,10.1045695 10.1045695,11 9,11 L4,11 C2.8954305,11 2,10.1045695 2,9 L2,4 C2,2.8954305 2.8954305,2 4,2 Z M4,4 L4,9 L9,9 L9,4 L4,4 Z" id="Rectangle" fill="#141414" fill-rule="nonzero"></path>
            <path d="M4,13 L9,13 C10.1045695,13 11,13.8954305 11,15 L11,20 C11,21.1045695 10.1045695,22 9,22 L4,22 C2.8954305,22 2,21.1045695 2,20 L2,15 C2,13.8954305 2.8954305,13 4,13 Z M4,15 L4,20 L9,20 L9,15 L4,15 Z" id="Rectangle-Copy-2" fill="#141414" fill-rule="nonzero"></path>
            <path d="M15,2 L20,2 C21.1045695,2 22,2.8954305 22,4 L22,9 C22,10.1045695 21.1045695,11 20,11 L15,11 C13.8954305,11 13,10.1045695 13,9 L13,4 C13,2.8954305 13.8954305,2 15,2 Z M15,4 L15,9 L20,9 L20,4 L15,4 Z" id="Rectangle-Copy" fill="#141414" fill-rule="nonzero"></path>
            <path d="M15,13 L20,13 C21.1045695,13 22,13.8954305 22,15 L22,20 C22,21.1045695 21.1045695,22 20,22 L15,22 C13.8954305,22 13,21.1045695 13,20 L13,15 C13,13.8954305 13.8954305,13 15,13 Z M15,15 L15,20 L20,20 L20,15 L15,15 Z" id="Rectangle-Copy-3" fill="#141414" fill-rule="nonzero"></path>
        </g>
    </g>
</svg>