<?xml version="1.0" encoding="UTF-8"?>
<svg width="24px" height="24px" viewBox="0 0 24 24" version="1.1" xmlns="http://www.w3.org/2000/svg" xmlns:xlink="http://www.w3.org/1999/xlink">
    <!-- Generator: Sketch 48.1 (47250) - http://www.bohemiancoding.com/sketch -->
    <title>Icon / grid / bold / square</title>
    <desc>Created with Sketch.</desc>
    <defs></defs>
    <g id="Symbols" stroke="none" stroke-width="1" fill="none" fill-rule="evenodd">
        <g id="Icon-/-grid-/-bold-/-square">
            <g id="Grid"></g>
            <path d="M4,4 L4,9 L9,9 L9,4 L4,4 Z M2,2 L11,2 L11,11 L2,11 L2,2 Z" id="Rectangle" fill="#141414" fill-rule="nonzero"></path>
            <path d="M15,4 L15,9 L20,9 L20,4 L15,4 Z M13,2 L22,2 L22,11 L13,11 L13,2 Z" id="Rectangle" fill="#141414" fill-rule="nonzero"></path>
            <path d="M4,15 L4,20 L9,20 L9,15 L4,15 Z M2,13 L11,13 L11,22 L2,22 L2,13 Z" id="Rectangle" fill="#141414" fill-rule="nonzero"></path>
            <path d="M15,15 L15,20 L20,20 L20,15 L15,15 Z M13,13 L22,13 L22,22 L13,22 L13,13 Z" id="Rectangle" fill="#141414" fill-rule="nonzero"></path>
        </g>
    </g>
</svg>