<?xml version="1.0" encoding="UTF-8"?>
<svg width="24px" height="24px" viewBox="0 0 24 24" version="1.1" xmlns="http://www.w3.org/2000/svg" xmlns:xlink="http://www.w3.org/1999/xlink">
    <!-- Generator: Sketch 48.1 (47250) - http://www.bohemiancoding.com/sketch -->
    <title>Icon / undo / bold / rounded</title>
    <desc>Created with Sketch.</desc>
    <defs></defs>
    <g id="Symbols" stroke="none" stroke-width="1" fill="none" fill-rule="evenodd">
        <g id="Icon-/-undo-/-bold-/-rounded">
            <g id="Grid"></g>
            <path d="M12,0 C12.5522847,0 13,0.44771525 13,1 C13,1.55228475 12.5522847,2 12,2 C6.4771525,2 2,6.4771525 2,12 C2,17.5228475 6.4771525,22 12,22 C17.5228475,22 22,17.5228475 22,12 C22,8.95460484 20.6315245,6.13550453 18.3162723,4.24683541 C17.8883181,3.89773136 17.8243974,3.26780118 18.1735014,2.83984696 C18.5226055,2.41189275 19.1525357,2.34797206 19.5804899,2.69707611 C22.3565212,4.9616262 24,8.34724154 24,12 C24,18.627417 18.627417,24 12,24 C5.372583,24 0,18.627417 0,12 C0,5.372583 5.372583,0 12,0 Z" id="Oval-2" fill="#141414" fill-rule="nonzero"></path>
            <path d="M19,4 C18.4477153,4 18,3.55228475 18,3 C18,2.44771525 18.4477153,2 19,2 L23,2 C23.5522847,2 24,2.44771525 24,3 C24,3.55228475 23.5522847,4 23,4 L19,4 Z" id="Line" fill="#141414" fill-rule="nonzero"></path>
            <path d="M17,4 C17,3.44771525 17.4477153,3 18,3 C18.5522847,3 19,3.44771525 19,4 L19,8 C19,8.55228475 18.5522847,9 18,9 C17.4477153,9 17,8.55228475 17,8 L17,4 Z" id="Line" fill="#141414" fill-rule="nonzero"></path>
            <path d="M21,4 L19,4 L19,6 C17.8954305,6 17,5.1045695 17,4 C17,2.8954305 17.8954305,2 19,2 C20.1045695,2 21,2.8954305 21,4 Z" id="Combined-Shape" fill="#141414"></path>
        </g>
    </g>
</svg>