<?xml version="1.0" encoding="UTF-8"?>
<svg width="24px" height="24px" viewBox="0 0 24 24" version="1.1" xmlns="http://www.w3.org/2000/svg" xmlns:xlink="http://www.w3.org/1999/xlink">
    <!-- Generator: Sketch 48.1 (47250) - http://www.bohemiancoding.com/sketch -->
    <title>Icon / cloud / bold / rounded</title>
    <desc>Created with Sketch.</desc>
    <defs></defs>
    <g id="Symbols" stroke="none" stroke-width="1" fill="none" fill-rule="evenodd">
        <g id="Icon-/-cloud-/-bold-/-rounded">
            <g id="Grid"></g>
            <path d="M11.4982553,8.06438806 C10.8645988,9.20707908 9.32329441,9.44519324 8.37434386,8.54699716 C8.00430423,8.19674904 7.52018434,8 7,8 C5.8954305,8 5,8.8954305 5,10 C5,10.0694597 5.00346626,10.1381514 5.01032453,10.2059912 C5.0980291,11.0735373 4.61356468,11.8979168 3.81297521,12.2434377 C2.72149661,12.7145014 2,13.7907312 2,15 C2,16.6568542 3.34314575,18 5,18 L19,18 C20.6568542,18 22,16.6568542 22,15 C22,13.7922964 21.2803893,12.717211 20.1910144,12.245163 C19.4144471,11.9086608 18.9337579,11.1197863 18.9907483,10.2753678 C18.996904,10.1841598 19,10.0923459 19,10 C19,7.790861 17.209139,6 15,6 C13.5286291,6 12.1995514,6.79972065 11.4982553,8.06438806 Z M9.74917984,7.09447314 C9.91639328,6.69815771 10.3333307,6.17593136 10.9999921,5.52779408 C12.061506,4.57771001 13.4632873,4 15,4 C18.3137085,4 21,6.6862915 21,10 C21,10.1378156 20.9953536,10.2745459 20.9862088,10.4100429 C22.7594762,11.1784352 24,12.9443477 24,15 C24,17.7614237 21.7614237,20 19,20 L5,20 C2.23857625,20 0,17.7614237 0,15 C0,12.941769 1.24363809,11.1740052 3.02046705,10.4071559 C3.00693255,10.2732768 3,10.137448 3,10 C3,7.790861 4.790861,6 7,6 C7.34714306,6 7.68395765,6.04422143 8.00511784,6.12733836 C8.44045479,6.28636098 8.73874871,6.41058153 8.89999962,6.5 C9.12631804,6.62550037 9.40937812,6.82365808 9.74917984,7.09447314 Z" id="Combined-Shape" fill="#141414" fill-rule="nonzero"></path>
        </g>
    </g>
</svg>