<?xml version="1.0" encoding="UTF-8"?>
<svg width="24px" height="24px" viewBox="0 0 24 24" version="1.1" xmlns="http://www.w3.org/2000/svg" xmlns:xlink="http://www.w3.org/1999/xlink">
    <!-- Generator: Sketch 48.1 (47250) - http://www.bohemiancoding.com/sketch -->
    <title>Icon / photo / bold / rounded</title>
    <desc>Created with Sketch.</desc>
    <defs></defs>
    <g id="Symbols" stroke="none" stroke-width="1" fill="none" fill-rule="evenodd">
        <g id="Icon-/-photo-/-bold-/-rounded">
            <g id="Grid"></g>
            <path d="M4,4 L4,20 L20,20 L20,4 L4,4 Z M4,2 L20,2 C21.1045695,2 22,2.8954305 22,4 L22,20 C22,21.1045695 21.1045695,22 20,22 L4,22 C2.8954305,22 2,21.1045695 2,20 L2,4 C2,2.8954305 2.8954305,2 4,2 Z" id="Rectangle-25" fill="#141414" fill-rule="nonzero"></path>
            <path d="M9,10.8626293 L3.84366149,18.9654469 C3.54715334,19.4313883 2.92906588,19.5687411 2.46312451,19.2722329 C1.99718313,18.9757248 1.85983037,18.3576373 2.15633851,17.8916959 L8.15633851,8.46312451 C8.54929264,7.84562516 9.45070736,7.84562516 9.84366149,8.46312451 L13,13.423085 L14.1563385,11.6059817 C14.5492926,10.9884823 15.4507074,10.9884823 15.8436615,11.6059817 L20.8436615,19.4631245 C21.1401696,19.9290659 21.0028169,20.5471533 20.5368755,20.8436615 C20.0709341,21.1401696 19.4528467,21.0028169 19.1563385,20.5368755 L15,14.0054864 L13.8436615,15.8225898 C13.4507074,16.4400891 12.5492926,16.4400891 12.1563385,15.8225898 L9,10.8626293 Z" id="Line" fill="#141414" fill-rule="nonzero"></path>
        </g>
    </g>
</svg>