<?xml version="1.0" encoding="UTF-8"?>
<svg width="24px" height="24px" viewBox="0 0 24 24" version="1.1" xmlns="http://www.w3.org/2000/svg" xmlns:xlink="http://www.w3.org/1999/xlink">
    <!-- Generator: Sketch 48.1 (47250) - http://www.bohemiancoding.com/sketch -->
    <title>Icon / world / bold / rounded</title>
    <desc>Created with Sketch.</desc>
    <defs></defs>
    <g id="Symbols" stroke="none" stroke-width="1" fill="none" fill-rule="evenodd">
        <g id="Icon-/-world-/-bold-/-rounded">
            <g id="Grid"></g>
            <path d="M12,22 C17.5228475,22 22,17.5228475 22,12 C22,6.4771525 17.5228475,2 12,2 C6.4771525,2 2,6.4771525 2,12 C2,17.5228475 6.4771525,22 12,22 Z M12,24 C5.372583,24 0,18.627417 0,12 C0,5.372583 5.372583,0 12,0 C18.627417,0 24,5.372583 24,12 C24,18.627417 18.627417,24 12,24 Z" id="Oval" fill="#141414" fill-rule="nonzero"></path>
            <path d="M12,22 C13.8322845,22 16,17.6645691 16,12 C16,6.33543094 13.8322845,2 12,2 C10.1677155,2 8,6.33543094 8,12 C8,17.6645691 10.1677155,22 12,22 Z M12,24 C8.6862915,24 6,18.627417 6,12 C6,5.372583 8.6862915,0 12,0 C15.3137085,0 18,5.372583 18,12 C18,18.627417 15.3137085,24 12,24 Z" id="Oval-2" fill="#141414" fill-rule="nonzero"></path>
            <rect id="Rectangle" fill="#141414" x="2" y="11" width="20" height="2"></rect>
            <rect id="Rectangle-Copy" fill="#141414" x="3" y="5" width="18" height="2"></rect>
            <rect id="Rectangle-Copy-2" fill="#141414" x="3" y="17" width="18" height="2"></rect>
        </g>
    </g>
</svg>