<?xml version="1.0" encoding="UTF-8"?>
<svg width="24px" height="24px" viewBox="0 0 24 24" version="1.1" xmlns="http://www.w3.org/2000/svg" xmlns:xlink="http://www.w3.org/1999/xlink">
    <!-- Generator: Sketch 48.1 (47250) - http://www.bohemiancoding.com/sketch -->
    <title>Icon / calendar / thin / rounded</title>
    <desc>Created with Sketch.</desc>
    <defs></defs>
    <g id="Symbols" stroke="none" stroke-width="1" fill="none" fill-rule="evenodd">
        <g id="Icon-/-calendar-/-thin-/-rounded">
            <g id="Grid"></g>
            <path d="M8,0.5 L8,5.5 C8,5.77614237 8.22385763,6 8.5,6 C8.77614237,6 9,5.77614237 9,5.5 L9,0.5 C9,0.223857625 8.77614237,0 8.5,0 C8.22385763,0 8,0.223857625 8,0.5 Z" id="Line" fill="#141414" fill-rule="nonzero"></path>
            <path d="M15,0.5 L15,5.5 C15,5.77614237 15.2238576,6 15.5,6 C15.7761424,6 16,5.77614237 16,5.5 L16,0.5 C16,0.223857625 15.7761424,0 15.5,0 C15.2238576,0 15,0.223857625 15,0.5 Z" id="Line" fill="#141414" fill-rule="nonzero"></path>
            <path d="M4,3 C3.44771525,3 3,3.44771525 3,4 L3,20 C3,20.5522847 3.44771525,21 4,21 L20,21 C20.5522847,21 21,20.5522847 21,20 L21,4 C21,3.44771525 20.5522847,3 20,3 L4,3 Z M4,2 L20,2 C21.1045695,2 22,2.8954305 22,4 L22,20 C22,21.1045695 21.1045695,22 20,22 L4,22 C2.8954305,22 2,21.1045695 2,20 L2,4 C2,2.8954305 2.8954305,2 4,2 Z" id="Rectangle-25" fill="#141414" fill-rule="nonzero"></path>
            <rect id="Rectangle-27" fill="#141414" x="3" y="8" width="18" height="1"></rect>
        </g>
    </g>
</svg>