<?xml version="1.0" encoding="UTF-8"?>
<svg width="24px" height="24px" viewBox="0 0 24 24" version="1.1" xmlns="http://www.w3.org/2000/svg" xmlns:xlink="http://www.w3.org/1999/xlink">
    <!-- Generator: Sketch 48.1 (47250) - http://www.bohemiancoding.com/sketch -->
    <title>Icon / search / bold / rounded</title>
    <desc>Created with Sketch.</desc>
    <defs></defs>
    <g id="Symbols" stroke="none" stroke-width="1" fill="none" fill-rule="evenodd">
        <g id="Icon-/-search-/-bold-/-rounded">
            <g id="Grid"></g>
            <path d="M10,20 C4.4771525,20 0,15.5228475 0,10 C0,4.4771525 4.4771525,0 10,0 C15.5228475,0 20,4.4771525 20,10 C20,15.5228475 15.5228475,20 10,20 Z M10,18 C14.418278,18 18,14.418278 18,10 C18,5.581722 14.418278,2 10,2 C5.581722,2 2,5.581722 2,10 C2,14.418278 5.581722,18 10,18 Z" id="Combined-Shape" fill="#141414"></path>
            <path d="M16.2928932,17.7071068 L22.2928932,23.7071068 C22.6834175,24.0976311 23.3165825,24.0976311 23.7071068,23.7071068 C24.0976311,23.3165825 24.0976311,22.6834175 23.7071068,22.2928932 L17.7071068,16.2928932 C17.3165825,15.9023689 16.6834175,15.9023689 16.2928932,16.2928932 C15.9023689,16.6834175 15.9023689,17.3165825 16.2928932,17.7071068 Z" id="Line-2" fill="#141414" fill-rule="nonzero"></path>
        </g>
    </g>
</svg>