<?xml version="1.0" encoding="UTF-8"?>
<svg width="24px" height="24px" viewBox="0 0 24 24" version="1.1" xmlns="http://www.w3.org/2000/svg" xmlns:xlink="http://www.w3.org/1999/xlink">
    <!-- Generator: Sketch 48.1 (47250) - http://www.bohemiancoding.com/sketch -->
    <title>Icon / folder / thin / rounded</title>
    <desc>Created with Sketch.</desc>
    <defs></defs>
    <g id="Symbols" stroke="none" stroke-width="1" fill="none" fill-rule="evenodd">
        <g id="Icon-/-folder-/-thin-/-rounded">
            <g id="Grid"></g>
            <path d="M2,5 C1.44771525,5 1,5.44771525 1,6 L1,18 C1,18.5522847 1.44771525,19 2,19 L22,19 C22.5522847,19 23,18.5522847 23,18 L23,6 C23,5.44771525 22.5522847,5 22,5 L2,5 Z M2,4 L22,4 C23.1045695,4 24,4.8954305 24,6 L24,18 C24,19.1045695 23.1045695,20 22,20 L2,20 C0.8954305,20 1.3527075e-16,19.1045695 0,18 L0,6 C-1.3527075e-16,4.8954305 0.8954305,4 2,4 Z" id="Rectangle" fill="#141414" fill-rule="nonzero"></path>
            <path d="M1,4 C1,3.44771525 1.44771525,3 2,3 L9.17157288,3 C9.43678937,3 9.69114328,3.10535684 9.87867966,3.29289322 L10.7878169,4.20203051 L12,4 L10.5857864,2.58578644 C10.2107137,2.21071368 9.70200585,2 9.17157288,2 L2,2 C0.8954305,2 -1.3527075e-16,2.8954305 0,4 L0,6 L1,5.83333333 L1,4 Z M1,4 C1,3.44771525 1.44771525,3 2,3 L9.17157288,3 C9.43678937,3 9.69114328,3.10535684 9.87867966,3.29289322 L10.7878169,4.20203051 L12,4 L10.5857864,2.58578644 C10.2107137,2.21071368 9.70200585,2 9.17157288,2 L2,2 C0.8954305,2 -1.3527075e-16,2.8954305 0,4 L0,6 L1,5.83333333 L1,4 Z" id="Rectangle-18" fill="#141414" fill-rule="nonzero"></path>
        </g>
    </g>
</svg>