<?xml version="1.0" encoding="UTF-8"?>
<svg width="24px" height="24px" viewBox="0 0 24 24" version="1.1" xmlns="http://www.w3.org/2000/svg" xmlns:xlink="http://www.w3.org/1999/xlink">
    <!-- Generator: Sketch 48.1 (47250) - http://www.bohemiancoding.com/sketch -->
    <title>Icon / grid / thin / rounded</title>
    <desc>Created with Sketch.</desc>
    <defs></defs>
    <g id="Symbols" stroke="none" stroke-width="1" fill="none" fill-rule="evenodd">
        <g id="Icon-/-grid-/-thin-/-rounded">
            <g id="Grid"></g>
            <path d="M4,2 L9,2 C10.1045695,2 11,2.8954305 11,4 L11,9 C11,10.1045695 10.1045695,11 9,11 L4,11 C2.8954305,11 2,10.1045695 2,9 L2,4 C2,2.8954305 2.8954305,2 4,2 Z M3,4 L3,9 C3,9.55228475 3.44771525,10 4,10 L9,10 C9.55228475,10 10,9.55228475 10,9 L10,4 C10,3.44771525 9.55228475,3 9,3 L4,3 C3.44771525,3 3,3.44771525 3,4 Z" id="Rectangle" fill="#141414" fill-rule="nonzero"></path>
            <path d="M4,13 L9,13 C10.1045695,13 11,13.8954305 11,15 L11,20 C11,21.1045695 10.1045695,22 9,22 L4,22 C2.8954305,22 2,21.1045695 2,20 L2,15 C2,13.8954305 2.8954305,13 4,13 Z M3,15 L3,20 C3,20.5522847 3.44771525,21 4,21 L9,21 C9.55228475,21 10,20.5522847 10,20 L10,15 C10,14.4477153 9.55228475,14 9,14 L4,14 C3.44771525,14 3,14.4477153 3,15 Z" id="Rectangle-Copy-2" fill="#141414" fill-rule="nonzero"></path>
            <path d="M15,2 L20,2 C21.1045695,2 22,2.8954305 22,4 L22,9 C22,10.1045695 21.1045695,11 20,11 L15,11 C13.8954305,11 13,10.1045695 13,9 L13,4 C13,2.8954305 13.8954305,2 15,2 Z M14,4 L14,9 C14,9.55228475 14.4477153,10 15,10 L20,10 C20.5522847,10 21,9.55228475 21,9 L21,4 C21,3.44771525 20.5522847,3 20,3 L15,3 C14.4477153,3 14,3.44771525 14,4 Z" id="Rectangle-Copy" fill="#141414" fill-rule="nonzero"></path>
            <path d="M15,13 L20,13 C21.1045695,13 22,13.8954305 22,15 L22,20 C22,21.1045695 21.1045695,22 20,22 L15,22 C13.8954305,22 13,21.1045695 13,20 L13,15 C13,13.8954305 13.8954305,13 15,13 Z M14,15 L14,20 C14,20.5522847 14.4477153,21 15,21 L20,21 C20.5522847,21 21,20.5522847 21,20 L21,15 C21,14.4477153 20.5522847,14 20,14 L15,14 C14.4477153,14 14,14.4477153 14,15 Z" id="Rectangle-Copy-3" fill="#141414" fill-rule="nonzero"></path>
        </g>
    </g>
</svg>