<?xml version="1.0" encoding="UTF-8"?>
<svg width="24px" height="24px" viewBox="0 0 24 24" version="1.1" xmlns="http://www.w3.org/2000/svg" xmlns:xlink="http://www.w3.org/1999/xlink">
    <!-- Generator: Sketch 48.1 (47250) - http://www.bohemiancoding.com/sketch -->
    <title>Icon / grid / thin / square</title>
    <desc>Created with Sketch.</desc>
    <defs></defs>
    <g id="Symbols" stroke="none" stroke-width="1" fill="none" fill-rule="evenodd">
        <g id="Icon-/-grid-/-thin-/-square">
            <g id="Grid"></g>
            <path d="M3,3 L3,10 L10,10 L10,3 L3,3 Z M2,2 L11,2 L11,11 L2,11 L2,2 Z" id="Rectangle" fill="#141414" fill-rule="nonzero"></path>
            <path d="M14,3 L14,10 L21,10 L21,3 L14,3 Z M13,2 L22,2 L22,11 L13,11 L13,2 Z" id="Rectangle" fill="#141414" fill-rule="nonzero"></path>
            <path d="M3,14 L3,21 L10,21 L10,14 L3,14 Z M2,13 L11,13 L11,22 L2,22 L2,13 Z" id="Rectangle" fill="#141414" fill-rule="nonzero"></path>
            <path d="M14,14 L14,21 L21,21 L21,14 L14,14 Z M13,13 L22,13 L22,22 L13,22 L13,13 Z" id="Rectangle" fill="#141414" fill-rule="nonzero"></path>
        </g>
    </g>
</svg>