<?xml version="1.0" encoding="UTF-8"?>
<svg width="24px" height="24px" viewBox="0 0 24 24" version="1.1" xmlns="http://www.w3.org/2000/svg" xmlns:xlink="http://www.w3.org/1999/xlink">
    <!-- Generator: Sketch 48.1 (47250) - http://www.bohemiancoding.com/sketch -->
    <title>Icon / maximize / thin / rounded</title>
    <desc>Created with Sketch.</desc>
    <defs></defs>
    <g id="Symbols" stroke="none" stroke-width="1" fill="none" fill-rule="evenodd">
        <g id="Icon-/-maximize-/-thin-/-rounded">
            <g id="Grid"></g>
            <path d="M21,4 C21,3.44771525 20.5522847,3 20,3 L12.5,3 C12.2238576,3 12,2.77614237 12,2.5 C12,2.22385763 12.2238576,2 12.5,2 L20,2 C21.1045695,2 22,2.8954305 22,4 L22,11.5 C22,11.7761424 21.7761424,12 21.5,12 C21.2238576,12 21,11.7761424 21,11.5 L21,4 Z" id="Combined-Shape" fill="#141414" fill-rule="nonzero"></path>
            <path d="M4,21 L11.5,21 C11.7761424,21 12,21.2238576 12,21.5 C12,21.7761424 11.7761424,22 11.5,22 L4,22 C2.8954305,22 2,21.1045695 2,20 L2,12.5 C2,12.2238576 2.22385763,12 2.5,12 C2.77614237,12 3,12.2238576 3,12.5 L3,20 C3,20.5522847 3.44771525,21 4,21 Z" id="Combined-Shape" fill="#141414" fill-rule="nonzero"></path>
        </g>
    </g>
</svg>