<?xml version="1.0" encoding="UTF-8"?>
<svg width="24px" height="24px" viewBox="0 0 24 24" version="1.1" xmlns="http://www.w3.org/2000/svg" xmlns:xlink="http://www.w3.org/1999/xlink">
    <!-- Generator: Sketch 48.1 (47250) - http://www.bohemiancoding.com/sketch -->
    <title>Icon / settings / thin / rounded</title>
    <desc>Created with Sketch.</desc>
    <defs></defs>
    <g id="Symbols" stroke="none" stroke-width="1" fill="none" fill-rule="evenodd">
        <g id="Icon-/-settings-/-thin-/-rounded">
            <g id="Grid"></g>
            <path d="M12,21 C16.9705627,21 21,16.9705627 21,12 C21,7.02943725 16.9705627,3 12,3 C7.02943725,3 3,7.02943725 3,12 C3,16.9705627 7.02943725,21 12,21 Z M12,22 C6.4771525,22 2,17.5228475 2,12 C2,6.4771525 6.4771525,2 12,2 C17.5228475,2 22,6.4771525 22,12 C22,17.5228475 17.5228475,22 12,22 Z" id="Oval-14" fill="#141414" fill-rule="nonzero"></path>
            <path d="M12,15 C13.6568542,15 15,13.6568542 15,12 C15,10.3431458 13.6568542,9 12,9 C10.3431458,9 9,10.3431458 9,12 C9,13.6568542 10.3431458,15 12,15 Z M12,16 C9.790861,16 8,14.209139 8,12 C8,9.790861 9.790861,8 12,8 C14.209139,8 16,9.790861 16,12 C16,14.209139 14.209139,16 12,16 Z" id="Oval" fill="#141414" fill-rule="nonzero"></path>
            <g id="Group" fill="#141414" fill-rule="nonzero">
                <path d="M11.5,0.5 L11.5,2.5 C11.5,2.77614237 11.7238576,3 12,3 C12.2761424,3 12.5,2.77614237 12.5,2.5 L12.5,0.5 C12.5,0.223857625 12.2761424,0 12,0 C11.7238576,0 11.5,0.223857625 11.5,0.5 Z" id="Line"></path>
                <path d="M11.5,21.5 L11.5,23.5 C11.5,23.7761424 11.7238576,24 12,24 C12.2761424,24 12.5,23.7761424 12.5,23.5 L12.5,21.5 C12.5,21.2238576 12.2761424,21 12,21 C11.7238576,21 11.5,21.2238576 11.5,21.5 Z" id="Line-Copy"></path>
                <path d="M7.75,1.50480947 L7.75,9.50480947 C7.75,9.78095185 7.97385763,10.0048095 8.25,10.0048095 C8.52614237,10.0048095 8.75,9.78095185 8.75,9.50480947 L8.75,1.50480947 C8.75,1.2286671 8.52614237,1.00480947 8.25,1.00480947 C7.97385763,1.00480947 7.75,1.2286671 7.75,1.50480947 Z" id="Line" transform="translate(8.250000, 5.504809) rotate(150.000000) translate(-8.250000, -5.504809) "></path>
                <path d="M16.75,20.0932667 L16.75,22.0932667 C16.75,22.3694091 16.9738576,22.5932667 17.25,22.5932667 C17.5261424,22.5932667 17.75,22.3694091 17.75,22.0932667 L17.75,20.0932667 C17.75,19.8171244 17.5261424,19.5932667 17.25,19.5932667 C16.9738576,19.5932667 16.75,19.8171244 16.75,20.0932667 Z" id="Line-Copy" transform="translate(17.250000, 21.093267) rotate(150.000000) translate(-17.250000, -21.093267) "></path>
                <path d="M2.40673326,5.75 L2.40673326,7.75 C2.40673326,8.02614237 2.63059089,8.25 2.90673326,8.25 C3.18287564,8.25 3.40673326,8.02614237 3.40673326,7.75 L3.40673326,5.75 C3.40673326,5.47385763 3.18287564,5.25 2.90673326,5.25 C2.63059089,5.25 2.40673326,5.47385763 2.40673326,5.75 Z" id="Line" transform="translate(2.906733, 6.750000) rotate(120.000000) translate(-2.906733, -6.750000) "></path>
                <path d="M20.5932667,16.25 L20.5932667,18.25 C20.5932667,18.5261424 20.8171244,18.75 21.0932667,18.75 C21.3694091,18.75 21.5932667,18.5261424 21.5932667,18.25 L21.5932667,16.25 C21.5932667,15.9738576 21.3694091,15.75 21.0932667,15.75 C20.8171244,15.75 20.5932667,15.9738576 20.5932667,16.25 Z" id="Line-Copy" transform="translate(21.093267, 17.250000) rotate(120.000000) translate(-21.093267, -17.250000) "></path>
                <path d="M1,11 L1,13 C1,13.2761424 1.22385763,13.5 1.5,13.5 C1.77614237,13.5 2,13.2761424 2,13 L2,11 C2,10.7238576 1.77614237,10.5 1.5,10.5 C1.22385763,10.5 1,10.7238576 1,11 Z" id="Line" transform="translate(1.500000, 12.000000) rotate(90.000000) translate(-1.500000, -12.000000) "></path>
                <path d="M19,8 L19,16 C19,16.2761424 19.2238576,16.5 19.5,16.5 C19.7761424,16.5 20,16.2761424 20,16 L20,8 C20,7.72385763 19.7761424,7.5 19.5,7.5 C19.2238576,7.5 19,7.72385763 19,8 Z" id="Line-Copy" transform="translate(19.500000, 12.000000) rotate(90.000000) translate(-19.500000, -12.000000) "></path>
                <path d="M2.40673326,16.25 L2.40673326,18.25 C2.40673326,18.5261424 2.63059089,18.75 2.90673326,18.75 C3.18287564,18.75 3.40673326,18.5261424 3.40673326,18.25 L3.40673326,16.25 C3.40673326,15.9738576 3.18287564,15.75 2.90673326,15.75 C2.63059089,15.75 2.40673326,15.9738576 2.40673326,16.25 Z" id="Line" transform="translate(2.906733, 17.250000) rotate(60.000000) translate(-2.906733, -17.250000) "></path>
                <path d="M20.5932667,5.75 L20.5932667,7.75 C20.5932667,8.02614237 20.8171244,8.25 21.0932667,8.25 C21.3694091,8.25 21.5932667,8.02614237 21.5932667,7.75 L21.5932667,5.75 C21.5932667,5.47385763 21.3694091,5.25 21.0932667,5.25 C20.8171244,5.25 20.5932667,5.47385763 20.5932667,5.75 Z" id="Line-Copy" transform="translate(21.093267, 6.750000) rotate(60.000000) translate(-21.093267, -6.750000) "></path>
                <path d="M7.75,14.4951905 L7.75,22.4951905 C7.75,22.7713329 7.97385763,22.9951905 8.25,22.9951905 C8.52614237,22.9951905 8.75,22.7713329 8.75,22.4951905 L8.75,14.4951905 C8.75,14.2190482 8.52614237,13.9951905 8.25,13.9951905 C7.97385763,13.9951905 7.75,14.2190482 7.75,14.4951905 Z" id="Line" transform="translate(8.250000, 18.495191) rotate(30.000000) translate(-8.250000, -18.495191) "></path>
                <path d="M16.75,1.90673326 L16.75,3.90673326 C16.75,4.18287564 16.9738576,4.40673326 17.25,4.40673326 C17.5261424,4.40673326 17.75,4.18287564 17.75,3.90673326 L17.75,1.90673326 C17.75,1.63059089 17.5261424,1.40673326 17.25,1.40673326 C16.9738576,1.40673326 16.75,1.63059089 16.75,1.90673326 Z" id="Line-Copy" transform="translate(17.250000, 2.906733) rotate(30.000000) translate(-17.250000, -2.906733) "></path>
            </g>
        </g>
    </g>
</svg>