<?xml version="1.0" encoding="UTF-8"?>
<svg width="24px" height="24px" viewBox="0 0 24 24" version="1.1" xmlns="http://www.w3.org/2000/svg" xmlns:xlink="http://www.w3.org/1999/xlink">
    <!-- Generator: Sketch 48.1 (47250) - http://www.bohemiancoding.com/sketch -->
    <title>Icon / settings / thin / square</title>
    <desc>Created with Sketch.</desc>
    <defs></defs>
    <g id="Symbols" stroke="none" stroke-width="1" fill="none" fill-rule="evenodd">
        <g id="Icon-/-settings-/-thin-/-square">
            <g id="Grid"></g>
            <path d="M12,21 C16.9705627,21 21,16.9705627 21,12 C21,7.02943725 16.9705627,3 12,3 C7.02943725,3 3,7.02943725 3,12 C3,16.9705627 7.02943725,21 12,21 Z M12,22 C6.4771525,22 2,17.5228475 2,12 C2,6.4771525 6.4771525,2 12,2 C17.5228475,2 22,6.4771525 22,12 C22,17.5228475 17.5228475,22 12,22 Z" id="Oval-14" fill="#141414" fill-rule="nonzero"></path>
            <path d="M12,15 C13.6568542,15 15,13.6568542 15,12 C15,10.3431458 13.6568542,9 12,9 C10.3431458,9 9,10.3431458 9,12 C9,13.6568542 10.3431458,15 12,15 Z M12,16 C9.790861,16 8,14.209139 8,12 C8,9.790861 9.790861,8 12,8 C14.209139,8 16,9.790861 16,12 C16,14.209139 14.209139,16 12,16 Z" id="Oval" fill="#141414" fill-rule="nonzero"></path>
            <g id="Group" fill="#141414">
                <rect id="Rectangle-22" x="11.5" y="0" width="1" height="3"></rect>
                <rect id="Rectangle-22-Copy" x="11.5" y="21" width="1" height="3"></rect>
                <rect id="Rectangle-22" transform="translate(8.250000, 5.504809) rotate(-30.000000) translate(-8.250000, -5.504809) " x="7.75" y="1.00480947" width="1" height="9"></rect>
                <rect id="Rectangle-22-Copy" transform="translate(17.250000, 21.093267) rotate(-30.000000) translate(-17.250000, -21.093267) " x="16.75" y="19.5932667" width="1" height="3"></rect>
                <rect id="Rectangle-22" transform="translate(2.906733, 6.750000) rotate(-60.000000) translate(-2.906733, -6.750000) " x="2.40673326" y="5.25" width="1" height="3"></rect>
                <rect id="Rectangle-22-Copy" transform="translate(21.093267, 17.250000) rotate(-60.000000) translate(-21.093267, -17.250000) " x="20.5932667" y="15.75" width="1" height="3"></rect>
                <rect id="Rectangle-22" transform="translate(1.500000, 12.000000) rotate(-90.000000) translate(-1.500000, -12.000000) " x="1" y="10.5" width="1" height="3"></rect>
                <rect id="Rectangle-22-Copy" transform="translate(19.500000, 12.000000) rotate(-90.000000) translate(-19.500000, -12.000000) " x="19" y="7.5" width="1" height="9"></rect>
                <rect id="Rectangle-22" transform="translate(2.906733, 17.250000) rotate(-120.000000) translate(-2.906733, -17.250000) " x="2.40673326" y="15.75" width="1" height="3"></rect>
                <rect id="Rectangle-22-Copy" transform="translate(21.093267, 6.750000) rotate(-120.000000) translate(-21.093267, -6.750000) " x="20.5932667" y="5.25" width="1" height="3"></rect>
                <rect id="Rectangle-22" transform="translate(8.250000, 18.495191) rotate(-150.000000) translate(-8.250000, -18.495191) " x="7.75" y="13.9951905" width="1" height="9"></rect>
                <rect id="Rectangle-22-Copy" transform="translate(17.250000, 2.906733) rotate(-150.000000) translate(-17.250000, -2.906733) " x="16.75" y="1.40673326" width="1" height="3"></rect>
            </g>
        </g>
    </g>
</svg>