<?xml version="1.0" encoding="UTF-8"?>
<svg width="24px" height="24px" viewBox="0 0 24 24" version="1.1" xmlns="http://www.w3.org/2000/svg" xmlns:xlink="http://www.w3.org/1999/xlink">
    <!-- Generator: Sketch 48.1 (47250) - http://www.bohemiancoding.com/sketch -->
    <title>Icon / email / thin / rounded</title>
    <desc>Created with Sketch.</desc>
    <defs></defs>
    <g id="Symbols" stroke="none" stroke-width="1" fill="none" fill-rule="evenodd">
        <g id="Icon-/-email-/-thin-/-rounded">
            <g id="Grid"></g>
            <path d="M2,5 C1.44771525,5 1,5.44771525 1,6 L1,18 C1,18.5522847 1.44771525,19 2,19 L22,19 C22.5522847,19 23,18.5522847 23,18 L23,6 C23,5.44771525 22.5522847,5 22,5 L2,5 Z M2,4 L22,4 C23.1045695,4 24,4.8954305 24,6 L24,18 C24,19.1045695 23.1045695,20 22,20 L2,20 C0.8954305,20 1.3527075e-16,19.1045695 0,18 L0,6 C-1.3527075e-16,4.8954305 0.8954305,4 2,4 Z" id="Rectangle" fill="#141414" fill-rule="nonzero"></path>
            <path d="M0.292893219,5 L1,4.29289322 L11.2928932,14.5857864 C11.6834175,14.9763107 12.3165825,14.9763107 12.7071068,14.5857864 L23,4.29289322 L23.7071068,5 L13.4142136,15.2928932 C12.633165,16.0739418 11.366835,16.0739418 10.5857864,15.2928932 L0.292893219,5 Z" id="Line" fill="#141414" fill-rule="nonzero"></path>
            <polygon id="Line-2" fill="#141414" fill-rule="nonzero" points="1 19.7071068 0.292893219 19 7.5 11.7928932 8.20710678 12.5"></polygon>
            <polygon id="Line-2" fill="#141414" fill-rule="nonzero" points="23.7071068 19 23 19.7071068 15.7928932 12.5 16.5 11.7928932"></polygon>
        </g>
    </g>
</svg>