<?xml version="1.0" encoding="UTF-8"?>
<svg width="24px" height="24px" viewBox="0 0 24 24" version="1.1" xmlns="http://www.w3.org/2000/svg" xmlns:xlink="http://www.w3.org/1999/xlink">
    <!-- Generator: Sketch 48.1 (47250) - http://www.bohemiancoding.com/sketch -->
    <title>Icon / lock / thin / rounded</title>
    <desc>Created with Sketch.</desc>
    <defs></defs>
    <g id="Symbols" stroke="none" stroke-width="1" fill="none" fill-rule="evenodd">
        <g id="Icon-/-lock-/-thin-/-rounded">
            <g id="Grid"></g>
            <path d="M6,10 C4.8954305,10 4,10.8954305 4,12 L5,12 C5,11.4477153 5.44771525,11 6,11 L6,10 Z" id="Oval" fill="#141414" fill-rule="nonzero"></path>
            <rect id="Rectangle" fill="#141414" x="4" y="12" width="1" height="10"></rect>
            <rect id="Rectangle-Copy" fill="#141414" x="19" y="12" width="1" height="10"></rect>
            <rect id="Rectangle-2" fill="#141414" x="6" y="10" width="12" height="1"></rect>
            <rect id="Rectangle-2" fill="#141414" x="6" y="6" width="1" height="4"></rect>
            <rect id="Rectangle-2-Copy-2" fill="#141414" x="17" y="6" width="1" height="4"></rect>
            <path d="M17,6 C17,3.23857625 14.7614237,1 12,1 C9.23857625,1 7,3.23857625 7,6 L6,6 C6,2.6862915 8.6862915,0 12,0 C15.3137085,0 18,2.6862915 18,6 L17,6 Z" id="Combined-Shape" fill="#141414"></path>
            <rect id="Rectangle-3" fill="#141414" x="6" y="23" width="12" height="1"></rect>
            <path d="M20,12 C20,10.8954305 19.1045695,10 18,10 L18,11 C18.5522847,11 19,11.4477153 19,12 L20,12 Z" id="Oval-Copy" fill="#141414" fill-rule="nonzero"></path>
            <path d="M4,22 C4,23.1045695 4.8954305,24 6,24 L6,23 C5.44771525,23 5,22.5522847 5,22 L4,22 Z" id="Oval-2" fill="#141414" fill-rule="nonzero"></path>
            <path d="M18,24 C19.1045695,24 20,23.1045695 20,22 L19,22 C19,22.5522847 18.5522847,23 18,23 L18,24 Z" id="Oval-2-Copy" fill="#141414" fill-rule="nonzero"></path>
        </g>
    </g>
</svg>