<?xml version="1.0" encoding="UTF-8"?>
<svg width="24px" height="24px" viewBox="0 0 24 24" version="1.1" xmlns="http://www.w3.org/2000/svg" xmlns:xlink="http://www.w3.org/1999/xlink">
    <!-- Generator: Sketch 48.1 (47250) - http://www.bohemiancoding.com/sketch -->
    <title>Icon / pin / bold / rounded</title>
    <desc>Created with Sketch.</desc>
    <defs></defs>
    <g id="Symbols" stroke="none" stroke-width="1" fill="none" fill-rule="evenodd">
        <g id="Icon-/-pin-/-bold-/-rounded">
            <g id="Grid"></g>
            <path d="M18,8 C18,4.6862915 15.3137085,2 12,2 C8.6862915,2 6,4.6862915 6,8 C6,11.6696071 7.97005185,16.2655427 11.999993,21.7218832 C16.0299504,16.2655375 18,11.669605 18,8 Z M13.6087733,22.910105 C13.4903303,23.070471 13.3485752,23.2122261 13.1882093,23.3306691 C12.2997137,23.9868937 11.0474707,23.7986009 10.3912461,22.9101054 C6.13041124,17.1411721 4,12.171134 4,8 C4,3.581722 7.581722,0 12,0 C16.418278,0 20,3.581722 20,8 C20,12.1711317 17.8695911,17.1411667 13.6087733,22.910105 Z" id="Oval-2" fill="#141414" fill-rule="nonzero"></path>
            <path d="M12,10 C13.1045695,10 14,9.1045695 14,8 C14,6.8954305 13.1045695,6 12,6 C10.8954305,6 10,6.8954305 10,8 C10,9.1045695 10.8954305,10 12,10 Z M12,12 C9.790861,12 8,10.209139 8,8 C8,5.790861 9.790861,4 12,4 C14.209139,4 16,5.790861 16,8 C16,10.209139 14.209139,12 12,12 Z" id="Oval" fill="#141414" fill-rule="nonzero"></path>
        </g>
    </g>
</svg>