<?xml version="1.0" encoding="UTF-8"?>
<svg width="24px" height="24px" viewBox="0 0 24 24" version="1.1" xmlns="http://www.w3.org/2000/svg" xmlns:xlink="http://www.w3.org/1999/xlink">
    <!-- Generator: Sketch 48.1 (47250) - http://www.bohemiancoding.com/sketch -->
    <title>Icon / desktop / thin / rounded</title>
    <desc>Created with Sketch.</desc>
    <defs></defs>
    <g id="Symbols" stroke="none" stroke-width="1" fill="none" fill-rule="evenodd">
        <g id="Icon-/-desktop-/-thin-/-rounded">
            <g id="Grid"></g>
            <path d="M9.5,22 L14.5,22 C14.7761424,22 15,21.7761424 15,21.5 C15,21.2238576 14.7761424,21 14.5,21 L9.5,21 C9.22385763,21 9,21.2238576 9,21.5 C9,21.7761424 9.22385763,22 9.5,22 Z" id="Line-2" fill="#141414" fill-rule="nonzero"></path>
            <path d="M2,3 C1.44771525,3 1,3.44771525 1,4 L1,18 C1,18.5522847 1.44771525,19 2,19 L22,19 C22.5522847,19 23,18.5522847 23,18 L23,4 C23,3.44771525 22.5522847,3 22,3 L2,3 Z M2,2 L22,2 C23.1045695,2 24,2.8954305 24,4 L24,18 C24,19.1045695 23.1045695,20 22,20 L2,20 C0.8954305,20 1.3527075e-16,19.1045695 0,18 L0,4 C-1.3527075e-16,2.8954305 0.8954305,2 2,2 Z" id="Rectangle" fill="#141414" fill-rule="nonzero"></path>
            <rect id="Rectangle-24" fill="#141414" x="11.5" y="19" width="1" height="3"></rect>
        </g>
    </g>
</svg>