<?xml version="1.0" encoding="UTF-8"?>
<svg width="24px" height="24px" viewBox="0 0 24 24" version="1.1" xmlns="http://www.w3.org/2000/svg" xmlns:xlink="http://www.w3.org/1999/xlink">
    <!-- Generator: Sketch 48.1 (47250) - http://www.bohemiancoding.com/sketch -->
    <title>Icon / settings / bold / rounded</title>
    <desc>Created with Sketch.</desc>
    <defs></defs>
    <g id="Symbols" stroke="none" stroke-width="1" fill="none" fill-rule="evenodd">
        <g id="Icon-/-settings-/-bold-/-rounded">
            <g id="Grid"></g>
            <path d="M12,20 C16.418278,20 20,16.418278 20,12 C20,7.581722 16.418278,4 12,4 C7.581722,4 4,7.581722 4,12 C4,16.418278 7.581722,20 12,20 Z M12,22 C6.4771525,22 2,17.5228475 2,12 C2,6.4771525 6.4771525,2 12,2 C17.5228475,2 22,6.4771525 22,12 C22,17.5228475 17.5228475,22 12,22 Z" id="Oval-14" fill="#141414" fill-rule="nonzero"></path>
            <path d="M12,14 C13.1045695,14 14,13.1045695 14,12 C14,10.8954305 13.1045695,10 12,10 C10.8954305,10 10,10.8954305 10,12 C10,13.1045695 10.8954305,14 12,14 Z M12,16 C9.790861,16 8,14.209139 8,12 C8,9.790861 9.790861,8 12,8 C14.209139,8 16,9.790861 16,12 C16,14.209139 14.209139,16 12,16 Z" id="Oval" fill="#141414" fill-rule="nonzero"></path>
            <g id="Group" fill="#141414" fill-rule="nonzero">
                <path d="M11,1 L11,3 C11,3.55228475 11.4477153,4 12,4 C12.5522847,4 13,3.55228475 13,3 L13,1 C13,0.44771525 12.5522847,0 12,0 C11.4477153,0 11,0.44771525 11,1 Z" id="Line"></path>
                <path d="M11,21 L11,23 C11,23.5522847 11.4477153,24 12,24 C12.5522847,24 13,23.5522847 13,23 L13,21 C13,20.4477153 12.5522847,20 12,20 C11.4477153,20 11,20.4477153 11,21 Z" id="Line"></path>
                <path d="M7.5,1.93782217 L7.5,9.93782217 C7.5,10.4901069 7.94771525,10.9378222 8.5,10.9378222 C9.05228475,10.9378222 9.5,10.4901069 9.5,9.93782217 L9.5,1.93782217 C9.5,1.38553742 9.05228475,0.937822174 8.5,0.937822174 C7.94771525,0.937822174 7.5,1.38553742 7.5,1.93782217 Z" id="Line" transform="translate(8.500000, 5.937822) rotate(150.000000) translate(-8.500000, -5.937822) "></path>
                <path d="M16,19.660254 L16,21.660254 C16,22.2125388 16.4477153,22.660254 17,22.660254 C17.5522847,22.660254 18,22.2125388 18,21.660254 L18,19.660254 C18,19.1079693 17.5522847,18.660254 17,18.660254 C16.4477153,18.660254 16,19.1079693 16,19.660254 Z" id="Line" transform="translate(17.000000, 20.660254) rotate(150.000000) translate(-17.000000, -20.660254) "></path>
                <path d="M18,8 L18,16 C18,16.5522847 18.4477153,17 19,17 C19.5522847,17 20,16.5522847 20,16 L20,8 C20,7.44771525 19.5522847,7 19,7 C18.4477153,7 18,7.44771525 18,8 Z" id="Line" transform="translate(19.000000, 12.000000) rotate(90.000000) translate(-19.000000, -12.000000) "></path>
                <path d="M1,11 L1,13 C1,13.5522847 1.44771525,14 2,14 C2.55228475,14 3,13.5522847 3,13 L3,11 C3,10.4477153 2.55228475,10 2,10 C1.44771525,10 1,10.4477153 1,11 Z" id="Line" transform="translate(2.000000, 12.000000) rotate(90.000000) translate(-2.000000, -12.000000) "></path>
                <path d="M7.5,14.0621778 L7.5,22.0621778 C7.5,22.6144626 7.94771525,23.0621778 8.5,23.0621778 C9.05228475,23.0621778 9.5,22.6144626 9.5,22.0621778 L9.5,14.0621778 C9.5,13.5098931 9.05228475,13.0621778 8.5,13.0621778 C7.94771525,13.0621778 7.5,13.5098931 7.5,14.0621778 Z" id="Line" transform="translate(8.500000, 18.062178) rotate(30.000000) translate(-8.500000, -18.062178) "></path>
                <path d="M16,2.33974596 L16,4.33974596 C16,4.89203071 16.4477153,5.33974596 17,5.33974596 C17.5522847,5.33974596 18,4.89203071 18,4.33974596 L18,2.33974596 C18,1.78746121 17.5522847,1.33974596 17,1.33974596 C16.4477153,1.33974596 16,1.78746121 16,2.33974596 Z" id="Line" transform="translate(17.000000, 3.339746) rotate(30.000000) translate(-17.000000, -3.339746) "></path>
                <path d="M19.660254,6 L19.660254,8 C19.660254,8.55228475 20.1079693,9 20.660254,9 C21.2125388,9 21.660254,8.55228475 21.660254,8 L21.660254,6 C21.660254,5.44771525 21.2125388,5 20.660254,5 C20.1079693,5 19.660254,5.44771525 19.660254,6 Z" id="Line" transform="translate(20.660254, 7.000000) rotate(60.000000) translate(-20.660254, -7.000000) "></path>
                <path d="M2.33974596,16 L2.33974596,18 C2.33974596,18.5522847 2.78746121,19 3.33974596,19 C3.89203071,19 4.33974596,18.5522847 4.33974596,18 L4.33974596,16 C4.33974596,15.4477153 3.89203071,15 3.33974596,15 C2.78746121,15 2.33974596,15.4477153 2.33974596,16 Z" id="Line" transform="translate(3.339746, 17.000000) rotate(60.000000) translate(-3.339746, -17.000000) "></path>
                <path d="M19.660254,16 L19.660254,18 C19.660254,18.5522847 20.1079693,19 20.660254,19 C21.2125388,19 21.660254,18.5522847 21.660254,18 L21.660254,16 C21.660254,15.4477153 21.2125388,15 20.660254,15 C20.1079693,15 19.660254,15.4477153 19.660254,16 Z" id="Line" transform="translate(20.660254, 17.000000) rotate(120.000000) translate(-20.660254, -17.000000) "></path>
                <path d="M2.33974596,6 L2.33974596,8 C2.33974596,8.55228475 2.78746121,9 3.33974596,9 C3.89203071,9 4.33974596,8.55228475 4.33974596,8 L4.33974596,6 C4.33974596,5.44771525 3.89203071,5 3.33974596,5 C2.78746121,5 2.33974596,5.44771525 2.33974596,6 Z" id="Line" transform="translate(3.339746, 7.000000) rotate(120.000000) translate(-3.339746, -7.000000) "></path>
            </g>
        </g>
    </g>
</svg>