<?xml version="1.0" encoding="UTF-8"?>
<svg width="24px" height="24px" viewBox="0 0 24 24" version="1.1" xmlns="http://www.w3.org/2000/svg" xmlns:xlink="http://www.w3.org/1999/xlink">
    <!-- Generator: Sketch 48.1 (47250) - http://www.bohemiancoding.com/sketch -->
    <title>Icon / settings / bold / square</title>
    <desc>Created with Sketch.</desc>
    <defs></defs>
    <g id="Symbols" stroke="none" stroke-width="1" fill="none" fill-rule="evenodd">
        <g id="Icon-/-settings-/-bold-/-square">
            <g id="Grid"></g>
            <path d="M12,20 C16.418278,20 20,16.418278 20,12 C20,7.581722 16.418278,4 12,4 C7.581722,4 4,7.581722 4,12 C4,16.418278 7.581722,20 12,20 Z M12,22 C6.4771525,22 2,17.5228475 2,12 C2,6.4771525 6.4771525,2 12,2 C17.5228475,2 22,6.4771525 22,12 C22,17.5228475 17.5228475,22 12,22 Z" id="Oval-14" fill="#141414" fill-rule="nonzero"></path>
            <path d="M12,14 C13.1045695,14 14,13.1045695 14,12 C14,10.8954305 13.1045695,10 12,10 C10.8954305,10 10,10.8954305 10,12 C10,13.1045695 10.8954305,14 12,14 Z M12,16 C9.790861,16 8,14.209139 8,12 C8,9.790861 9.790861,8 12,8 C14.209139,8 16,9.790861 16,12 C16,14.209139 14.209139,16 12,16 Z" id="Oval" fill="#141414" fill-rule="nonzero"></path>
            <g id="Group" fill="#141414">
                <rect id="Rectangle-22" x="11" y="0" width="2" height="4"></rect>
                <rect id="Rectangle-22-Copy" x="11" y="20" width="2" height="4"></rect>
                <rect id="Rectangle-22" transform="translate(17.000000, 3.339746) rotate(-330.000000) translate(-17.000000, -3.339746) " x="16" y="1.33974596" width="2" height="4"></rect>
                <rect id="Rectangle-22-Copy" transform="translate(8.500000, 18.062178) rotate(-330.000000) translate(-8.500000, -18.062178) " x="7.5" y="13.0621778" width="2" height="10"></rect>
                <rect id="Rectangle-22" transform="translate(20.660254, 7.000000) rotate(-300.000000) translate(-20.660254, -7.000000) " x="19.660254" y="5" width="2" height="4"></rect>
                <rect id="Rectangle-22-Copy" transform="translate(3.339746, 17.000000) rotate(-300.000000) translate(-3.339746, -17.000000) " x="2.33974596" y="15" width="2" height="4"></rect>
                <rect id="Rectangle-22" transform="translate(19.000000, 12.000000) rotate(-270.000000) translate(-19.000000, -12.000000) " x="18" y="7" width="2" height="10"></rect>
                <rect id="Rectangle-22-Copy" transform="translate(2.000000, 12.000000) rotate(-270.000000) translate(-2.000000, -12.000000) " x="1" y="10" width="2" height="4"></rect>
                <rect id="Rectangle-22" transform="translate(20.660254, 17.000000) rotate(-240.000000) translate(-20.660254, -17.000000) " x="19.660254" y="15" width="2" height="4"></rect>
                <rect id="Rectangle-22-Copy" transform="translate(3.339746, 7.000000) rotate(-240.000000) translate(-3.339746, -7.000000) " x="2.33974596" y="5" width="2" height="4"></rect>
                <rect id="Rectangle-22" transform="translate(17.000000, 20.660254) rotate(-210.000000) translate(-17.000000, -20.660254) " x="16" y="18.660254" width="2" height="4"></rect>
                <rect id="Rectangle-22-Copy" transform="translate(8.500000, 5.937822) rotate(-210.000000) translate(-8.500000, -5.937822) " x="7.5" y="0.937822174" width="2" height="10"></rect>
            </g>
        </g>
    </g>
</svg>