<?xml version="1.0" encoding="UTF-8"?>
<svg width="24px" height="24px" viewBox="0 0 24 24" version="1.1" xmlns="http://www.w3.org/2000/svg" xmlns:xlink="http://www.w3.org/1999/xlink">
    <!-- Generator: Sketch 48.1 (47250) - http://www.bohemiancoding.com/sketch -->
    <title>Icon / location / bold / rounded</title>
    <desc>Created with Sketch.</desc>
    <defs></defs>
    <g id="Symbols" stroke="none" stroke-width="1" fill="none" fill-rule="evenodd">
        <g id="Icon-/-location-/-bold-/-rounded">
            <g id="Grid"></g>
            <path d="M5.66043119,11.0033827 C10.5543784,11.0033827 13.0013521,11.0033827 13.0013521,11.0033827 C13.0013521,11.0033827 13.0013521,13.4503563 13.0013521,18.3443036 L19.00756,4.99717474 L5.66043119,11.0033827 Z M9,13.0033827 L1.00135206,13.0033827 C-0.0761679354,13.0033827 -0.391626274,11.5336374 0.590987378,11.0914612 L20.5909874,2.09146122 C21.430212,1.71381015 22.2909246,2.57452282 21.9132736,3.4137474 L12.9132736,23.4137474 C12.4710974,24.3963611 11.0013521,24.0809027 11.0013521,23.0033827 L11.0013521,14.9999996 C11.0009014,14.9999999 11.0004507,15 11,15 L11,13 L9,13 L9,13.0033827 Z M11.1173009,11.0033827 C12.1672734,11.0641076 13,11.9348069 13,13 C13,13.0011278 12.9999991,13.0022554 12.9999972,13.0033827 L13.0013521,13.0033827 L13.0013521,11.0033827 L11.1173009,11.0033827 Z" id="Combined-Shape" fill="#141414" fill-rule="nonzero"></path>
        </g>
    </g>
</svg>