<?xml version="1.0" encoding="UTF-8"?>
<svg width="24px" height="24px" viewBox="0 0 24 24" version="1.1" xmlns="http://www.w3.org/2000/svg" xmlns:xlink="http://www.w3.org/1999/xlink">
    <!-- Generator: Sketch 48.1 (47250) - http://www.bohemiancoding.com/sketch -->
    <title>Icon / login / bold / rounded</title>
    <desc>Created with Sketch.</desc>
    <defs></defs>
    <g id="Symbols" stroke="none" stroke-width="1" fill="none" fill-rule="evenodd">
        <g id="Icon-/-login-/-bold-/-rounded">
            <g id="Grid"></g>
            <path d="M1,13 C0.44771525,13 0,12.5522847 0,12 C0,11.4477153 0.44771525,11 1,11 L16,11 C16.5522847,11 17,11.4477153 17,12 C17,12.5522847 16.5522847,13 16,13 L1,13 Z" id="Line" fill="#141414" fill-rule="nonzero"></path>
            <path d="M12.2928932,9.70710678 C11.9023689,9.31658249 11.9023689,8.68341751 12.2928932,8.29289322 C12.6834175,7.90236893 13.3165825,7.90236893 13.7071068,8.29289322 L16.7071068,11.2928932 C17.0976311,11.6834175 17.0976311,12.3165825 16.7071068,12.7071068 L13.7071068,15.7071068 C13.3165825,16.0976311 12.6834175,16.0976311 12.2928932,15.7071068 C11.9023689,15.3165825 11.9023689,14.6834175 12.2928932,14.2928932 L14.5857864,12 L12.2928932,9.70710678 Z" id="Line-2" fill="#141414" fill-rule="nonzero"></path>
            <path d="M4,12 C4,11.4477153 4.44771525,11 5,11 C5.55228475,11 6,11.4477153 6,12 C6,16.418278 9.581722,20 14,20 C18.418278,20 22,16.418278 22,12 C22,7.581722 18.418278,4 14,4 C13.4477153,4 13,3.55228475 13,3 C13,2.44771525 13.4477153,2 14,2 C19.5228475,2 24,6.4771525 24,12 C24,17.5228475 19.5228475,22 14,22 C8.4771525,22 4,17.5228475 4,12 Z" id="Oval-19" fill="#141414" fill-rule="nonzero" transform="translate(14.000000, 12.000000) rotate(-45.000000) translate(-14.000000, -12.000000) "></path>
        </g>
    </g>
</svg>