<?xml version="1.0" encoding="UTF-8"?>
<svg width="24px" height="24px" viewBox="0 0 24 24" version="1.1" xmlns="http://www.w3.org/2000/svg" xmlns:xlink="http://www.w3.org/1999/xlink">
    <!-- Generator: Sketch 48.1 (47250) - http://www.bohemiancoding.com/sketch -->
    <title>Icon / login / bold / square</title>
    <desc>Created with Sketch.</desc>
    <defs></defs>
    <g id="Symbols" stroke="none" stroke-width="1" fill="none" fill-rule="evenodd">
        <g id="Icon-/-login-/-bold-/-square">
            <g id="Grid"></g>
            <polygon id="Line" fill="#141414" fill-rule="nonzero" points="0 13 0 11 16 11 16 13"></polygon>
            <polygon id="Line-2" fill="#141414" fill-rule="nonzero" points="11.5857864 9 13 7.58578644 17.4142136 12 13 16.4142136 11.5857864 15 14.5857864 12"></polygon>
            <path d="M6.92893219,19.0710678 L8.34314575,17.6568542 C9.790861,19.1045695 11.790861,20 14,20 C18.418278,20 22,16.418278 22,12 C22,7.581722 18.418278,4 14,4 C11.790861,4 9.790861,4.8954305 8.34314575,6.34314575 L6.92893219,4.92893219 C8.73857625,3.11928813 11.2385763,2 14,2 C19.5228475,2 24,6.4771525 24,12 C24,17.5228475 19.5228475,22 14,22 C11.2385763,22 8.73857625,20.8807119 6.92893219,19.0710678 Z" id="Combined-Shape" fill="#141414"></path>
        </g>
    </g>
</svg>