<?xml version="1.0" encoding="UTF-8"?>
<svg width="24px" height="24px" viewBox="0 0 24 24" version="1.1" xmlns="http://www.w3.org/2000/svg" xmlns:xlink="http://www.w3.org/1999/xlink">
    <!-- Generator: Sketch 48.1 (47250) - http://www.bohemiancoding.com/sketch -->
    <title>Icon / compose / thin / rounded</title>
    <desc>Created with Sketch.</desc>
    <defs></defs>
    <g id="Symbols" stroke="none" stroke-width="1" fill="none" fill-rule="evenodd">
        <g id="Icon-/-compose-/-thin-/-rounded">
            <g id="Grid"></g>
            <path d="M14.5,2 L4,2 C2.8954305,2 2,2.8954305 2,4 L2,20 C2,21.1045695 2.8954305,22 4,22 L20,22 C21.1045695,22 22,21.1045695 22,20 L22,9.5 C22,9.22385763 21.7761424,9 21.5,9 C21.2238576,9 21,9.22385763 21,9.5 L21,20 C21,20.5522847 20.5522847,21 20,21 L4,21 C3.44771525,21 3,20.5522847 3,20 L3,4 C3,3.44771525 3.44771525,3 4,3 L14.5,3 C14.7761424,3 15,2.77614237 15,2.5 C15,2.22385763 14.7761424,2 14.5,2 Z" id="Line" fill="#141414" fill-rule="nonzero"></path>
            <path d="M20,1.20710678 L10,11.2071068 L10,14 L12.7928932,14 L22.7928932,4 L20,1.20710678 Z M20.3535534,0.146446609 L23.8535534,3.64644661 C24.0488155,3.84170876 24.0488155,4.15829124 23.8535534,4.35355339 L13.3535534,14.8535534 C13.2597852,14.9473216 13.1326082,15 13,15 L9.5,15 C9.22385763,15 9,14.7761424 9,14.5 L9,11 C9,10.8673918 9.05267842,10.7402148 9.14644661,10.6464466 L19.6464466,0.146446609 C19.8417088,-0.0488155365 20.1582912,-0.0488155365 20.3535534,0.146446609 Z" id="Rectangle" fill="#141414" fill-rule="nonzero"></path>
        </g>
    </g>
</svg>