<?xml version="1.0" encoding="UTF-8"?>
<svg width="24px" height="24px" viewBox="0 0 24 24" version="1.1" xmlns="http://www.w3.org/2000/svg" xmlns:xlink="http://www.w3.org/1999/xlink">
    <!-- Generator: Sketch 48.1 (47250) - http://www.bohemiancoding.com/sketch -->
    <title>Icon / pause / bold / rounded</title>
    <desc>Created with Sketch.</desc>
    <defs></defs>
    <g id="Symbols" stroke="none" stroke-width="1" fill="none" fill-rule="evenodd">
        <g id="Icon-/-pause-/-bold-/-rounded">
            <g id="Grid"></g>
            <path d="M6,4 L8,4 C9.1045695,4 10,4.8954305 10,6 L10,18 C10,19.1045695 9.1045695,20 8,20 L6,20 C4.8954305,20 4,19.1045695 4,18 L4,6 C4,4.8954305 4.8954305,4 6,4 Z" id="Rectangle-25" fill="#141414"></path>
            <path d="M16,4 L18,4 C19.1045695,4 20,4.8954305 20,6 L20,18 C20,19.1045695 19.1045695,20 18,20 L16,20 C14.8954305,20 14,19.1045695 14,18 L14,6 C14,4.8954305 14.8954305,4 16,4 Z" id="Rectangle-25-Copy" fill="#141414"></path>
        </g>
    </g>
</svg>