<?xml version="1.0" encoding="UTF-8"?>
<svg width="24px" height="24px" viewBox="0 0 24 24" version="1.1" xmlns="http://www.w3.org/2000/svg" xmlns:xlink="http://www.w3.org/1999/xlink">
    <!-- Generator: Sketch 48.1 (47250) - http://www.bohemiancoding.com/sketch -->
    <title>Icon / cross / bold / rounded</title>
    <desc>Created with Sketch.</desc>
    <defs></defs>
    <g id="Symbols" stroke="none" stroke-width="1" fill="none" fill-rule="evenodd">
        <g id="Icon-/-cross-/-bold-/-rounded">
            <g id="Grid"></g>
            <path d="M4.70710678,20.7071068 L20.7071068,4.70710678 C21.0976311,4.31658249 21.0976311,3.68341751 20.7071068,3.29289322 C20.3165825,2.90236893 19.6834175,2.90236893 19.2928932,3.29289322 L3.29289322,19.2928932 C2.90236893,19.6834175 2.90236893,20.3165825 3.29289322,20.7071068 C3.68341751,21.0976311 4.31658249,21.0976311 4.70710678,20.7071068 Z" id="Line" fill="#141414" fill-rule="nonzero"></path>
            <path d="M20.7071068,19.2928932 L4.70710678,3.29289322 C4.31658249,2.90236893 3.68341751,2.90236893 3.29289322,3.29289322 C2.90236893,3.68341751 2.90236893,4.31658249 3.29289322,4.70710678 L19.2928932,20.7071068 C19.6834175,21.0976311 20.3165825,21.0976311 20.7071068,20.7071068 C21.0976311,20.3165825 21.0976311,19.6834175 20.7071068,19.2928932 Z" id="Line" fill="#141414" fill-rule="nonzero"></path>
        </g>
    </g>
</svg>