<?xml version="1.0" encoding="UTF-8"?>
<svg width="24px" height="24px" viewBox="0 0 24 24" version="1.1" xmlns="http://www.w3.org/2000/svg" xmlns:xlink="http://www.w3.org/1999/xlink">
    <!-- Generator: Sketch 48.1 (47250) - http://www.bohemiancoding.com/sketch -->
    <title>Icon / star / thin / rounded</title>
    <desc>Created with Sketch.</desc>
    <defs></defs>
    <g id="Symbols" stroke="none" stroke-width="1" fill="none" fill-rule="evenodd">
        <g id="Icon-/-star-/-thin-/-rounded">
            <g id="Grid"></g>
            <path d="M6.76006971,20.7208043 L12,18.1117169 L17.2399303,20.7208043 C17.4233148,20.8121158 17.6303192,20.8449021 17.832945,20.8147286 C18.3792063,20.7333834 18.7560953,20.2246079 18.6747502,19.6783466 L17.8125882,13.8886244 L21.9132052,9.71140687 C22.0567166,9.56521466 22.1518661,9.37847332 22.1857842,9.17644055 C22.2772244,8.63177815 21.9098152,8.1161151 21.3651528,8.0246749 L15.592377,7.05551719 L12.8867675,1.8647674 C12.7920779,1.68310409 12.6438791,1.53490532 12.4622158,1.44021573 C11.9724676,1.18494099 11.3685073,1.37501925 11.1132325,1.8647674 L8.40762296,7.05551719 L2.63484721,8.0246749 C2.43281444,8.05859301 2.2460731,8.15374247 2.09988089,8.29725385 C1.70575969,8.68414779 1.69990083,9.31728567 2.08679477,9.71140687 L6.18741185,13.8886244 L5.32524979,19.6783466 C5.29507627,19.8809724 5.32786254,20.0879768 5.4191741,20.2713613 C5.66534195,20.7657496 6.26568137,20.9669721 6.76006971,20.7208043 Z M12,19.228824 L7.20579603,21.6159735 C6.21701935,22.1083092 5.01634052,21.7058643 4.52400482,20.7170876 C4.3413817,20.3503186 4.27580916,19.9363099 4.33615621,19.5310582 L5.12497982,14.2338295 L1.37317521,10.4119403 C0.599387325,9.62369791 0.611105036,8.35742217 1.39934744,7.58363429 C1.69173186,7.29661152 2.06521454,7.10631259 2.46928008,7.03847638 L7.75100385,6.15175852 L10.2264651,1.4025516 C10.7370145,0.423055296 11.9449353,0.042898777 12.9244316,0.553448251 C13.2877582,0.742827441 13.5841558,1.03922498 13.7735349,1.4025516 L16.2489961,6.15175852 L21.5307199,7.03847638 C22.6200447,7.22135678 23.3548631,8.25268287 23.1719827,9.34200768 C23.1041465,9.74607322 22.9138476,10.1195559 22.6268248,10.4119403 L18.8750202,14.2338295 L19.6638438,19.5310582 C19.8265341,20.6235808 19.072756,21.6411319 17.9802334,21.8038222 C17.5749817,21.8641692 17.160973,21.7985967 16.794204,21.6159735 L12,19.228824 Z" id="Star" fill="#141414" fill-rule="nonzero"></path>
        </g>
    </g>
</svg>