<?xml version="1.0" encoding="UTF-8"?>
<svg width="24px" height="24px" viewBox="0 0 24 24" version="1.1" xmlns="http://www.w3.org/2000/svg" xmlns:xlink="http://www.w3.org/1999/xlink">
    <!-- Generator: Sketch 48.1 (47250) - http://www.bohemiancoding.com/sketch -->
    <title>Icon / arrowleft / bold / rounded</title>
    <desc>Created with Sketch.</desc>
    <defs></defs>
    <g id="Symbols" stroke="none" stroke-width="1" fill="none" fill-rule="evenodd">
        <g id="Icon-/-arrowleft-/-bold-/-rounded">
            <g id="Grid"></g>
            <path d="M1,13 L23,13 C23.5522847,13 24,12.5522847 24,12 C24,11.4477153 23.5522847,11 23,11 L1,11 C0.44771525,11 8.8817842e-16,11.4477153 8.8817842e-16,12 C8.8817842e-16,12.5522847 0.44771525,13 1,13 Z" id="Line" fill="#141414" fill-rule="nonzero"></path>
            <path d="M7.70710678,6.70710678 C8.09763107,6.31658249 8.09763107,5.68341751 7.70710678,5.29289322 C7.31658249,4.90236893 6.68341751,4.90236893 6.29289322,5.29289322 L0.292893219,11.2928932 C-0.0976310729,11.6834175 -0.0976310729,12.3165825 0.292893219,12.7071068 L6.29289322,18.7071068 C6.68341751,19.0976311 7.31658249,19.0976311 7.70710678,18.7071068 C8.09763107,18.3165825 8.09763107,17.6834175 7.70710678,17.2928932 L2.41421356,12 L7.70710678,6.70710678 Z" id="Line" fill="#141414" fill-rule="nonzero"></path>
        </g>
    </g>
</svg>