<?xml version="1.0" encoding="UTF-8"?>
<svg width="24px" height="24px" viewBox="0 0 24 24" version="1.1" xmlns="http://www.w3.org/2000/svg" xmlns:xlink="http://www.w3.org/1999/xlink">
    <!-- Generator: Sketch 48.1 (47250) - http://www.bohemiancoding.com/sketch -->
    <title>Icon / delete / thin / rounded</title>
    <desc>Created with Sketch.</desc>
    <defs></defs>
    <g id="Symbols" stroke="none" stroke-width="1" fill="none" fill-rule="evenodd">
        <g id="Icon-/-delete-/-thin-/-rounded">
            <g id="Grid"></g>
            <path d="M9.5,0 C9.77614237,0 10,0.223857625 10,0.5 C10,0.776142375 9.77614237,1 9.5,1 C8.94771525,1 8.5,1.44771525 8.5,2 C8.5,2.27614237 8.27614237,2.5 8,2.5 C7.72385763,2.5 7.5,2.27614237 7.5,2 C7.5,0.8954305 8.3954305,0 9.5,0 Z" id="Oval-2" fill="#141414" fill-rule="nonzero"></path>
            <path d="M16.5,2 C16.5,2.27614237 16.2761424,2.5 16,2.5 C15.7238576,2.5 15.5,2.27614237 15.5,2 C15.5,1.44771525 15.0522847,1 14.5,1 C14.2238576,1 14,0.776142375 14,0.5 C14,0.223857625 14.2238576,0 14.5,0 C15.6045695,0 16.5,0.8954305 16.5,2 Z" id="Oval-2" fill="#141414" fill-rule="nonzero"></path>
            <path d="M4,20 C4,19.7238576 4.22385763,19.5 4.5,19.5 C4.77614237,19.5 5,19.7238576 5,20 C5,20.5522847 5.44771525,21 6,21 C6.27614237,21 6.5,21.2238576 6.5,21.5 C6.5,21.7761424 6.27614237,22 6,22 C4.8954305,22 4,21.1045695 4,20 Z" id="Oval-2-Copy" fill="#141414" fill-rule="nonzero"></path>
            <path d="M18,22 C17.7238576,22 17.5,21.7761424 17.5,21.5 C17.5,21.2238576 17.7238576,21 18,21 C18.5522847,21 19,20.5522847 19,20 C19,19.7238576 19.2238576,19.5 19.5,19.5 C19.7761424,19.5 20,19.7238576 20,20 C20,21.1045695 19.1045695,22 18,22 Z" id="Oval-2-Copy" fill="#141414" fill-rule="nonzero"></path>
            <path d="M2.5,5 C2.22385763,5 2,4.77614237 2,4.5 C2,4.22385763 2.22385763,4 2.5,4 L21.5217289,4 C21.7978712,4 22.0217289,4.22385763 22.0217289,4.5 C22.0217289,4.77614237 21.7978712,5 21.5217289,5 L2.5,5 Z" id="Line" fill="#141414" fill-rule="nonzero"></path>
            <path d="M9.5,1 C9.22385763,1 9,0.776142375 9,0.5 C9,0.223857625 9.22385763,0 9.5,0 L14.5,0 C14.7761424,0 15,0.223857625 15,0.5 C15,0.776142375 14.7761424,1 14.5,1 L9.5,1 Z" id="Line" fill="#141414" fill-rule="nonzero"></path>
            <path d="M6,22 C5.72385763,22 5.5,21.7761424 5.5,21.5 C5.5,21.2238576 5.72385763,21 6,21 L18,21 C18.2761424,21 18.5,21.2238576 18.5,21.5 C18.5,21.7761424 18.2761424,22 18,22 L6,22 Z" id="Line" fill="#141414" fill-rule="nonzero"></path>
            <path d="M7.5,2 C7.5,1.72385763 7.72385763,1.5 8,1.5 C8.27614237,1.5 8.5,1.72385763 8.5,2 L8.5,4.5 C8.5,4.77614237 8.27614237,5 8,5 C7.72385763,5 7.5,4.77614237 7.5,4.5 L7.5,2 Z" id="Line" fill="#141414" fill-rule="nonzero"></path>
            <path d="M4,5 C4,4.72385763 4.22385763,4.5 4.5,4.5 C4.77614237,4.5 5,4.72385763 5,5 L5,20 C5,20.2761424 4.77614237,20.5 4.5,20.5 C4.22385763,20.5 4,20.2761424 4,20 L4,5 Z" id="Line" fill="#141414" fill-rule="nonzero"></path>
            <path d="M7.5,8 C7.5,7.72385763 7.72385763,7.5 8,7.5 C8.27614237,7.5 8.5,7.72385763 8.5,8 L8.5,18 C8.5,18.2761424 8.27614237,18.5 8,18.5 C7.72385763,18.5 7.5,18.2761424 7.5,18 L7.5,8 Z" id="Line" fill="#141414" fill-rule="nonzero"></path>
            <path d="M11.5,8 C11.5,7.72385763 11.7238576,7.5 12,7.5 C12.2761424,7.5 12.5,7.72385763 12.5,8 L12.5,18 C12.5,18.2761424 12.2761424,18.5 12,18.5 C11.7238576,18.5 11.5,18.2761424 11.5,18 L11.5,8 Z" id="Line" fill="#141414" fill-rule="nonzero"></path>
            <path d="M15.5,8 C15.5,7.72385763 15.7238576,7.5 16,7.5 C16.2761424,7.5 16.5,7.72385763 16.5,8 L16.5,18 C16.5,18.2761424 16.2761424,18.5 16,18.5 C15.7238576,18.5 15.5,18.2761424 15.5,18 L15.5,8 Z" id="Line" fill="#141414" fill-rule="nonzero"></path>
            <path d="M19,5 C19,4.72385763 19.2238576,4.5 19.5,4.5 C19.7761424,4.5 20,4.72385763 20,5 L20,20 C20,20.2761424 19.7761424,20.5 19.5,20.5 C19.2238576,20.5 19,20.2761424 19,20 L19,5 Z" id="Line" fill="#141414" fill-rule="nonzero"></path>
            <path d="M15.5,2 C15.5,1.72385763 15.7238576,1.5 16,1.5 C16.2761424,1.5 16.5,1.72385763 16.5,2 L16.5,4.5 C16.5,4.77614237 16.2761424,5 16,5 C15.7238576,5 15.5,4.77614237 15.5,4.5 L15.5,2 Z" id="Line" fill="#141414" fill-rule="nonzero"></path>
        </g>
    </g>
</svg>