<?xml version="1.0" encoding="UTF-8"?>
<svg width="24px" height="24px" viewBox="0 0 24 24" version="1.1" xmlns="http://www.w3.org/2000/svg" xmlns:xlink="http://www.w3.org/1999/xlink">
    <!-- Generator: Sketch 48.1 (47250) - http://www.bohemiancoding.com/sketch -->
    <title>Icon / delete / thin / square</title>
    <desc>Created with Sketch.</desc>
    <defs></defs>
    <g id="Symbols" stroke="none" stroke-width="1" fill="none" fill-rule="evenodd">
        <g id="Icon-/-delete-/-thin-/-square">
            <g id="Grid"></g>
            <path d="M5,5 L5,21 L19,21 L19,5 L5,5 Z M4,4 L20,4 L20,22 L4,22 L4,4 Z" id="Rectangle" fill="#141414" fill-rule="nonzero"></path>
            <polygon id="Line" fill="#141414" fill-rule="nonzero" points="2 5 2 4 22 4 22 5"></polygon>
            <polygon id="Line-2" fill="#141414" fill-rule="nonzero" points="8.5 1 8.5 4.5 7.5 4.5 7.5 0 16.5 0 16.5 4.5 15.5 4.5 15.5 1"></polygon>
            <polygon id="Line-3" fill="#141414" fill-rule="nonzero" points="7.5 7.5 8.5 7.5 8.5 18.5 7.5 18.5"></polygon>
            <polygon id="Line-3" fill="#141414" fill-rule="nonzero" points="15.5 7.5 16.5 7.5 16.5 18.5 15.5 18.5"></polygon>
            <polygon id="Line-3" fill="#141414" fill-rule="nonzero" points="11.5 7.5 12.5 7.5 12.5 18.5 11.5 18.5"></polygon>
        </g>
    </g>
</svg>