<?xml version="1.0" encoding="UTF-8"?>
<svg width="24px" height="24px" viewBox="0 0 24 24" version="1.1" xmlns="http://www.w3.org/2000/svg" xmlns:xlink="http://www.w3.org/1999/xlink">
    <!-- Generator: Sketch 48.1 (47250) - http://www.bohemiancoding.com/sketch -->
    <title>Icon / camera / bold / rounded</title>
    <desc>Created with Sketch.</desc>
    <defs></defs>
    <g id="Symbols" stroke="none" stroke-width="1" fill="none" fill-rule="evenodd">
        <g id="Icon-/-camera-/-bold-/-rounded">
            <g id="Grid"></g>
            <path d="M12,16 C14.209139,16 16,14.209139 16,12 C16,9.790861 14.209139,8 12,8 C9.790861,8 8,9.790861 8,12 C8,14.209139 9.790861,16 12,16 Z M12,18 C8.6862915,18 6,15.3137085 6,12 C6,8.6862915 8.6862915,6 12,6 C15.3137085,6 18,8.6862915 18,12 C18,15.3137085 15.3137085,18 12,18 Z" id="Oval" fill="#141414" fill-rule="nonzero"></path>
            <path d="M4,6 L2,6 L2,8 C0.8954305,8 0,7.1045695 0,6 C0,4.8954305 0.8954305,4 2,4 C3.1045695,4 4,4.8954305 4,6 Z M2,16 L2,18 L4,18 C4,19.1045695 3.1045695,20 2,20 C0.8954305,20 0,19.1045695 0,18 C0,16.8954305 0.8954305,16 2,16 Z M20,6 C20,4.8954305 20.8954305,4 22,4 C23.1045695,4 24,4.8954305 24,6 C24,7.1045695 23.1045695,8 22,8 L22,6 L20,6 Z M20,18 L22,18 L22,16 C23.1045695,16 24,16.8954305 24,18 C24,19.1045695 23.1045695,20 22,20 C20.8954305,20 20,19.1045695 20,18 Z" id="Combined-Shape" fill="#141414"></path>
            <path d="M1,5 C1,4.44771525 1.44771525,4 2,4 L22,4 C22.5522847,4 23,4.44771525 23,5 C23.5522847,5 24,5.44771525 24,6 L24,18 C24,18.5522847 23.5522847,19 23,19 C23,19.5522847 22.5522847,20 22,20 L2,20 C1.44771525,20 1,19.5522847 1,19 C0.44771525,19 0,18.5522847 0,18 L0,6 C0,5.44771525 0.44771525,5 1,5 Z M2,6 L2,18 L22,18 L22,6 L2,6 Z" id="Combined-Shape" fill="#141414" fill-rule="nonzero"></path>
            <circle id="Oval-3" fill="#141414" cx="6" cy="4" r="2"></circle>
        </g>
    </g>
</svg>