<?xml version="1.0" encoding="UTF-8"?>
<svg width="24px" height="24px" viewBox="0 0 24 24" version="1.1" xmlns="http://www.w3.org/2000/svg" xmlns:xlink="http://www.w3.org/1999/xlink">
    <!-- Generator: Sketch 48.1 (47250) - http://www.bohemiancoding.com/sketch -->
    <title>Icon / call / bold / rounded</title>
    <desc>Created with Sketch.</desc>
    <defs></defs>
    <g id="Symbols" stroke="none" stroke-width="1" fill="none" fill-rule="evenodd">
        <g id="Icon-/-call-/-bold-/-rounded">
            <g id="Grid"></g>
            <path d="M13.0798648,18.1799492 C15.1558121,16.7175882 16.9548228,14.8884781 18.3826786,12.7868371 C18.3515693,12.7623671 18.3215768,12.7357903 18.2928932,12.7071068 L15.7207446,10.1349582 C15.1946783,9.60889191 15.0040906,8.83429922 15.2259983,8.12419466 L17.326231,1.40345001 C17.587153,0.56849962 18.360421,6.66133815e-16 19.2351909,6.66133815e-16 L23,0 C23.5522847,0 24,0.44771525 24,1 C24,13.7025492 13.7025492,24 1,24 C0.44771525,24 1.11022302e-16,23.5522847 0,23 L-4.4408921e-16,19.2351909 C-4.4408921e-16,18.360421 0.56849962,17.587153 1.40345001,17.326231 L8.17313453,15.2107045 C8.83085929,15.0051656 9.54806941,15.152696 10.0712673,15.6011513 L13.0798648,18.1799492 Z M21.9766098,2 L19.2351909,2 L17.1349582,8.72074465 L19.4508404,11.0366269 C20.9264205,8.32972933 21.823676,5.26218797 21.9766098,2 Z M8.76968451,17.1196645 L2,19.2351909 L2,21.9766098 C5.37309998,21.8184764 8.53809267,20.864548 11.3114673,19.2983355 L8.76968451,17.1196645 Z" id="Oval-9" fill="#141414" fill-rule="nonzero"></path>
        </g>
    </g>
</svg>