<?xml version="1.0" encoding="UTF-8"?>
<svg width="24px" height="24px" viewBox="0 0 24 24" version="1.1" xmlns="http://www.w3.org/2000/svg" xmlns:xlink="http://www.w3.org/1999/xlink">
    <!-- Generator: Sketch 48.1 (47250) - http://www.bohemiancoding.com/sketch -->
    <title>Icon / call / bold / square</title>
    <desc>Created with Sketch.</desc>
    <defs></defs>
    <g id="Symbols" stroke="none" stroke-width="1" fill="none" fill-rule="evenodd">
        <g id="Icon-/-call-/-bold-/-square">
            <g id="Grid"></g>
            <path d="M0.632455532,19.8973666 L2,18 L2,19.4415184 L0.632455532,19.8973666 Z M9.63245553,16.8973666 L7.58578644,16.4142136 L8.45981849,17.2882456 L9.63245553,16.8973666 Z M8.45981849,17.2882456 L11.3180705,20.1464976 L13.5,19.5 L9,15 L0,18 L0,23.5 L2,22.9074074 L2,19.4415184 L8.45981849,17.2882456 Z M9.63245553,16.8973666 L7.58578644,16.4142136 L8.45981849,17.2882456 L9.63245553,16.8973666 Z M2,18 L0.632455532,19.8973666 L2,19.4415184 L2,18 Z M8.45981849,17.2882456 L11.3180705,20.1464976 L13.5,19.5 L9,15 L0,18 L0,23.5 L2,22.9074074 L2,19.4415184 L8.45981849,17.2882456 Z" id="Rectangle-16" fill="#141414" fill-rule="nonzero"></path>
            <path d="M16.8973666,9.63245553 L16.4142136,7.58578644 L17.2882456,8.45981849 L16.8973666,9.63245553 Z M19.8973666,0.632455532 L18,2 L19.4415184,2 L19.8973666,0.632455532 Z M17.2882456,8.45981849 L19.4415184,2 L22.9074074,2 L23.5,0 L18,0 L15,9 L19.5,13.5 L20.1464976,11.3180705 L17.2882456,8.45981849 Z M19.8973666,0.632455532 L18,2 L19.4415184,2 L19.8973666,0.632455532 Z M16.4142136,7.58578644 L16.8973666,9.63245553 L17.2882456,8.45981849 L16.4142136,7.58578644 Z M22.9074074,2 L23.5,0 L18,0 L15,9 L19.5,13.5 L20.1464976,11.3180705 L17.2882456,8.45981849 L19.4415184,2 L22.9074074,2 Z" id="Rectangle-16" fill="#141414" fill-rule="nonzero"></path>
            <path d="M0,24 C13.254834,24 24,13.254834 24,0 L22,0 C22,12.1502645 12.1502645,22 0,22 L0,24 Z" id="Oval" fill="#141414" fill-rule="nonzero"></path>
        </g>
    </g>
</svg>