<?xml version="1.0" encoding="UTF-8"?>
<svg width="24px" height="24px" viewBox="0 0 24 24" version="1.1" xmlns="http://www.w3.org/2000/svg" xmlns:xlink="http://www.w3.org/1999/xlink">
    <!-- Generator: Sketch 48.1 (47250) - http://www.bohemiancoding.com/sketch -->
    <title>Icon / next / bold / rounded</title>
    <desc>Created with Sketch.</desc>
    <defs></defs>
    <g id="Symbols" stroke="none" stroke-width="1" fill="none" fill-rule="evenodd">
        <g id="Icon-/-next-/-bold-/-rounded">
            <g id="Grid"></g>
            <path d="M15.5144958,6.90869745 L22.5708451,11.1425071 C23.0444254,11.4266552 23.1979905,12.0409155 22.9138423,12.5144958 C22.8293925,12.6552454 22.7115947,12.7730432 22.5708451,12.8574929 L15.5144958,17.0913025 C15.0409155,17.3754507 14.4266552,17.2218856 14.1425071,16.7483054 C14.0492578,16.59289 14,16.4150536 14,16.2338096 L14,7.76619038 C14,7.21390563 14.4477153,6.76619038 15,6.76619038 C15.1812439,6.76619038 15.3590804,6.81544821 15.5144958,6.90869745 Z" id="Rectangle-28" fill="#141414"></path>
            <path d="M5.51449576,6.90869745 L12.5708451,11.1425071 C13.0444254,11.4266552 13.1979905,12.0409155 12.9138423,12.5144958 C12.8293925,12.6552454 12.7115947,12.7730432 12.5708451,12.8574929 L5.51449576,17.0913025 C5.04091549,17.3754507 4.42665523,17.2218856 4.14250707,16.7483054 C4.04925783,16.59289 4,16.4150536 4,16.2338096 L4,7.76619038 C4,7.21390563 4.44771525,6.76619038 5,6.76619038 C5.18124395,6.76619038 5.35908035,6.81544821 5.51449576,6.90869745 Z" id="Rectangle-28" fill="#141414"></path>
        </g>
    </g>
</svg>