<?xml version="1.0" encoding="UTF-8"?>
<svg width="24px" height="24px" viewBox="0 0 24 24" version="1.1" xmlns="http://www.w3.org/2000/svg" xmlns:xlink="http://www.w3.org/1999/xlink">
    <!-- Generator: Sketch 48.1 (47250) - http://www.bohemiancoding.com/sketch -->
    <title>Icon / arrowdown / thin / rounded</title>
    <desc>Created with Sketch.</desc>
    <defs></defs>
    <g id="Symbols" stroke="none" stroke-width="1" fill="none" fill-rule="evenodd">
        <g id="Icon-/-arrowdown-/-thin-/-rounded">
            <g id="Grid"></g>
            <path d="M11.5,0.5 L11.5,23.5 C11.5,23.7761424 11.7238576,24 12,24 C12.2761424,24 12.5,23.7761424 12.5,23.5 L12.5,0.5 C12.5,0.223857625 12.2761424,0 12,0 C11.7238576,0 11.5,0.223857625 11.5,0.5 Z" id="Line-3" fill="#141414" fill-rule="nonzero"></path>
            <path d="M12,22.7928932 L6.35355339,17.1464466 C6.15829124,16.9511845 5.84170876,16.9511845 5.64644661,17.1464466 C5.45118446,17.3417088 5.45118446,17.6582912 5.64644661,17.8535534 L11.6464466,23.8535534 C11.8417088,24.0488155 12.1582912,24.0488155 12.3535534,23.8535534 L18.3535534,17.8535534 C18.5488155,17.6582912 18.5488155,17.3417088 18.3535534,17.1464466 C18.1582912,16.9511845 17.8417088,16.9511845 17.6464466,17.1464466 L12,22.7928932 Z" id="Line-2" fill="#141414" fill-rule="nonzero"></path>
        </g>
    </g>
</svg>