<?xml version="1.0" encoding="UTF-8"?>
<svg width="24px" height="24px" viewBox="0 0 24 24" version="1.1" xmlns="http://www.w3.org/2000/svg" xmlns:xlink="http://www.w3.org/1999/xlink">
    <!-- Generator: Sketch 48.1 (47250) - http://www.bohemiancoding.com/sketch -->
    <title>Icon / tabs / bold / rounded</title>
    <desc>Created with Sketch.</desc>
    <defs></defs>
    <g id="Symbols" stroke="none" stroke-width="1" fill="none" fill-rule="evenodd">
        <g id="Icon-/-tabs-/-bold-/-rounded">
            <g id="Grid"></g>
            <path d="M2,6 L2,22 L18,22 L18,6 L2,6 Z M2,4 L18,4 C19.1045695,4 20,4.8954305 20,6 L20,22 C20,23.1045695 19.1045695,24 18,24 L2,24 C0.8954305,24 0,23.1045695 0,22 L0,6 C0,4.8954305 0.8954305,4 2,4 Z" id="Rectangle-3" fill="#141414" fill-rule="nonzero"></path>
            <path d="M8,2 L6,2 L6,4 C4.8954305,4 4,3.1045695 4,2 C4,0.8954305 4.8954305,0 6,0 C7.1045695,0 8,0.8954305 8,2 Z M20,2 C20,0.8954305 20.8954305,0 22,0 C23.1045695,0 24,0.8954305 24,2 C24,3.1045695 23.1045695,4 22,4 L22,2 L20,2 Z M20,18 L22,18 L22,16 C23.1045695,16 24,16.8954305 24,18 C24,19.1045695 23.1045695,20 22,20 C20.8954305,20 20,19.1045695 20,18 Z" id="Combined-Shape" fill="#141414"></path>
            <path d="M6,2 L22,2 C22.5522847,2 23,1.55228475 23,1 C23,0.44771525 22.5522847,2.22044605e-16 22,2.22044605e-16 L6,2.22044605e-16 C5.44771525,2.22044605e-16 5,0.44771525 5,1 C5,1.55228475 5.44771525,2 6,2 Z" id="Line" fill="#141414" fill-rule="nonzero"></path>
            <path d="M24,18 L24,2 C24,1.44771525 23.5522847,1 23,1 C22.4477153,1 22,1.44771525 22,2 L22,18 C22,18.5522847 22.4477153,19 23,19 C23.5522847,19 24,18.5522847 24,18 Z" id="Line" fill="#141414" fill-rule="nonzero"></path>
            <rect id="Rectangle-2" fill="#141414" x="4" y="2" width="2" height="4"></rect>
            <rect id="Rectangle-4" fill="#141414" x="18" y="18" width="4" height="2"></rect>
        </g>
    </g>
</svg>