<?xml version="1.0" encoding="UTF-8"?>
<svg width="24px" height="24px" viewBox="0 0 24 24" version="1.1" xmlns="http://www.w3.org/2000/svg" xmlns:xlink="http://www.w3.org/1999/xlink">
    <!-- Generator: Sketch 48.1 (47250) - http://www.bohemiancoding.com/sketch -->
    <title>Icon / arrowleft / thin / rounded</title>
    <desc>Created with Sketch.</desc>
    <defs></defs>
    <g id="Symbols" stroke="none" stroke-width="1" fill="none" fill-rule="evenodd">
        <g id="Icon-/-arrowleft-/-thin-/-rounded">
            <g id="Grid"></g>
            <path d="M0.5,12.5 L23.5,12.5 C23.7761424,12.5 24,12.2761424 24,12 C24,11.7238576 23.7761424,11.5 23.5,11.5 L0.5,11.5 C0.223857625,11.5 0,11.7238576 0,12 C0,12.2761424 0.223857625,12.5 0.5,12.5 Z" id="Line-2" fill="#141414" fill-rule="nonzero"></path>
            <path d="M6.85355339,6.35355339 C7.04881554,6.15829124 7.04881554,5.84170876 6.85355339,5.64644661 C6.65829124,5.45118446 6.34170876,5.45118446 6.14644661,5.64644661 L0.146446609,11.6464466 C-0.0488155365,11.8417088 -0.0488155365,12.1582912 0.146446609,12.3535534 L6.14644661,18.3535534 C6.34170876,18.5488155 6.65829124,18.5488155 6.85355339,18.3535534 C7.04881554,18.1582912 7.04881554,17.8417088 6.85355339,17.6464466 L1.20710678,12 L6.85355339,6.35355339 Z" id="Line" fill="#141414" fill-rule="nonzero"></path>
        </g>
    </g>
</svg>