<?xml version="1.0" encoding="UTF-8"?>
<svg width="24px" height="24px" viewBox="0 0 24 24" version="1.1" xmlns="http://www.w3.org/2000/svg" xmlns:xlink="http://www.w3.org/1999/xlink">
    <!-- Generator: Sketch 48.1 (47250) - http://www.bohemiancoding.com/sketch -->
    <title>Icon / circleplus / thin / rounded</title>
    <desc>Created with Sketch.</desc>
    <defs></defs>
    <g id="Symbols" stroke="none" stroke-width="1" fill="none" fill-rule="evenodd">
        <g id="Icon-/-circleplus-/-thin-/-rounded">
            <g id="Grid"></g>
            <path d="M12,23 C18.0751322,23 23,18.0751322 23,12 C23,5.92486775 18.0751322,1 12,1 C5.92486775,1 1,5.92486775 1,12 C1,18.0751322 5.92486775,23 12,23 Z M12,24 C5.372583,24 0,18.627417 0,12 C0,5.372583 5.372583,0 12,0 C18.627417,0 24,5.372583 24,12 C24,18.627417 18.627417,24 12,24 Z" id="Oval-6" fill="#141414" fill-rule="nonzero"></path>
            <path d="M11.5,6.5 C11.5,6.22385763 11.7238576,6 12,6 C12.2761424,6 12.5,6.22385763 12.5,6.5 L12.5,17.5 C12.5,17.7761424 12.2761424,18 12,18 C11.7238576,18 11.5,17.7761424 11.5,17.5 L11.5,6.5 Z" id="Line" fill="#141414" fill-rule="nonzero"></path>
            <path d="M6.5,12.5 C6.22385763,12.5 6,12.2761424 6,12 C6,11.7238576 6.22385763,11.5 6.5,11.5 L17.5,11.5 C17.7761424,11.5 18,11.7238576 18,12 C18,12.2761424 17.7761424,12.5 17.5,12.5 L6.5,12.5 Z" id="Line-2" fill="#141414" fill-rule="nonzero"></path>
        </g>
    </g>
</svg>