<?xml version="1.0" encoding="UTF-8"?>
<svg width="24px" height="24px" viewBox="0 0 24 24" version="1.1" xmlns="http://www.w3.org/2000/svg" xmlns:xlink="http://www.w3.org/1999/xlink">
    <!-- Generator: Sketch 48.1 (47250) - http://www.bohemiancoding.com/sketch -->
    <title>Icon / pie / bold / square</title>
    <desc>Created with Sketch.</desc>
    <defs></defs>
    <g id="Symbols" stroke="none" stroke-width="1" fill="none" fill-rule="evenodd">
        <g id="Icon-/-pie-/-bold-/-square">
            <g id="Grid"></g>
            <path d="M13,11 L22,11 L22,12 C22,17.5228475 17.5228475,22 12,22 C6.4771525,22 2,17.5228475 2,12 C2,6.4771525 6.4771525,2 12,2 L13,2 L13,11 Z M4,12 C4,16.418278 7.581722,20 12,20 C16.0796177,20 19.4460082,16.9463116 19.9381062,13 L11,13 L11,4.06189375 C7.05368842,4.55399184 4,7.92038235 4,12 Z" id="Oval" fill="#141414" fill-rule="nonzero"></path>
            <path d="M24,10 C22.6666667,10 19.3333333,10 14,10 C14,4.66666667 14,1.33333333 14,0 C19.5228475,0 24,4.4771525 24,10 Z M16,2.25203497 L16,8 L21.747965,8 C21.0244084,5.18878542 18.8112146,2.97559159 16,2.25203497 Z" id="Combined-Shape" fill="#141414"></path>
        </g>
    </g>
</svg>