<?xml version="1.0" encoding="UTF-8"?>
<svg width="24px" height="24px" viewBox="0 0 24 24" version="1.1" xmlns="http://www.w3.org/2000/svg" xmlns:xlink="http://www.w3.org/1999/xlink">
    <!-- Generator: Sketch 48.1 (47250) - http://www.bohemiancoding.com/sketch -->
    <title>Icon / minimize / bold / rounded</title>
    <desc>Created with Sketch.</desc>
    <defs></defs>
    <g id="Symbols" stroke="none" stroke-width="1" fill="none" fill-rule="evenodd">
        <g id="Icon-/-minimize-/-bold-/-rounded">
            <g id="Grid"></g>
            <path d="M8,18 C8,16.8954305 7.1045695,16 6,16 L1,16 C0.44771525,16 0,15.5522847 0,15 C0,14.4477153 0.44771525,14 1,14 L6,14 C8.209139,14 10,15.790861 10,18 L10,23 C10,23.5522847 9.55228475,24 9,24 C8.44771525,24 8,23.5522847 8,23 L8,18 Z" id="Combined-Shape" fill="#141414" fill-rule="nonzero"></path>
            <path d="M14,5.99999983 L14,1 C14,0.44771525 14.4477153,0 15,0 C15.5522847,0 16,0.44771525 16,1 L16,6 C16,7.1045695 16.8954305,8 18,8 L23,8 C23.5522847,8 24,8.44771525 24,9 C24,9.55228475 23.5522847,10 23,10 L18,10 C15.790861,10 14,8.209139 14,6 Z" id="Combined-Shape" fill="#141414" fill-rule="nonzero"></path>
        </g>
    </g>
</svg>