<?xml version="1.0" encoding="UTF-8"?>
<svg width="24px" height="24px" viewBox="0 0 24 24" version="1.1" xmlns="http://www.w3.org/2000/svg" xmlns:xlink="http://www.w3.org/1999/xlink">
    <!-- Generator: Sketch 48.1 (47250) - http://www.bohemiancoding.com/sketch -->
    <title>Icon / pin / thin / rounded</title>
    <desc>Created with Sketch.</desc>
    <defs></defs>
    <g id="Symbols" stroke="none" stroke-width="1" fill="none" fill-rule="evenodd">
        <g id="Icon-/-pin-/-thin-/-rounded">
            <g id="Grid"></g>
            <path d="M12.8043852,22.3160008 C16.9497707,16.7033521 19,11.9203683 19,8 C19,4.13400675 15.8659932,1 12,1 C8.13400675,1 5,4.13400675 5,8 C5,11.9203705 7.05023154,16.7033574 11.1956134,22.3159989 C11.5237351,22.7602465 12.1498596,22.8543916 12.5941048,22.5262812 C12.6742872,22.4670602 12.7451642,22.3961831 12.8043852,22.3160008 Z M13.6087733,22.910105 C13.4903303,23.070471 13.3485752,23.2122261 13.1882093,23.3306691 C12.2997137,23.9868937 11.0474707,23.7986009 10.3912461,22.9101054 C6.13041124,17.1411721 4,12.171134 4,8 C4,3.581722 7.581722,0 12,0 C16.418278,0 20,3.581722 20,8 C20,12.1711317 17.8695911,17.1411667 13.6087733,22.910105 Z" id="Oval-2" fill="#141414" fill-rule="nonzero"></path>
            <path d="M12,11 C13.6568542,11 15,9.65685425 15,8 C15,6.34314575 13.6568542,5 12,5 C10.3431458,5 9,6.34314575 9,8 C9,9.65685425 10.3431458,11 12,11 Z M12,12 C9.790861,12 8,10.209139 8,8 C8,5.790861 9.790861,4 12,4 C14.209139,4 16,5.790861 16,8 C16,10.209139 14.209139,12 12,12 Z" id="Oval" fill="#141414" fill-rule="nonzero"></path>
        </g>
    </g>
</svg>