<?xml version="1.0" encoding="UTF-8"?>
<svg width="24px" height="24px" viewBox="0 0 24 24" version="1.1" xmlns="http://www.w3.org/2000/svg" xmlns:xlink="http://www.w3.org/1999/xlink">
    <!-- Generator: Sketch 48.1 (47250) - http://www.bohemiancoding.com/sketch -->
    <title>Icon / pin / thin / square</title>
    <desc>Created with Sketch.</desc>
    <defs></defs>
    <g id="Symbols" stroke="none" stroke-width="1" fill="none" fill-rule="evenodd">
        <g id="Icon-/-pin-/-thin-/-square">
            <g id="Grid"></g>
            <path d="M19,8 C19,4.13400675 15.8659932,1 12,1 C8.13400675,1 5,4.13400675 5,8 C5,12.1627163 7.3153604,16.998532 12,22.4784906 C16.6846396,16.998532 19,12.1627163 19,8 Z M12,24 C6.66666667,18 4,12.6666667 4,8 C4,3.581722 7.581722,0 12,0 C16.418278,0 20,3.581722 20,8 C20,12.6666667 17.3333333,18 12,24 Z" id="Oval-2" fill="#141414" fill-rule="nonzero"></path>
            <path d="M12,11 C13.6568542,11 15,9.65685425 15,8 C15,6.34314575 13.6568542,5 12,5 C10.3431458,5 9,6.34314575 9,8 C9,9.65685425 10.3431458,11 12,11 Z M12,12 C9.790861,12 8,10.209139 8,8 C8,5.790861 9.790861,4 12,4 C14.209139,4 16,5.790861 16,8 C16,10.209139 14.209139,12 12,12 Z" id="Oval" fill="#141414" fill-rule="nonzero"></path>
        </g>
    </g>
</svg>