<?xml version="1.0" encoding="UTF-8"?>
<svg width="24px" height="24px" viewBox="0 0 24 24" version="1.1" xmlns="http://www.w3.org/2000/svg" xmlns:xlink="http://www.w3.org/1999/xlink">
    <!-- Generator: Sketch 48.1 (47250) - http://www.bohemiancoding.com/sketch -->
    <title>Icon / bargraph / bold / rounded</title>
    <desc>Created with Sketch.</desc>
    <defs></defs>
    <g id="Symbols" stroke="none" stroke-width="1" fill="none" fill-rule="evenodd">
        <g id="Icon-/-bargraph-/-bold-/-rounded">
            <g id="Grid"></g>
            <path d="M4,14 L4,22 L6,22 L6,14 L4,14 Z M4,12 L6,12 C7.1045695,12 8,12.8954305 8,14 L8,22 C8,23.1045695 7.1045695,24 6,24 L4,24 C2.8954305,24 2,23.1045695 2,22 L2,14 C2,12.8954305 2.8954305,12 4,12 Z" id="Rectangle" fill="#141414" fill-rule="nonzero"></path>
            <path d="M11,2 L11,22 L13,22 L13,2 L11,2 Z M11,0 L13,0 C14.1045695,-2.02906125e-16 15,0.8954305 15,2 L15,22 C15,23.1045695 14.1045695,24 13,24 L11,24 C9.8954305,24 9,23.1045695 9,22 L9,2 C9,0.8954305 9.8954305,2.02906125e-16 11,0 Z" id="Rectangle-Copy" fill="#141414" fill-rule="nonzero"></path>
            <path d="M18,8 L18,22 L20,22 L20,8 L18,8 Z M18,6 L20,6 C21.1045695,6 22,6.8954305 22,8 L22,22 C22,23.1045695 21.1045695,24 20,24 L18,24 C16.8954305,24 16,23.1045695 16,22 L16,8 C16,6.8954305 16.8954305,6 18,6 Z" id="Rectangle-Copy-2" fill="#141414" fill-rule="nonzero"></path>
        </g>
    </g>
</svg>