<?xml version="1.0" encoding="UTF-8"?>
<svg width="24px" height="24px" viewBox="0 0 24 24" version="1.1" xmlns="http://www.w3.org/2000/svg" xmlns:xlink="http://www.w3.org/1999/xlink">
    <!-- Generator: Sketch 48.1 (47250) - http://www.bohemiancoding.com/sketch -->
    <title>Icon / bargraph / bold / square</title>
    <desc>Created with Sketch.</desc>
    <defs></defs>
    <g id="Symbols" stroke="none" stroke-width="1" fill="none" fill-rule="evenodd">
        <g id="Icon-/-bargraph-/-bold-/-square">
            <g id="Grid"></g>
            <path d="M4,14 L4,22 L6,22 L6,14 L4,14 Z M2,12 L8,12 L8,24 L2,24 L2,12 Z" id="Rectangle" fill="#141414" fill-rule="nonzero"></path>
            <path d="M11,2 L11,22 L13,22 L13,2 L11,2 Z M9,0 L15,0 L15,24 L9,24 L9,0 Z" id="Rectangle-Copy" fill="#141414" fill-rule="nonzero"></path>
            <path d="M18,8 L18,22 L20,22 L20,8 L18,8 Z M16,6 L22,6 L22,24 L16,24 L16,6 Z" id="Rectangle-Copy-2" fill="#141414" fill-rule="nonzero"></path>
        </g>
    </g>
</svg>