<?xml version="1.0" encoding="UTF-8"?>
<svg width="24px" height="24px" viewBox="0 0 24 24" version="1.1" xmlns="http://www.w3.org/2000/svg" xmlns:xlink="http://www.w3.org/1999/xlink">
    <!-- Generator: Sketch 48.1 (47250) - http://www.bohemiancoding.com/sketch -->
    <title>Icon / linegraph / thin / square</title>
    <desc>Created with Sketch.</desc>
    <defs></defs>
    <g id="Symbols" stroke="none" stroke-width="1" fill="none" fill-rule="evenodd">
        <g id="Icon-/-linegraph-/-thin-/-square">
            <g id="Grid"></g>
            <polygon id="Line-3" fill="#141414" fill-rule="nonzero" points="16.0889642 14.4143142 15.2996119 13.8003736 20.9149701 6.58062745 21.7043223 7.19456806"></polygon>
            <rect id="Rectangle" fill="#141414" x="2" y="23" width="20" height="1"></rect>
            <polygon id="Line" fill="#141414" fill-rule="nonzero" points="3.08753561 17.416151 2.29818339 16.8022103 7.91356209 9.58243773 8.7029143 10.1963783"></polygon>
            <polygon id="Line-2" fill="#141414" fill-rule="nonzero" points="9.79289322 10.5 10.5 9.79289322 14.2071068 13.5 13.5 14.2071068"></polygon>
            <path d="M2,19 C2.55228475,19 3,18.5522847 3,18 C3,17.4477153 2.55228475,17 2,17 C1.44771525,17 1,17.4477153 1,18 C1,18.5522847 1.44771525,19 2,19 Z M2,20 C0.8954305,20 0,19.1045695 0,18 C0,16.8954305 0.8954305,16 2,16 C3.1045695,16 4,16.8954305 4,18 C4,19.1045695 3.1045695,20 2,20 Z" id="Oval-16" fill="#141414" fill-rule="nonzero"></path>
            <path d="M9,10 C9.55228475,10 10,9.55228475 10,9 C10,8.44771525 9.55228475,8 9,8 C8.44771525,8 8,8.44771525 8,9 C8,9.55228475 8.44771525,10 9,10 Z M9,11 C7.8954305,11 7,10.1045695 7,9 C7,7.8954305 7.8954305,7 9,7 C10.1045695,7 11,7.8954305 11,9 C11,10.1045695 10.1045695,11 9,11 Z" id="Oval-16" fill="#141414" fill-rule="nonzero"></path>
            <path d="M15,16 C15.5522847,16 16,15.5522847 16,15 C16,14.4477153 15.5522847,14 15,14 C14.4477153,14 14,14.4477153 14,15 C14,15.5522847 14.4477153,16 15,16 Z M15,17 C13.8954305,17 13,16.1045695 13,15 C13,13.8954305 13.8954305,13 15,13 C16.1045695,13 17,13.8954305 17,15 C17,16.1045695 16.1045695,17 15,17 Z" id="Oval-16" fill="#141414" fill-rule="nonzero"></path>
            <path d="M22,7 C22.5522847,7 23,6.55228475 23,6 C23,5.44771525 22.5522847,5 22,5 C21.4477153,5 21,5.44771525 21,6 C21,6.55228475 21.4477153,7 22,7 Z M22,8 C20.8954305,8 20,7.1045695 20,6 C20,4.8954305 20.8954305,4 22,4 C23.1045695,4 24,4.8954305 24,6 C24,7.1045695 23.1045695,8 22,8 Z" id="Oval-16" fill="#141414" fill-rule="nonzero"></path>
        </g>
    </g>
</svg>