<?xml version="1.0" encoding="UTF-8"?>
<svg width="24px" height="24px" viewBox="0 0 24 24" version="1.1" xmlns="http://www.w3.org/2000/svg" xmlns:xlink="http://www.w3.org/1999/xlink">
    <!-- Generator: Sketch 48.1 (47250) - http://www.bohemiancoding.com/sketch -->
    <title>Icon / shareios / thin / rounded</title>
    <desc>Created with Sketch.</desc>
    <defs></defs>
    <g id="Symbols" stroke="none" stroke-width="1" fill="none" fill-rule="evenodd">
        <g id="Icon-/-shareios-/-thin-/-rounded">
            <g id="Grid"></g>
            <path d="M6,6 C6.27614237,6 6.5,6.22385763 6.5,6.5 C6.5,6.77614237 6.27614237,7 6,7 C5.44771525,7 5,7.44771525 5,8 C5,8.27614237 4.77614237,8.5 4.5,8.5 C4.22385763,8.5 4,8.27614237 4,8 C4,6.8954305 4.8954305,6 6,6 Z" id="Oval-2" fill="#141414" fill-rule="nonzero"></path>
            <path d="M6,7 C5.72385763,7 5.5,6.77614237 5.5,6.5 C5.5,6.22385763 5.72385763,6 6,6 L8.5,6 C8.77614237,6 9,6.22385763 9,6.5 C9,6.77614237 8.77614237,7 8.5,7 L6,7 Z" id="Line" fill="#141414" fill-rule="nonzero"></path>
            <path d="M6,22 C5.72385763,22 5.5,21.7761424 5.5,21.5 C5.5,21.2238576 5.72385763,21 6,21 L18,21 C18.2761424,21 18.5,21.2238576 18.5,21.5 C18.5,21.7761424 18.2761424,22 18,22 L6,22 Z" id="Line" fill="#141414" fill-rule="nonzero"></path>
            <path d="M15.5,7 C15.2238576,7 15,6.77614237 15,6.5 C15,6.22385763 15.2238576,6 15.5,6 L18,6 C18.2761424,6 18.5,6.22385763 18.5,6.5 C18.5,6.77614237 18.2761424,7 18,7 L15.5,7 Z" id="Line" fill="#141414" fill-rule="nonzero"></path>
            <path d="M4,8 C4,7.72385763 4.22385763,7.5 4.5,7.5 C4.77614237,7.5 5,7.72385763 5,8 L5,20 C5,20.2761424 4.77614237,20.5 4.5,20.5 C4.22385763,20.5 4,20.2761424 4,20 L4,8 Z" id="Line-3" fill="#141414" fill-rule="nonzero"></path>
            <path d="M19,8 C19,7.72385763 19.2238576,7.5 19.5,7.5 C19.7761424,7.5 20,7.72385763 20,8 L20,20 C20,20.2761424 19.7761424,20.5 19.5,20.5 C19.2238576,20.5 19,20.2761424 19,20 L19,8 Z" id="Line-3" fill="#141414" fill-rule="nonzero"></path>
            <path d="M20,8 C20,8.27614237 19.7761424,8.5 19.5,8.5 C19.2238576,8.5 19,8.27614237 19,8 C19,7.44771525 18.5522847,7 18,7 C17.7238576,7 17.5,6.77614237 17.5,6.5 C17.5,6.22385763 17.7238576,6 18,6 C19.1045695,6 20,6.8954305 20,8 Z" id="Oval-2" fill="#141414" fill-rule="nonzero"></path>
            <path d="M4,20 C4,19.7238576 4.22385763,19.5 4.5,19.5 C4.77614237,19.5 5,19.7238576 5,20 C5,20.5522847 5.44771525,21 6,21 C6.27614237,21 6.5,21.2238576 6.5,21.5 C6.5,21.7761424 6.27614237,22 6,22 C4.8954305,22 4,21.1045695 4,20 Z" id="Oval-2-Copy" fill="#141414" fill-rule="nonzero"></path>
            <path d="M18,22 C17.7238576,22 17.5,21.7761424 17.5,21.5 C17.5,21.2238576 17.7238576,21 18,21 C18.5522847,21 19,20.5522847 19,20 C19,19.7238576 19.2238576,19.5 19.5,19.5 C19.7761424,19.5 20,19.7238576 20,20 C20,21.1045695 19.1045695,22 18,22 Z" id="Oval-2-Copy" fill="#141414" fill-rule="nonzero"></path>
            <path d="M11.5,0.5 C11.5,0.223857625 11.7238576,0 12,0 C12.2761424,0 12.5,0.223857625 12.5,0.5 L12.5,14.5 C12.5,14.7761424 12.2761424,15 12,15 C11.7238576,15 11.5,14.7761424 11.5,14.5 L11.5,0.5 Z" id="Line-4" fill="#141414" fill-rule="nonzero"></path>
            <path d="M12,1.20710678 L9.35355339,3.85355339 C9.15829124,4.04881554 8.84170876,4.04881554 8.64644661,3.85355339 C8.45118446,3.65829124 8.45118446,3.34170876 8.64644661,3.14644661 L11.6464466,0.146446609 C11.8417088,-0.0488155365 12.1582912,-0.0488155365 12.3535534,0.146446609 L15.3535534,3.14644661 C15.5488155,3.34170876 15.5488155,3.65829124 15.3535534,3.85355339 C15.1582912,4.04881554 14.8417088,4.04881554 14.6464466,3.85355339 L12,1.20710678 Z" id="Line-2" fill="#141414" fill-rule="nonzero"></path>
        </g>
    </g>
</svg>