<?xml version="1.0" encoding="UTF-8"?>
<svg width="24px" height="24px" viewBox="0 0 24 24" version="1.1" xmlns="http://www.w3.org/2000/svg" xmlns:xlink="http://www.w3.org/1999/xlink">
    <!-- Generator: Sketch 48.1 (47250) - http://www.bohemiancoding.com/sketch -->
    <title>Icon / attachment / thin / square</title>
    <desc>Created with Sketch.</desc>
    <defs></defs>
    <g id="Symbols" stroke="none" stroke-width="1" fill="none" fill-rule="evenodd">
        <g id="Icon-/-attachment-/-thin-/-square">
            <g id="Grid"></g>
            <g id="Group" transform="translate(12.000000, 12.000000) rotate(45.000000) translate(-12.000000, -12.000000) translate(5.000000, 0.000000)" fill="#141414" fill-rule="nonzero">
                <path d="M0.5,17.5 L1.5,17.5 C1.5,20.5375661 3.96243388,23 7,23 C10.0375661,23 12.5,20.5375661 12.5,17.5 L13.5,17.5 C13.5,21.0898509 10.5898509,24 7,24 C3.41014913,24 0.5,21.0898509 0.5,17.5 Z" id="Oval"></path>
                <path d="M9.5,4.5 L8.5,4.5 C8.5,2.56700338 6.93299662,1 5,1 C3.06700338,1 1.5,2.56700338 1.5,4.5 L0.5,4.5 C0.5,2.01471863 2.51471863,0 5,0 C7.48528137,0 9.5,2.01471863 9.5,4.5 Z" id="Oval-2"></path>
                <polygon id="Line" points="0.5 4.5 1.5 4.5 1.5 17.5 0.5 17.5"></polygon>
                <polygon id="Line" points="4.5 6 5.5 6 5.5 15.5 4.5 15.5"></polygon>
                <polygon id="Line" points="12.5 6 13.5 6 13.5 17.5 12.5 17.5"></polygon>
                <polygon id="Line" points="8.5 4.5 9.5 4.5 9.5 15.5 8.5 15.5"></polygon>
                <path d="M4.5,15.5 L5.5,15.5 C5.5,16.3284271 6.17157288,17 7,17 C7.82842712,17 8.5,16.3284271 8.5,15.5 L9.5,15.5 C9.5,16.8807119 8.38071187,18 7,18 C5.61928813,18 4.5,16.8807119 4.5,15.5 Z" id="Oval-3"></path>
            </g>
        </g>
    </g>
</svg>