<?xml version="1.0" encoding="UTF-8"?>
<svg width="24px" height="24px" viewBox="0 0 24 24" version="1.1" xmlns="http://www.w3.org/2000/svg" xmlns:xlink="http://www.w3.org/1999/xlink">
    <!-- Generator: Sketch 48.1 (47250) - http://www.bohemiancoding.com/sketch -->
    <title>Icon / redo / thin / rounded</title>
    <desc>Created with Sketch.</desc>
    <defs></defs>
    <g id="Symbols" stroke="none" stroke-width="1" fill="none" fill-rule="evenodd">
        <g id="Icon-/-redo-/-thin-/-rounded">
            <g id="Grid"></g>
            <path d="M5,3 L0.5,3 C0.223857625,3 0,2.77614237 0,2.5 C0,2.22385763 0.223857625,2 0.5,2 L5.5,2 C5.77614237,2 6,2.22385763 6,2.5 L6,7.5 C6,7.77614237 5.77614237,8 5.5,8 C5.22385763,8 5,7.77614237 5,7.5 L5,3 Z" id="Line" fill="#141414" fill-rule="nonzero"></path>
            <path d="M4.42258987,2.69454453 C4.63662041,2.52005803 4.9515757,2.55211481 5.1260622,2.76614534 C5.30054871,2.98017588 5.26849193,3.29513118 5.05446139,3.46961768 C2.50675757,5.54661068 1,8.64934345 1,12 C1,18.0751322 5.92486775,23 12,23 C18.0751322,23 23,18.0751322 23,12 C23,5.92486775 18.0751322,1 12,1 C11.7238576,1 11.5,0.776142375 11.5,0.5 C11.5,0.223857625 11.7238576,0 12,0 C18.627417,0 24,5.372583 24,12 C24,18.627417 18.627417,24 12,24 C5.372583,24 0,18.627417 0,12 C0,8.34555324 1.64435685,4.95947443 4.42258987,2.69454453 Z" id="Oval-2" fill="#141414" fill-rule="nonzero"></path>
        </g>
    </g>
</svg>