<?xml version="1.0" encoding="UTF-8"?>
<svg width="24px" height="24px" viewBox="0 0 24 24" version="1.1" xmlns="http://www.w3.org/2000/svg" xmlns:xlink="http://www.w3.org/1999/xlink">
    <!-- Generator: Sketch 48.1 (47250) - http://www.bohemiancoding.com/sketch -->
    <title>Icon / folder / bold / rounded</title>
    <desc>Created with Sketch.</desc>
    <defs></defs>
    <g id="Symbols" stroke="none" stroke-width="1" fill="none" fill-rule="evenodd">
        <g id="Icon-/-folder-/-bold-/-rounded">
            <g id="Grid"></g>
            <path d="M2,6 L2,18 L22,18 L22,6 L2,6 Z M2,4 L22,4 C23.1045695,4 24,4.8954305 24,6 L24,18 C24,19.1045695 23.1045695,20 22,20 L2,20 C0.8954305,20 1.3527075e-16,19.1045695 0,18 L0,6 C-1.3527075e-16,4.8954305 0.8954305,4 2,4 Z" id="Rectangle" fill="#141414" fill-rule="nonzero"></path>
            <path d="M2,4 L9.17157288,4 L9.57563389,4.40406102 L12,4 L10.5857864,2.58578644 C10.2107137,2.21071368 9.70200585,2 9.17157288,2 L2,2 C0.8954305,2 -1.3527075e-16,2.8954305 0,4 L0,6 L2,5.66666667 L2,4 Z M2,4 L9.17157288,4 L9.57563389,4.40406102 L12,4 L10.5857864,2.58578644 C10.2107137,2.21071368 9.70200585,2 9.17157288,2 L2,2 C0.8954305,2 -1.3527075e-16,2.8954305 0,4 L0,6 L2,5.66666667 L2,4 Z" id="Rectangle-17" fill="#141414" fill-rule="nonzero"></path>
        </g>
    </g>
</svg>