<?xml version="1.0" encoding="UTF-8"?>
<svg width="24px" height="24px" viewBox="0 0 24 24" version="1.1" xmlns="http://www.w3.org/2000/svg" xmlns:xlink="http://www.w3.org/1999/xlink">
    <!-- Generator: Sketch 48.1 (47250) - http://www.bohemiancoding.com/sketch -->
    <title>Icon / clock / bold / rounded</title>
    <desc>Created with Sketch.</desc>
    <defs></defs>
    <g id="Symbols" stroke="none" stroke-width="1" fill="none" fill-rule="evenodd">
        <g id="Icon-/-clock-/-bold-/-rounded">
            <g id="Grid"></g>
            <path d="M13,5 C13,4.44771525 12.5522847,4 12,4 C11.4477153,4 11,4.44771525 11,5 L11,12 C11,12.3951887 11.2327335,12.7533102 11.5938615,12.9138115 L16.0938615,14.9138115 C16.5985457,15.1381156 17.1895075,14.9108226 17.4138115,14.4061385 C17.6381156,13.9014543 17.4108226,13.3104925 16.9061385,13.0861885 L13,11.3501269 L13,5 Z" id="Line" fill="#141414" fill-rule="nonzero"></path>
            <path d="M12,22 C17.5228475,22 22,17.5228475 22,12 C22,6.4771525 17.5228475,2 12,2 C6.4771525,2 2,6.4771525 2,12 C2,17.5228475 6.4771525,22 12,22 Z M12,24 C5.372583,24 0,18.627417 0,12 C0,5.372583 5.372583,0 12,0 C18.627417,0 24,5.372583 24,12 C24,18.627417 18.627417,24 12,24 Z" id="Oval-6" fill="#141414" fill-rule="nonzero"></path>
        </g>
    </g>
</svg>