<?xml version="1.0" encoding="UTF-8"?>
<svg width="24px" height="24px" viewBox="0 0 24 24" version="1.1" xmlns="http://www.w3.org/2000/svg" xmlns:xlink="http://www.w3.org/1999/xlink">
    <!-- Generator: Sketch 48.1 (47250) - http://www.bohemiancoding.com/sketch -->
    <title>Icon / filter / thin / rounded</title>
    <desc>Created with Sketch.</desc>
    <defs></defs>
    <g id="Symbols" stroke="none" stroke-width="1" fill="none" fill-rule="evenodd">
        <g id="Icon-/-filter-/-thin-/-rounded">
            <g id="Grid"></g>
            <path d="M0.5,6.5 C0.223857625,6.5 0,6.27614237 0,6 C0,5.72385763 0.223857625,5.5 0.5,5.5 L23.5,5.5 C23.7761424,5.5 24,5.72385763 24,6 C24,6.27614237 23.7761424,6.5 23.5,6.5 L0.5,6.5 Z" id="Line" fill="#141414" fill-rule="nonzero"></path>
            <path d="M4.5,12.5 C4.22385763,12.5 4,12.2761424 4,12 C4,11.7238576 4.22385763,11.5 4.5,11.5 L19.5,11.5 C19.7761424,11.5 20,11.7238576 20,12 C20,12.2761424 19.7761424,12.5 19.5,12.5 L4.5,12.5 Z" id="Line" fill="#141414" fill-rule="nonzero"></path>
            <path d="M8.5,18.5 C8.22385763,18.5 8,18.2761424 8,18 C8,17.7238576 8.22385763,17.5 8.5,17.5 L15.5,17.5 C15.7761424,17.5 16,17.7238576 16,18 C16,18.2761424 15.7761424,18.5 15.5,18.5 L8.5,18.5 Z" id="Line" fill="#141414" fill-rule="nonzero"></path>
        </g>
    </g>
</svg>