<?xml version="1.0" encoding="UTF-8"?>
<svg width="24px" height="24px" viewBox="0 0 24 24" version="1.1" xmlns="http://www.w3.org/2000/svg" xmlns:xlink="http://www.w3.org/1999/xlink">
    <!-- Generator: Sketch 48.1 (47250) - http://www.bohemiancoding.com/sketch -->
    <title>Icon / logout / thin / rounded</title>
    <desc>Created with Sketch.</desc>
    <defs></defs>
    <g id="Symbols" stroke="none" stroke-width="1" fill="none" fill-rule="evenodd">
        <g id="Icon-/-logout-/-thin-/-rounded">
            <g id="Grid"></g>
            <path d="M9.5,12.5 C9.22385763,12.5 9,12.2761424 9,12 C9,11.7238576 9.22385763,11.5 9.5,11.5 L23.5,11.5 C23.7761424,11.5 24,11.7238576 24,12 C24,12.2761424 23.7761424,12.5 23.5,12.5 L9.5,12.5 Z" id="Line" fill="#141414" fill-rule="nonzero"></path>
            <path d="M20.1464466,9.35355339 C19.9511845,9.15829124 19.9511845,8.84170876 20.1464466,8.64644661 C20.3417088,8.45118446 20.6582912,8.45118446 20.8535534,8.64644661 L23.8535534,11.6464466 C24.0488155,11.8417088 24.0488155,12.1582912 23.8535534,12.3535534 L20.8535534,15.3535534 C20.6582912,15.5488155 20.3417088,15.5488155 20.1464466,15.3535534 C19.9511845,15.1582912 19.9511845,14.8417088 20.1464466,14.6464466 L22.7928932,12 L20.1464466,9.35355339 Z" id="Line-2" fill="#141414" fill-rule="nonzero"></path>
            <path d="M20,12 C20,12.2761424 19.7761424,12.5 19.5,12.5 C19.2238576,12.5 19,12.2761424 19,12 C19,7.02943725 14.9705627,3 10,3 C5.02943725,3 1,7.02943725 1,12 C1,16.9705627 5.02943725,21 10,21 C10.2761424,21 10.5,21.2238576 10.5,21.5 C10.5,21.7761424 10.2761424,22 10,22 C4.4771525,22 0,17.5228475 0,12 C0,6.4771525 4.4771525,2 10,2 C15.5228475,2 20,6.4771525 20,12 Z" id="Oval-4" fill="#141414" fill-rule="nonzero" transform="translate(10.000000, 12.000000) rotate(-45.000000) translate(-10.000000, -12.000000) "></path>
        </g>
    </g>
</svg>