<?xml version="1.0" encoding="UTF-8"?>
<svg width="24px" height="24px" viewBox="0 0 24 24" version="1.1" xmlns="http://www.w3.org/2000/svg" xmlns:xlink="http://www.w3.org/1999/xlink">
    <!-- Generator: Sketch 48.1 (47250) - http://www.bohemiancoding.com/sketch -->
    <title>Icon / logout / thin / square</title>
    <desc>Created with Sketch.</desc>
    <defs></defs>
    <g id="Symbols" stroke="none" stroke-width="1" fill="none" fill-rule="evenodd">
        <g id="Icon-/-logout-/-thin-/-square">
            <g id="Grid"></g>
            <path d="M17.0710678,4.92893219 L16.363961,5.63603897 C14.7352814,4.00735931 12.4852814,3 10,3 C5.02943725,3 1,7.02943725 1,12 C1,16.9705627 5.02943725,21 10,21 C12.4852814,21 14.7352814,19.9926407 16.363961,18.363961 L17.0710678,19.0710678 C15.2614237,20.8807119 12.7614237,22 10,22 C4.4771525,22 0,17.5228475 0,12 C0,6.4771525 4.4771525,2 10,2 C12.7614237,2 15.2614237,3.11928813 17.0710678,4.92893219 Z" id="Combined-Shape" fill="#141414"></path>
            <polygon id="Line" fill="#141414" fill-rule="nonzero" points="9 12.5 9 11.5 23 11.5 23 12.5"></polygon>
            <polygon id="Line-2" fill="#141414" fill-rule="nonzero" points="19.5499992 15 20.257106 15.7071068 23.9642128 12 20.257106 8.29289322 19.5499992 9 22.5499992 12"></polygon>
        </g>
    </g>
</svg>