<?xml version="1.0" encoding="UTF-8"?>
<svg width="24px" height="24px" viewBox="0 0 24 24" version="1.1" xmlns="http://www.w3.org/2000/svg" xmlns:xlink="http://www.w3.org/1999/xlink">
    <!-- Generator: Sketch 48.1 (47250) - http://www.bohemiancoding.com/sketch -->
    <title>Icon / camera / thin / rounded</title>
    <desc>Created with Sketch.</desc>
    <defs></defs>
    <g id="Symbols" stroke="none" stroke-width="1" fill="none" fill-rule="evenodd">
        <g id="Icon-/-camera-/-thin-/-rounded">
            <g id="Grid"></g>
            <path d="M4.5,3 L7.5,3 C7.77614237,3 8,2.77614237 8,2.5 C8,2.22385763 7.77614237,2 7.5,2 L4.5,2 C4.22385763,2 4,2.22385763 4,2.5 C4,2.77614237 4.22385763,3 4.5,3 Z" id="Line" fill="#141414" fill-rule="nonzero"></path>
            <rect id="Rectangle" fill="#141414" x="2" y="4" width="20" height="1"></rect>
            <rect id="Rectangle-Copy" fill="#141414" x="2" y="19" width="20" height="1"></rect>
            <rect id="Rectangle-2" fill="#141414" x="23" y="6" width="1" height="12"></rect>
            <rect id="Rectangle-2-Copy" fill="#141414" x="0" y="6" width="1" height="12"></rect>
            <path d="M2,4 C0.8954305,4 0,4.8954305 0,6 L1,6 C1,5.44771525 1.44771525,5 2,5 L2,4 Z" id="Oval" fill="#141414" fill-rule="nonzero"></path>
            <path d="M24,6 C24,4.8954305 23.1045695,4 22,4 L22,5 C22.5522847,5 23,5.44771525 23,6 L24,6 Z" id="Oval-Copy" fill="#141414" fill-rule="nonzero"></path>
            <path d="M0,18 C0,19.1045695 0.8954305,20 2,20 L2,19 C1.44771525,19 1,18.5522847 1,18 L0,18 Z" id="Oval-2" fill="#141414" fill-rule="nonzero"></path>
            <path d="M22,20 C23.1045695,20 24,19.1045695 24,18 L23,18 C23,18.5522847 22.5522847,19 22,19 L22,20 Z" id="Oval-2-Copy" fill="#141414" fill-rule="nonzero"></path>
            <path d="M12,17 C14.7614237,17 17,14.7614237 17,12 C17,9.23857625 14.7614237,7 12,7 C9.23857625,7 7,9.23857625 7,12 C7,14.7614237 9.23857625,17 12,17 Z M12,18 C8.6862915,18 6,15.3137085 6,12 C6,8.6862915 8.6862915,6 12,6 C15.3137085,6 18,8.6862915 18,12 C18,15.3137085 15.3137085,18 12,18 Z" id="Oval" fill="#141414" fill-rule="nonzero"></path>
        </g>
    </g>
</svg>