<?xml version="1.0" encoding="UTF-8"?>
<svg width="24px" height="24px" viewBox="0 0 24 24" version="1.1" xmlns="http://www.w3.org/2000/svg" xmlns:xlink="http://www.w3.org/1999/xlink">
    <!-- Generator: Sketch 48.1 (47250) - http://www.bohemiancoding.com/sketch -->
    <title>Icon / photo / thin / rounded</title>
    <desc>Created with Sketch.</desc>
    <defs></defs>
    <g id="Symbols" stroke="none" stroke-width="1" fill="none" fill-rule="evenodd">
        <g id="Icon-/-photo-/-thin-/-rounded">
            <g id="Grid"></g>
            <path d="M4,3 C3.44771525,3 3,3.44771525 3,4 L3,20 C3,20.5522847 3.44771525,21 4,21 L20,21 C20.5522847,21 21,20.5522847 21,20 L21,4 C21,3.44771525 20.5522847,3 20,3 L4,3 Z M4,2 L20,2 C21.1045695,2 22,2.8954305 22,4 L22,20 C22,21.1045695 21.1045695,22 20,22 L4,22 C2.8954305,22 2,21.1045695 2,20 L2,4 C2,2.8954305 2.8954305,2 4,2 Z" id="Rectangle-25" fill="#141414" fill-rule="nonzero"></path>
            <path d="M9,9.90138782 L2.91602515,19.0273501 C2.76284892,19.2571144 2.45241425,19.3192014 2.2226499,19.1660251 C1.99288556,19.0128489 1.93079862,18.7024142 2.08397485,18.4726499 L8.58397485,8.7226499 C8.78188588,8.42578337 9.21811412,8.42578337 9.41602515,8.7226499 L13,14.0986122 L14.5839749,11.7226499 C14.7818859,11.4257834 15.2181141,11.4257834 15.4160251,11.7226499 L21.4160251,20.7226499 C21.5692014,20.9524142 21.5071144,21.2628489 21.2773501,21.4160251 C21.0475858,21.5692014 20.7371511,21.5071144 20.5839749,21.2773501 L15,12.9013878 L13.4160251,15.2773501 C13.2181141,15.5742166 12.7818859,15.5742166 12.5839749,15.2773501 L9,9.90138782 Z" id="Line" fill="#141414" fill-rule="nonzero"></path>
        </g>
    </g>
</svg>