<?xml version="1.0" encoding="UTF-8"?>
<svg width="24px" height="24px" viewBox="0 0 24 24" version="1.1" xmlns="http://www.w3.org/2000/svg" xmlns:xlink="http://www.w3.org/1999/xlink">
    <!-- Generator: Sketch 48.1 (47250) - http://www.bohemiancoding.com/sketch -->
    <title>Icon / plus / bold / rounded</title>
    <desc>Created with Sketch.</desc>
    <defs></defs>
    <g id="Symbols" stroke="none" stroke-width="1" fill="none" fill-rule="evenodd">
        <g id="Icon-/-plus-/-bold-/-rounded">
            <g id="Grid"></g>
            <path d="M11,1 L11,23 C11,23.5522847 11.4477153,24 12,24 C12.5522847,24 13,23.5522847 13,23 L13,1 C13,0.44771525 12.5522847,0 12,0 C11.4477153,0 11,0.44771525 11,1 Z" id="Line-4" fill="#141414" fill-rule="nonzero"></path>
            <path d="M1,13 L23,13 C23.5522847,13 24,12.5522847 24,12 C24,11.4477153 23.5522847,11 23,11 L1,11 C0.44771525,11 0,11.4477153 0,12 C0,12.5522847 0.44771525,13 1,13 Z" id="Line-4" fill="#141414" fill-rule="nonzero"></path>
        </g>
    </g>
</svg>