<?xml version="1.0" encoding="UTF-8"?>
<svg width="24px" height="24px" viewBox="0 0 24 24" version="1.1" xmlns="http://www.w3.org/2000/svg" xmlns:xlink="http://www.w3.org/1999/xlink">
    <!-- Generator: Sketch 48.1 (47250) - http://www.bohemiancoding.com/sketch -->
    <title>Icon / message / bold / rounded</title>
    <desc>Created with Sketch.</desc>
    <defs></defs>
    <g id="Symbols" stroke="none" stroke-width="1" fill="none" fill-rule="evenodd">
        <g id="Icon-/-message-/-bold-/-rounded">
            <g id="Grid"></g>
            <path d="M23.9073279,20.5795764 C24.3032207,21.4339638 23.4065239,22.3120393 22.5606313,21.8983068 L18.4736215,19.8993193 L19.4648954,19.8349193 C17.3566793,21.2302019 14.7461874,22 12,22 C5.41187954,22 0,17.5720986 0,12 C0,6.42790145 5.41187954,2 12,2 C18.5881205,2 24,6.42790145 24,12 C24,13.837569 23.40557,15.5982411 22.3083426,17.1287613 C23.5995299,19.9153089 23.6164435,19.9518105 23.9073279,20.5795764 Z M21.986427,19.3910484 L21.3947187,19.9141508 C21.1525805,19.3915855 20.7965193,18.6231599 20.239619,17.4212978 C20.0784665,17.0735101 20.1302945,16.6642078 20.3730482,16.3675649 C21.4322902,15.07318 22,13.5684254 22,12 C22,7.63097306 17.562144,4 12,4 C6.43785596,4 2,7.63097306 2,12 C2,16.3690269 6.43785596,20 12,20 C14.3574209,20 16.5835174,19.3435547 18.3610849,18.1671057 C18.6567318,17.9714375 19.0338801,17.9469353 19.3523589,18.1027057 C20.6486426,18.7367279 21.4515529,19.1294374 21.986427,19.3910484 Z" id="Oval-2" fill="#141414" fill-rule="nonzero"></path>
        </g>
    </g>
</svg>