<?xml version="1.0" encoding="UTF-8"?>
<svg width="24px" height="24px" viewBox="0 0 24 24" version="1.1" xmlns="http://www.w3.org/2000/svg" xmlns:xlink="http://www.w3.org/1999/xlink">
    <!-- Generator: Sketch 48.1 (47250) - http://www.bohemiancoding.com/sketch -->
    <title>Icon / book / thin / rounded</title>
    <desc>Created with Sketch.</desc>
    <defs></defs>
    <g id="Symbols" stroke="none" stroke-width="1" fill="none" fill-rule="evenodd">
        <g id="Icon-/-book-/-thin-/-rounded">
            <g id="Grid"></g>
            <path d="M2,4 C2.27614237,4 2.5,4.22385763 2.5,4.5 C2.5,4.77614237 2.27614237,5 2,5 C1.44771525,5 1,5.44771525 1,6 C1,6.27614237 0.776142375,6.5 0.5,6.5 C0.223857625,6.5 0,6.27614237 0,6 C0,4.8954305 0.8954305,4 2,4 Z" id="Oval-2" fill="#141414" fill-rule="nonzero"></path>
            <path d="M13.5,4 C13.7761424,4 14,4.22385763 14,4.5 C14,4.77614237 13.7761424,5 13.5,5 C12.9477153,5 12.5,5.44771525 12.5,6 C12.5,6.27614237 12.2761424,6.5 12,6.5 C11.7238576,6.5 11.5,6.27614237 11.5,6 C11.5,4.8954305 12.3954305,4 13.5,4 Z" id="Oval-2" fill="#141414" fill-rule="nonzero"></path>
            <path d="M2,5 C1.72385763,5 1.5,4.77614237 1.5,4.5 C1.5,4.22385763 1.72385763,4 2,4 L10.5,4 C10.7761424,4 11,4.22385763 11,4.5 C11,4.77614237 10.7761424,5 10.5,5 L2,5 Z" id="Line" fill="#141414" fill-rule="nonzero"></path>
            <path d="M13.5,5 C13.2238576,5 13,4.77614237 13,4.5 C13,4.22385763 13.2238576,4 13.5,4 L22,4 C22.2761424,4 22.5,4.22385763 22.5,4.5 C22.5,4.77614237 22.2761424,5 22,5 L13.5,5 Z" id="Line" fill="#141414" fill-rule="nonzero"></path>
            <path d="M2,20 C1.72385763,20 1.5,19.7761424 1.5,19.5 C1.5,19.2238576 1.72385763,19 2,19 L10.5,19 C10.7761424,19 11,19.2238576 11,19.5 C11,19.7761424 10.7761424,20 10.5,20 L2,20 Z" id="Line" fill="#141414" fill-rule="nonzero"></path>
            <path d="M13.5,20 C13.2238576,20 13,19.7761424 13,19.5 C13,19.2238576 13.2238576,19 13.5,19 L22,19 C22.2761424,19 22.5,19.2238576 22.5,19.5 C22.5,19.7761424 22.2761424,20 22,20 L13.5,20 Z" id="Line" fill="#141414" fill-rule="nonzero"></path>
            <path d="M24,6 C24,6.27614237 23.7761424,6.5 23.5,6.5 C23.2238576,6.5 23,6.27614237 23,6 C23,5.44771525 22.5522847,5 22,5 C21.7238576,5 21.5,4.77614237 21.5,4.5 C21.5,4.22385763 21.7238576,4 22,4 C23.1045695,4 24,4.8954305 24,6 Z" id="Oval-2" fill="#141414" fill-rule="nonzero"></path>
            <path d="M12.5,6 C12.5,6.27614237 12.2761424,6.5 12,6.5 C11.7238576,6.5 11.5,6.27614237 11.5,6 C11.5,5.44771525 11.0522847,5 10.5,5 C10.2238576,5 10,4.77614237 10,4.5 C10,4.22385763 10.2238576,4 10.5,4 C11.6045695,4 12.5,4.8954305 12.5,6 Z" id="Oval-2" fill="#141414" fill-rule="nonzero"></path>
            <path d="M0,18 C0,17.7238576 0.223857625,17.5 0.5,17.5 C0.776142375,17.5 1,17.7238576 1,18 C1,18.5522847 1.44771525,19 2,19 C2.27614237,19 2.5,19.2238576 2.5,19.5 C2.5,19.7761424 2.27614237,20 2,20 C0.8954305,20 0,19.1045695 0,18 Z" id="Oval-2-Copy" fill="#141414" fill-rule="nonzero"></path>
            <path d="M22,20 C21.7238576,20 21.5,19.7761424 21.5,19.5 C21.5,19.2238576 21.7238576,19 22,19 C22.5522847,19 23,18.5522847 23,18 C23,17.7238576 23.2238576,17.5 23.5,17.5 C23.7761424,17.5 24,17.7238576 24,18 C24,19.1045695 23.1045695,20 22,20 Z" id="Oval-2-Copy" fill="#141414" fill-rule="nonzero"></path>
            <path d="M13.5,19 C13.7761424,19 14,19.2238576 14,19.5 C14,19.7761424 13.7761424,20 13.5,20 C12.9477153,20 12.5,20.4477153 12.5,21 C12.5,21.2761424 12.2761424,21.5 12,21.5 C11.7238576,21.5 11.5,21.2761424 11.5,21 C11.5,19.8954305 12.3954305,19 13.5,19 Z" id="Oval-2" fill="#141414" fill-rule="nonzero"></path>
            <path d="M12.5,21 C12.5,21.2761424 12.2761424,21.5 12,21.5 C11.7238576,21.5 11.5,21.2761424 11.5,21 C11.5,20.4477153 11.0522847,20 10.5,20 C10.2238576,20 10,19.7761424 10,19.5 C10,19.2238576 10.2238576,19 10.5,19 C11.6045695,19 12.5,19.8954305 12.5,21 Z" id="Oval-2" fill="#141414" fill-rule="nonzero"></path>
            <path d="M0,6 C0,5.72385763 0.223857625,5.5 0.5,5.5 C0.776142375,5.5 1,5.72385763 1,6 L1,18 C1,18.2761424 0.776142375,18.5 0.5,18.5 C0.223857625,18.5 0,18.2761424 0,18 L0,6 Z" id="Line-2" fill="#141414" fill-rule="nonzero"></path>
            <path d="M11.5,6 C11.5,5.72385763 11.7238576,5.5 12,5.5 C12.2761424,5.5 12.5,5.72385763 12.5,6 L12.5,21.5 C12.5,21.7761424 12.2761424,22 12,22 C11.7238576,22 11.5,21.7761424 11.5,21.5 L11.5,6 Z" id="Line-2" fill="#141414" fill-rule="nonzero"></path>
            <path d="M23,6 C23,5.72385763 23.2238576,5.5 23.5,5.5 C23.7761424,5.5 24,5.72385763 24,6 L24,18 C24,18.2761424 23.7761424,18.5 23.5,18.5 C23.2238576,18.5 23,18.2761424 23,18 L23,6 Z" id="Line-2" fill="#141414" fill-rule="nonzero"></path>
        </g>
    </g>
</svg>