<?xml version="1.0" encoding="UTF-8"?>
<svg width="24px" height="24px" viewBox="0 0 24 24" version="1.1" xmlns="http://www.w3.org/2000/svg" xmlns:xlink="http://www.w3.org/1999/xlink">
    <!-- Generator: Sketch 48.1 (47250) - http://www.bohemiancoding.com/sketch -->
    <title>Icon / hamburger / thin / rounded</title>
    <desc>Created with Sketch.</desc>
    <defs></defs>
    <g id="Symbols" stroke="none" stroke-width="1" fill="none" fill-rule="evenodd">
        <g id="Icon-/-hamburger-/-thin-/-rounded">
            <g id="Grid"></g>
            <path d="M0.5,6.5 L23.5,6.5 C23.7761424,6.5 24,6.27614237 24,6 C24,5.72385763 23.7761424,5.5 23.5,5.5 L0.5,5.5 C0.223857625,5.5 0,5.72385763 0,6 C0,6.27614237 0.223857625,6.5 0.5,6.5 Z" id="Line" fill="#141414" fill-rule="nonzero"></path>
            <path d="M0.5,12.5 L23.5,12.5 C23.7761424,12.5 24,12.2761424 24,12 C24,11.7238576 23.7761424,11.5 23.5,11.5 L0.5,11.5 C0.223857625,11.5 0,11.7238576 0,12 C0,12.2761424 0.223857625,12.5 0.5,12.5 Z" id="Line" fill="#141414" fill-rule="nonzero"></path>
            <path d="M0.5,18.5 L23.5,18.5 C23.7761424,18.5 24,18.2761424 24,18 C24,17.7238576 23.7761424,17.5 23.5,17.5 L0.5,17.5 C0.223857625,17.5 0,17.7238576 0,18 C0,18.2761424 0.223857625,18.5 0.5,18.5 Z" id="Line" fill="#141414" fill-rule="nonzero"></path>
        </g>
    </g>
</svg>