<?xml version="1.0" encoding="UTF-8"?>
<svg width="24px" height="24px" viewBox="0 0 24 24" version="1.1" xmlns="http://www.w3.org/2000/svg" xmlns:xlink="http://www.w3.org/1999/xlink">
    <!-- Generator: Sketch 48.1 (47250) - http://www.bohemiancoding.com/sketch -->
    <title>Icon / tabs / thin / rounded</title>
    <desc>Created with Sketch.</desc>
    <defs></defs>
    <g id="Symbols" stroke="none" stroke-width="1" fill="none" fill-rule="evenodd">
        <g id="Icon-/-tabs-/-thin-/-rounded">
            <g id="Grid"></g>
            <path d="M0,5.99079514 C0,4.89130934 0.898212381,4 1.99079514,4 L18.0092049,4 C19.1086907,4 20,4.89821238 20,5.99079514 L20,22.0092049 C20,23.1086907 19.1017876,24 18.0092049,24 L1.99079514,24 C0.891309342,24 0,23.1017876 0,22.0092049 L0,5.99079514 Z M1,5.99339768 L1,22.0066023 C1,22.5550537 1.44475929,23 1.99339768,23 L18.0066023,23 C18.5550537,23 19,22.5552407 19,22.0066023 L19,5.99339768 C19,5.44494629 18.5552407,5 18.0066023,5 L1.99339768,5 C1.44494629,5 1,5.44475929 1,5.99339768 Z" id="Combined-Shape" fill="#141414"></path>
            <path d="M4,2 C4,0.8954305 4.89821238,0 5.99079514,0 L22.0092049,0 C23.1086907,0 24,0.898212381 24,1.99079514 L24,18.0092049 C24,19.1086907 23.1122704,20 22,20 L20,20 L20,19 L22.0010434,19 C22.5527519,19 23,18.5550537 23,18.0066023 L23,1.99339768 C23,1.44475929 22.5550537,1 22.0066023,1 L5.99339768,1 C5.44475929,1 5,1.44266033 5,1.99895656 L5,4 L4,4 L4,2 Z" id="Rectangle" fill="#141414"></path>
        </g>
    </g>
</svg>