<?xml version="1.0" encoding="UTF-8"?>
<svg width="24px" height="24px" viewBox="0 0 24 24" version="1.1" xmlns="http://www.w3.org/2000/svg" xmlns:xlink="http://www.w3.org/1999/xlink">
    <!-- Generator: Sketch 48.1 (47250) - http://www.bohemiancoding.com/sketch -->
    <title>Icon / desktop / bold / rounded</title>
    <desc>Created with Sketch.</desc>
    <defs></defs>
    <g id="Symbols" stroke="none" stroke-width="1" fill="none" fill-rule="evenodd">
        <g id="Icon-/-desktop-/-bold-/-rounded">
            <g id="Grid"></g>
            <rect id="Rectangle-24" fill="#141414" x="11" y="18" width="2" height="4"></rect>
            <path d="M10,22 L14,22 C14.5522847,22 15,21.5522847 15,21 C15,20.4477153 14.5522847,20 14,20 L10,20 C9.44771525,20 9,20.4477153 9,21 C9,21.5522847 9.44771525,22 10,22 Z" id="Line" fill="#141414" fill-rule="nonzero"></path>
            <path d="M2,4 L2,16 L22,16 L22,4 L2,4 Z M2,2 L22,2 C23.1045695,2 24,2.8954305 24,4 L24,16 C24,17.1045695 23.1045695,18 22,18 L2,18 C0.8954305,18 1.3527075e-16,17.1045695 0,16 L0,4 C-1.3527075e-16,2.8954305 0.8954305,2 2,2 Z" id="Rectangle-23" fill="#141414" fill-rule="nonzero"></path>
        </g>
    </g>
</svg>