<?xml version="1.0" encoding="UTF-8"?>
<svg width="24px" height="24px" viewBox="0 0 24 24" version="1.1" xmlns="http://www.w3.org/2000/svg" xmlns:xlink="http://www.w3.org/1999/xlink">
    <!-- Generator: Sketch 48.1 (47250) - http://www.bohemiancoding.com/sketch -->
    <title>Icon / download / bold / rounded</title>
    <desc>Created with Sketch.</desc>
    <defs></defs>
    <g id="Symbols" stroke="none" stroke-width="1" fill="none" fill-rule="evenodd">
        <g id="Icon-/-download-/-bold-/-rounded">
            <g id="Grid"></g>
            <path d="M11,1 L11,19 C11,19.5522847 11.4477153,20 12,20 C12.5522847,20 13,19.5522847 13,19 L13,1 C13,0.44771525 12.5522847,0 12,0 C11.4477153,0 11,0.44771525 11,1 Z" id="Line-3" fill="#141414" fill-rule="nonzero"></path>
            <path d="M6.70710678,12.2928932 C6.31658249,11.9023689 5.68341751,11.9023689 5.29289322,12.2928932 C4.90236893,12.6834175 4.90236893,13.3165825 5.29289322,13.7071068 L11.2928932,19.7071068 C11.6834175,20.0976311 12.3165825,20.0976311 12.7071068,19.7071068 L18.7071068,13.7071068 C19.0976311,13.3165825 19.0976311,12.6834175 18.7071068,12.2928932 C18.3165825,11.9023689 17.6834175,11.9023689 17.2928932,12.2928932 L12,17.5857864 L6.70710678,12.2928932 Z" id="Line-2" fill="#141414" fill-rule="nonzero"></path>
            <path d="M3,24 L21,24 C21.5522847,24 22,23.5522847 22,23 C22,22.4477153 21.5522847,22 21,22 L3,22 C2.44771525,22 2,22.4477153 2,23 C2,23.5522847 2.44771525,24 3,24 Z" id="Line" fill="#141414" fill-rule="nonzero"></path>
        </g>
    </g>
</svg>