<?xml version="1.0" encoding="UTF-8"?>
<svg width="24px" height="24px" viewBox="0 0 24 24" version="1.1" xmlns="http://www.w3.org/2000/svg" xmlns:xlink="http://www.w3.org/1999/xlink">
    <!-- Generator: Sketch 48.1 (47250) - http://www.bohemiancoding.com/sketch -->
    <title>Icon / download / thin / rounded</title>
    <desc>Created with Sketch.</desc>
    <defs></defs>
    <g id="Symbols" stroke="none" stroke-width="1" fill="none" fill-rule="evenodd">
        <g id="Icon-/-download-/-thin-/-rounded">
            <g id="Grid"></g>
            <path d="M12,20.7928932 L6.35355339,15.1464466 C6.15829124,14.9511845 5.84170876,14.9511845 5.64644661,15.1464466 C5.45118446,15.3417088 5.45118446,15.6582912 5.64644661,15.8535534 L11.6464466,21.8535534 C11.8417088,22.0488155 12.1582912,22.0488155 12.3535534,21.8535534 L18.3535534,15.8535534 C18.5488155,15.6582912 18.5488155,15.3417088 18.3535534,15.1464466 C18.1582912,14.9511845 17.8417088,14.9511845 17.6464466,15.1464466 L12,20.7928932 Z" id="Line-2" fill="#141414" fill-rule="nonzero"></path>
            <path d="M2.5,24 L21.5,24 C21.7761424,24 22,23.7761424 22,23.5 C22,23.2238576 21.7761424,23 21.5,23 L2.5,23 C2.22385763,23 2,23.2238576 2,23.5 C2,23.7761424 2.22385763,24 2.5,24 Z" id="Line" fill="#141414" fill-rule="nonzero"></path>
            <path d="M11.5,0.5 L11.5,21.5 C11.5,21.7761424 11.7238576,22 12,22 C12.2761424,22 12.5,21.7761424 12.5,21.5 L12.5,0.5 C12.5,0.223857625 12.2761424,-8.8817842e-16 12,-8.8817842e-16 C11.7238576,-8.8817842e-16 11.5,0.223857625 11.5,0.5 Z" id="Line-3" fill="#141414" fill-rule="nonzero"></path>
        </g>
    </g>
</svg>