<?xml version="1.0" encoding="UTF-8"?>
<svg width="24px" height="24px" viewBox="0 0 24 24" version="1.1" xmlns="http://www.w3.org/2000/svg" xmlns:xlink="http://www.w3.org/1999/xlink">
    <!-- Generator: Sketch 48.1 (47250) - http://www.bohemiancoding.com/sketch -->
    <title>Icon / call / thin / rounded</title>
    <desc>Created with Sketch.</desc>
    <defs></defs>
    <g id="Symbols" stroke="none" stroke-width="1" fill="none" fill-rule="evenodd">
        <g id="Icon-/-call-/-thin-/-rounded">
            <g id="Grid"></g>
            <path d="M22.9945542,1 L19.5612726,1 C19.1372899,1 18.7593923,1.26736824 18.6182823,1.66717988 L16.2861208,8.2749707 C16.1579521,8.63811554 16.2496981,9.04259132 16.5220044,9.3148976 L19.60219,12.3950832 C21.673274,9.07617878 22.9034516,5.1784282 22.9945542,1 Z M9.3148976,16.5220044 C9.04259132,16.2496981 8.63811554,16.1579521 8.2749707,16.2861208 L1.66717988,18.6182823 C1.26736824,18.7593923 1,19.1372899 1,19.5612726 L1,22.9945542 C5.1784282,22.9034516 9.07617878,21.673274 12.3950832,19.60219 L9.3148976,16.5220044 Z M15.8148976,10.0220044 C15.2702851,9.47739183 15.086793,8.66844027 15.3431305,7.94215058 L17.675292,1.33435976 C17.9575119,0.534736472 18.7133071,1.03620816e-15 19.5612726,0 L23.5,0 C23.7761424,0 24,0.223857625 24,0.5 C24,13.4786916 13.4786916,24 0.5,24 C0.223857625,24 0,23.7761424 0,23.5 L0,19.5612726 C-7.40148683e-17,18.7133071 0.534736472,17.9575119 1.33435976,17.675292 L7.94215058,15.3431305 C8.66844027,15.086793 9.47739183,15.2702851 10.0220044,15.8148976 L13.2490835,19.0419768 C15.5151557,17.4808977 17.4808977,15.5151557 19.0419768,13.2490835 L15.8148976,10.0220044 Z" id="Oval-2" fill="#141414" fill-rule="nonzero"></path>
        </g>
    </g>
</svg>