<?xml version="1.0" encoding="UTF-8"?>
<svg width="24px" height="24px" viewBox="0 0 24 24" version="1.1" xmlns="http://www.w3.org/2000/svg" xmlns:xlink="http://www.w3.org/1999/xlink">
    <!-- Generator: Sketch 48.1 (47250) - http://www.bohemiancoding.com/sketch -->
    <title>Icon / call / thin / square</title>
    <desc>Created with Sketch.</desc>
    <defs></defs>
    <g id="Symbols" stroke="none" stroke-width="1" fill="none" fill-rule="evenodd">
        <g id="Icon-/-call-/-thin-/-square">
            <g id="Grid"></g>
            <path d="M1,18 L0.316227766,18.9486833 L1,18.7207592 L1,18 Z M9.31622777,15.9486833 L8.29289322,15.7071068 L8.72990924,16.1441228 L9.31622777,15.9486833 Z M8.72990924,16.1441228 L12.4090353,19.8232488 L13.5,19.5 L9,15 L0,18 L0,23.5 L1,23.2037037 L1,18.7207592 L8.72990924,16.1441228 Z M9.31622777,15.9486833 L8.29289322,15.7071068 L8.72990924,16.1441228 L9.31622777,15.9486833 Z M1,18 L0.316227766,18.9486833 L1,18.7207592 L1,18 Z M12.4090353,19.8232488 L13.5,19.5 L9,15 L0,18 L0,23.5 L1,23.2037037 L1,18.7207592 L8.72990924,16.1441228 L12.4090353,19.8232488 Z" id="Rectangle-16" fill="#141414" fill-rule="nonzero"></path>
            <path d="M15.9486833,9.31622777 L15.7071068,8.29289322 L16.1441228,8.72990924 L15.9486833,9.31622777 Z M18.9486833,0.316227766 L18,1 L18.7207592,1 L18.9486833,0.316227766 Z M16.1441228,8.72990924 L18.7207592,1 L23.2037037,1 L23.5,0 L18,0 L15,9 L19.5,13.5 L19.8232488,12.4090353 L16.1441228,8.72990924 Z M18.7207592,1 L18,1 L18.9486833,0.316227766 L18.7207592,1 Z M15.7071068,8.29289322 L15.9486833,9.31622777 L16.1441228,8.72990924 L15.7071068,8.29289322 Z M18.7207592,1 L23.2037037,1 L23.5,0 L18,0 L15,9 L19.5,13.5 L19.8232488,12.4090353 L16.1441228,8.72990924 L18.7207592,1 Z" id="Rectangle-16" fill="#141414" fill-rule="nonzero"></path>
            <path d="M0,24 C13.254834,24 24,13.254834 24,0 L23,0 C23,12.7025492 12.7025492,23 0,23 L0,24 Z" id="Oval" fill="#141414" fill-rule="nonzero"></path>
        </g>
    </g>
</svg>