<?xml version="1.0" encoding="UTF-8"?>
<svg width="24px" height="24px" viewBox="0 0 24 24" version="1.1" xmlns="http://www.w3.org/2000/svg" xmlns:xlink="http://www.w3.org/1999/xlink">
    <!-- Generator: Sketch 48.1 (47250) - http://www.bohemiancoding.com/sketch -->
    <title>Icon / logout / bold / rounded</title>
    <desc>Created with Sketch.</desc>
    <defs></defs>
    <g id="Symbols" stroke="none" stroke-width="1" fill="none" fill-rule="evenodd">
        <g id="Icon-/-logout-/-bold-/-rounded">
            <g id="Grid"></g>
            <path d="M20,12 C20,12.5522847 19.5522847,13 19,13 C18.4477153,13 18,12.5522847 18,12 C18,7.581722 14.418278,4 10,4 C5.581722,4 2,7.581722 2,12 C2,16.418278 5.581722,20 10,20 C10.5522847,20 11,20.4477153 11,21 C11,21.5522847 10.5522847,22 10,22 C4.4771525,22 0,17.5228475 0,12 C0,6.4771525 4.4771525,2 10,2 C15.5228475,2 20,6.4771525 20,12 Z" id="Oval" fill="#141414" fill-rule="nonzero" transform="translate(10.000000, 12.000000) rotate(-45.000000) translate(-10.000000, -12.000000) "></path>
            <path d="M10,13 C9.44771525,13 9,12.5522847 9,12 C9,11.4477153 9.44771525,11 10,11 L23,11 C23.5522847,11 24,11.4477153 24,12 C24,12.5522847 23.5522847,13 23,13 L10,13 Z" id="Line" fill="#141414" fill-rule="nonzero"></path>
            <path d="M19.2928932,9.70710678 C18.9023689,9.31658249 18.9023689,8.68341751 19.2928932,8.29289322 C19.6834175,7.90236893 20.3165825,7.90236893 20.7071068,8.29289322 L23.7071068,11.2928932 C24.0976311,11.6834175 24.0976311,12.3165825 23.7071068,12.7071068 L20.7071068,15.7071068 C20.3165825,16.0976311 19.6834175,16.0976311 19.2928932,15.7071068 C18.9023689,15.3165825 18.9023689,14.6834175 19.2928932,14.2928932 L21.5857864,12 L19.2928932,9.70710678 Z" id="Line-2" fill="#141414" fill-rule="nonzero"></path>
        </g>
    </g>
</svg>