<?xml version="1.0" encoding="UTF-8"?>
<svg width="24px" height="24px" viewBox="0 0 24 24" version="1.1" xmlns="http://www.w3.org/2000/svg" xmlns:xlink="http://www.w3.org/1999/xlink">
    <!-- Generator: Sketch 48.1 (47250) - http://www.bohemiancoding.com/sketch -->
    <title>Icon / logout / bold / square</title>
    <desc>Created with Sketch.</desc>
    <defs></defs>
    <g id="Symbols" stroke="none" stroke-width="1" fill="none" fill-rule="evenodd">
        <g id="Icon-/-logout-/-bold-/-square">
            <g id="Grid"></g>
            <path d="M17.0710678,4.92893219 L15.6568542,6.34314575 C14.209139,4.8954305 12.209139,4 10,4 C5.581722,4 2,7.581722 2,12 C2,16.418278 5.581722,20 10,20 C12.209139,20 14.209139,19.1045695 15.6568542,17.6568542 L17.0710678,19.0710678 C15.2614237,20.8807119 12.7614237,22 10,22 C4.4771525,22 0,17.5228475 0,12 C0,6.4771525 4.4771525,2 10,2 C12.7614237,2 15.2614237,3.11928813 17.0710678,4.92893219 Z" id="Combined-Shape" fill="#141414"></path>
            <polygon id="Line" fill="#141414" fill-rule="nonzero" points="9 13 9 11 22 11 22 13"></polygon>
            <polygon id="Line-2" fill="#141414" fill-rule="nonzero" points="18.1857868 9 19.6000004 7.58578644 24.0142139 12 19.6000004 16.4142136 18.1857868 15 21.1857868 12"></polygon>
        </g>
    </g>
</svg>