<?xml version="1.0" encoding="UTF-8"?>
<svg width="24px" height="24px" viewBox="0 0 24 24" version="1.1" xmlns="http://www.w3.org/2000/svg" xmlns:xlink="http://www.w3.org/1999/xlink">
    <!-- Generator: Sketch 48.1 (47250) - http://www.bohemiancoding.com/sketch -->
    <title>Icon / notification / thin / rounded</title>
    <desc>Created with Sketch.</desc>
    <defs></defs>
    <g id="Symbols" stroke="none" stroke-width="1" fill="none" fill-rule="evenodd">
        <g id="Icon-/-notification-/-thin-/-rounded">
            <g id="Grid"></g>
            <path d="M10.5,1 L13.5,1 C13.7761424,1 14,0.776142375 14,0.5 C14,0.223857625 13.7761424,0 13.5,0 L10.5,0 C10.2238576,0 10,0.223857625 10,0.5 C10,0.776142375 10.2238576,1 10.5,1 Z" id="Line" fill="#141414" fill-rule="nonzero"></path>
            <path d="M10.5,24 L13.5,24 C13.7761424,24 14,23.7761424 14,23.5 C14,23.2238576 13.7761424,23 13.5,23 L10.5,23 C10.2238576,23 10,23.2238576 10,23.5 C10,23.7761424 10.2238576,24 10.5,24 Z" id="Line" fill="#141414" fill-rule="nonzero"></path>
            <path d="M19.1464466,17.8535534 C19.0526784,17.7597852 19,17.6326082 19,17.5 L19,10 C19,6.13400675 15.8659932,3 12,3 C8.13400675,3 5,6.13400675 5,10 L5,17.5 C5,17.6326082 4.94732158,17.7597852 4.85355339,17.8535534 L1.70710678,21 L22.2928932,21 L19.1464466,17.8535534 Z M4,17.2928932 L4,10 C4,5.581722 7.581722,2 12,2 C16.418278,2 20,5.581722 20,10 L20,17.2928932 L23.8535534,21.1464466 C24.1685358,21.461429 23.9454524,22 23.5,22 L0.5,22 C0.0545475747,22 -0.168535821,21.461429 0.146446609,21.1464466 L4,17.2928932 Z" id="Combined-Shape" fill="#141414" fill-rule="nonzero"></path>
        </g>
    </g>
</svg>