<?xml version="1.0" encoding="UTF-8"?>
<svg width="24px" height="24px" viewBox="0 0 24 24" version="1.1" xmlns="http://www.w3.org/2000/svg" xmlns:xlink="http://www.w3.org/1999/xlink">
    <!-- Generator: Sketch 48.1 (47250) - http://www.bohemiancoding.com/sketch -->
    <title>Icon / plus / thin / rounded</title>
    <desc>Created with Sketch.</desc>
    <defs></defs>
    <g id="Symbols" stroke="none" stroke-width="1" fill="none" fill-rule="evenodd">
        <g id="Icon-/-plus-/-thin-/-rounded">
            <g id="Grid"></g>
            <path d="M11.5,0.5 L11.5,23.5 C11.5,23.7761424 11.7238576,24 12,24 C12.2761424,24 12.5,23.7761424 12.5,23.5 L12.5,0.5 C12.5,0.223857625 12.2761424,0 12,0 C11.7238576,0 11.5,0.223857625 11.5,0.5 Z" id="Line-4" fill="#141414" fill-rule="nonzero"></path>
            <path d="M0.5,12.5 L23.5,12.5 C23.7761424,12.5 24,12.2761424 24,12 C24,11.7238576 23.7761424,11.5 23.5,11.5 L0.5,11.5 C0.223857625,11.5 0,11.7238576 0,12 C0,12.2761424 0.223857625,12.5 0.5,12.5 Z" id="Line-4" fill="#141414" fill-rule="nonzero"></path>
        </g>
    </g>
</svg>