<?xml version="1.0" encoding="UTF-8"?>
<svg width="24px" height="24px" viewBox="0 0 24 24" version="1.1" xmlns="http://www.w3.org/2000/svg" xmlns:xlink="http://www.w3.org/1999/xlink">
    <!-- Generator: Sketch 48.1 (47250) - http://www.bohemiancoding.com/sketch -->
    <title>Icon / video / thin / rounded</title>
    <desc>Created with Sketch.</desc>
    <defs></defs>
    <g id="Symbols" stroke="none" stroke-width="1" fill="none" fill-rule="evenodd">
        <g id="Icon-/-video-/-thin-/-rounded">
            <g id="Grid"></g>
            <path d="M4,3 C3.44771525,3 3,3.44771525 3,4 L3,20 C3,20.5522847 3.44771525,21 4,21 L20,21 C20.5522847,21 21,20.5522847 21,20 L21,4 C21,3.44771525 20.5522847,3 20,3 L4,3 Z M4,2 L20,2 C21.1045695,2 22,2.8954305 22,4 L22,20 C22,21.1045695 21.1045695,22 20,22 L4,22 C2.8954305,22 2,21.1045695 2,20 L2,4 C2,2.8954305 2.8954305,2 4,2 Z" id="Rectangle-25" fill="#141414" fill-rule="nonzero"></path>
            <rect id="Rectangle" fill="#141414" x="5.5" y="3" width="1" height="18"></rect>
            <rect id="Rectangle-Copy" fill="#141414" x="17.5" y="3" width="1" height="18"></rect>
            <rect id="Rectangle-2" fill="#141414" x="3" y="4.5" width="2.5" height="1"></rect>
            <rect id="Rectangle-2" fill="#141414" x="3" y="11.5" width="2.5" height="1"></rect>
            <rect id="Rectangle-2" fill="#141414" x="3" y="15" width="2.5" height="1"></rect>
            <rect id="Rectangle-2-Copy" fill="#141414" x="3" y="8" width="2.5" height="1"></rect>
            <rect id="Rectangle-2-Copy-2" fill="#141414" x="3" y="18.5" width="2.5" height="1"></rect>
            <rect id="Rectangle-2" fill="#141414" x="18.5" y="4.5" width="2.5" height="1"></rect>
            <rect id="Rectangle-2" fill="#141414" x="18.5" y="11.5" width="2.5" height="1"></rect>
            <rect id="Rectangle-2" fill="#141414" x="18.5" y="15" width="2.5" height="1"></rect>
            <rect id="Rectangle-2-Copy" fill="#141414" x="18.5" y="8" width="2.5" height="1"></rect>
            <rect id="Rectangle-2-Copy-2" fill="#141414" x="18.5" y="18.5" width="2.5" height="1"></rect>
        </g>
    </g>
</svg>