<?xml version="1.0" encoding="UTF-8"?>
<svg width="24px" height="24px" viewBox="0 0 24 24" version="1.1" xmlns="http://www.w3.org/2000/svg" xmlns:xlink="http://www.w3.org/1999/xlink">
    <!-- Generator: Sketch 48.1 (47250) - http://www.bohemiancoding.com/sketch -->
    <title>Icon / video / thin / square</title>
    <desc>Created with Sketch.</desc>
    <defs></defs>
    <g id="Symbols" stroke="none" stroke-width="1" fill="none" fill-rule="evenodd">
        <g id="Icon-/-video-/-thin-/-square">
            <g id="Grid"></g>
            <path d="M3,3 L3,21 L21,21 L21,3 L3,3 Z M2,2 L22,2 L22,22 L2,22 L2,2 Z" id="Rectangle-25" fill="#141414" fill-rule="nonzero"></path>
            <rect id="Rectangle" fill="#141414" x="5.5" y="3" width="1" height="18"></rect>
            <rect id="Rectangle-Copy" fill="#141414" x="17.5" y="3" width="1" height="18"></rect>
            <rect id="Rectangle-2" fill="#141414" x="3" y="4.5" width="2.5" height="1"></rect>
            <rect id="Rectangle-2" fill="#141414" x="3" y="11.5" width="2.5" height="1"></rect>
            <rect id="Rectangle-2" fill="#141414" x="3" y="15" width="2.5" height="1"></rect>
            <rect id="Rectangle-2-Copy" fill="#141414" x="3" y="8" width="2.5" height="1"></rect>
            <rect id="Rectangle-2-Copy-2" fill="#141414" x="3" y="18.5" width="2.5" height="1"></rect>
            <rect id="Rectangle-2" fill="#141414" x="18.5" y="4.5" width="2.5" height="1"></rect>
            <rect id="Rectangle-2" fill="#141414" x="18.5" y="11.5" width="2.5" height="1"></rect>
            <rect id="Rectangle-2" fill="#141414" x="18.5" y="15" width="2.5" height="1"></rect>
            <rect id="Rectangle-2-Copy" fill="#141414" x="18.5" y="8" width="2.5" height="1"></rect>
            <rect id="Rectangle-2-Copy-2" fill="#141414" x="18.5" y="18.5" width="2.5" height="1"></rect>
        </g>
    </g>
</svg>