<?xml version="1.0" encoding="UTF-8"?>
<svg width="24px" height="24px" viewBox="0 0 24 24" version="1.1" xmlns="http://www.w3.org/2000/svg" xmlns:xlink="http://www.w3.org/1999/xlink">
    <!-- Generator: Sketch 48.1 (47250) - http://www.bohemiancoding.com/sketch -->
    <title>Icon / email / bold / rounded</title>
    <desc>Created with Sketch.</desc>
    <defs></defs>
    <g id="Symbols" stroke="none" stroke-width="1" fill="none" fill-rule="evenodd">
        <g id="Icon-/-email-/-bold-/-rounded">
            <g id="Grid"></g>
            <path d="M2,6 L2,18 L22,18 L22,6 L2,6 Z M2,4 L22,4 C23.1045695,4 24,4.8954305 24,6 L24,18 C24,19.1045695 23.1045695,20 22,20 L2,20 C0.8954305,20 1.3527075e-16,19.1045695 0,18 L0,6 C-1.3527075e-16,4.8954305 0.8954305,4 2,4 Z" id="Rectangle" fill="#141414" fill-rule="nonzero"></path>
            <path d="M0.585786438,6 L2,4.58578644 L12,14.5857864 L22,4.58578644 L23.4142136,6 L13.4142136,16 C12.633165,16.7810486 11.366835,16.7810486 10.5857864,16 L0.585786438,6 Z" id="Line" fill="#141414" fill-rule="nonzero"></path>
            <polygon id="Line-2" fill="#141414" fill-rule="nonzero" points="2 19.4142136 0.585786438 18 7 11.5857864 8.41421356 13"></polygon>
            <polygon id="Line-2" fill="#141414" fill-rule="nonzero" points="23.4142136 18 22 19.4142136 15.5857864 13 17 11.5857864"></polygon>
        </g>
    </g>
</svg>