<?xml version="1.0" encoding="UTF-8"?>
<svg width="24px" height="24px" viewBox="0 0 24 24" version="1.1" xmlns="http://www.w3.org/2000/svg" xmlns:xlink="http://www.w3.org/1999/xlink">
    <!-- Generator: Sketch 48.1 (47250) - http://www.bohemiancoding.com/sketch -->
    <title>Icon / hamburger / bold / rounded</title>
    <desc>Created with Sketch.</desc>
    <defs></defs>
    <g id="Symbols" stroke="none" stroke-width="1" fill="none" fill-rule="evenodd">
        <g id="Icon-/-hamburger-/-bold-/-rounded">
            <g id="Grid"></g>
            <path d="M1,7 L23,7 C23.5522847,7 24,6.55228475 24,6 C24,5.44771525 23.5522847,5 23,5 L1,5 C0.44771525,5 0,5.44771525 0,6 C0,6.55228475 0.44771525,7 1,7 Z" id="Line" fill="#141414" fill-rule="nonzero"></path>
            <path d="M1,13 L23,13 C23.5522847,13 24,12.5522847 24,12 C24,11.4477153 23.5522847,11 23,11 L1,11 C0.44771525,11 0,11.4477153 0,12 C0,12.5522847 0.44771525,13 1,13 Z" id="Line" fill="#141414" fill-rule="nonzero"></path>
            <path d="M1,19 L23,19 C23.5522847,19 24,18.5522847 24,18 C24,17.4477153 23.5522847,17 23,17 L1,17 C0.44771525,17 0,17.4477153 0,18 C0,18.5522847 0.44771525,19 1,19 Z" id="Line" fill="#141414" fill-rule="nonzero"></path>
        </g>
    </g>
</svg>