<?xml version="1.0" encoding="UTF-8"?>
<svg width="24px" height="24px" viewBox="0 0 24 24" version="1.1" xmlns="http://www.w3.org/2000/svg" xmlns:xlink="http://www.w3.org/1999/xlink">
    <!-- Generator: Sketch 48.1 (47250) - http://www.bohemiancoding.com/sketch -->
    <title>Icon / video / bold / square</title>
    <desc>Created with Sketch.</desc>
    <defs></defs>
    <g id="Symbols" stroke="none" stroke-width="1" fill="none" fill-rule="evenodd">
        <g id="Icon-/-video-/-bold-/-square">
            <g id="Grid"></g>
            <path d="M4,4 L4,20 L20,20 L20,4 L4,4 Z M2,2 L22,2 L22,22 L2,22 L2,2 Z" id="Rectangle-25" fill="#141414" fill-rule="nonzero"></path>
            <rect id="Rectangle" fill="#141414" x="6" y="4" width="2" height="16"></rect>
            <rect id="Rectangle-Copy" fill="#141414" x="16" y="4" width="2" height="16"></rect>
            <rect id="Rectangle-2" fill="#141414" x="4" y="5" width="2" height="2"></rect>
            <rect id="Rectangle-2-Copy-4" fill="#141414" x="18" y="5" width="2" height="2"></rect>
            <rect id="Rectangle-2-Copy" fill="#141414" x="4" y="9" width="2" height="2"></rect>
            <rect id="Rectangle-2-Copy-5" fill="#141414" x="18" y="9" width="2" height="2"></rect>
            <rect id="Rectangle-2-Copy-2" fill="#141414" x="4" y="13" width="2" height="2"></rect>
            <rect id="Rectangle-2-Copy-6" fill="#141414" x="18" y="13" width="2" height="2"></rect>
            <rect id="Rectangle-2-Copy-3" fill="#141414" x="4" y="17" width="2" height="2"></rect>
            <rect id="Rectangle-2-Copy-7" fill="#141414" x="18" y="17" width="2" height="2"></rect>
        </g>
    </g>
</svg>