<?xml version="1.0" encoding="UTF-8"?>
<svg width="24px" height="24px" viewBox="0 0 24 24" version="1.1" xmlns="http://www.w3.org/2000/svg" xmlns:xlink="http://www.w3.org/1999/xlink">
    <!-- Generator: Sketch 48.1 (47250) - http://www.bohemiancoding.com/sketch -->
    <title>Icon / arrowdown / bold / rounded</title>
    <desc>Created with Sketch.</desc>
    <defs></defs>
    <g id="Symbols" stroke="none" stroke-width="1" fill="none" fill-rule="evenodd">
        <g id="Icon-/-arrowdown-/-bold-/-rounded">
            <g id="Grid"></g>
            <path d="M11,1 L11,23 C11,23.5522847 11.4477153,24 12,24 C12.5522847,24 13,23.5522847 13,23 L13,1 C13,0.44771525 12.5522847,0 12,0 C11.4477153,0 11,0.44771525 11,1 Z" id="Line-3" fill="#141414" fill-rule="nonzero"></path>
            <path d="M6.70710678,16.2928932 C6.31658249,15.9023689 5.68341751,15.9023689 5.29289322,16.2928932 C4.90236893,16.6834175 4.90236893,17.3165825 5.29289322,17.7071068 L11.2928932,23.7071068 C11.6834175,24.0976311 12.3165825,24.0976311 12.7071068,23.7071068 L18.7071068,17.7071068 C19.0976311,17.3165825 19.0976311,16.6834175 18.7071068,16.2928932 C18.3165825,15.9023689 17.6834175,15.9023689 17.2928932,16.2928932 L12,21.5857864 L6.70710678,16.2928932 Z" id="Line-2" fill="#141414" fill-rule="nonzero"></path>
        </g>
    </g>
</svg>