<?xml version="1.0" encoding="UTF-8"?>
<svg width="24px" height="24px" viewBox="0 0 24 24" version="1.1" xmlns="http://www.w3.org/2000/svg" xmlns:xlink="http://www.w3.org/1999/xlink">
    <!-- Generator: Sketch 48.1 (47250) - http://www.bohemiancoding.com/sketch -->
    <title>Icon / person / bold / rounded</title>
    <desc>Created with Sketch.</desc>
    <defs></defs>
    <g id="Symbols" stroke="none" stroke-width="1" fill="none" fill-rule="evenodd">
        <g id="Icon-/-person-/-bold-/-rounded">
            <g id="Grid"></g>
            <path d="M12,10 C14.209139,10 16,8.209139 16,6 C16,3.790861 14.209139,2 12,2 C9.790861,2 8,3.790861 8,6 C8,8.209139 9.790861,10 12,10 Z M12,12 C8.6862915,12 6,9.3137085 6,6 C6,2.6862915 8.6862915,0 12,0 C15.3137085,0 18,2.6862915 18,6 C18,9.3137085 15.3137085,12 12,12 Z" id="Oval-2" fill="#141414" fill-rule="nonzero"></path>
            <path d="M6,20 L6,22 L8,22 C8,23.1045695 7.1045695,24 6,24 C4.8954305,24 4,23.1045695 4,22 C4,20.8954305 4.8954305,20 6,20 Z M16,22 L18,22 L18,20 C19.1045695,20 20,20.8954305 20,22 C20,23.1045695 19.1045695,24 18,24 C16.8954305,24 16,23.1045695 16,22 Z" id="Combined-Shape" fill="#141414"></path>
            <path d="M20,18 C20,18.5522847 19.5522847,19 19,19 C18.4477153,19 18,18.5522847 18,18 C18,14.6862915 15.3137085,12 12,12 C8.6862915,12 6,14.6862915 6,18 C6,18.5522847 5.55228475,19 5,19 C4.44771525,19 4,18.5522847 4,18 C4,13.581722 7.581722,10 12,10 C16.418278,10 20,13.581722 20,18 Z" id="Oval-5" fill="#141414" fill-rule="nonzero"></path>
            <path d="M4,18 C4,17.4477153 4.44771525,17 5,17 C5.55228475,17 6,17.4477153 6,18 L6,22 C6,22.5522847 5.55228475,23 5,23 C4.44771525,23 4,22.5522847 4,22 L4,18 Z" id="Line" fill="#141414" fill-rule="nonzero"></path>
            <path d="M18,22 C18.5522847,22 19,22.4477153 19,23 C19,23.5522847 18.5522847,24 18,24 L6,24 C5.44771525,24 5,23.5522847 5,23 C5,22.4477153 5.44771525,22 6,22 L18,22 Z" id="Line" fill="#141414" fill-rule="nonzero"></path>
            <path d="M18,18 C18,17.4477153 18.4477153,17 19,17 C19.5522847,17 20,17.4477153 20,18 L20,22 C20,22.5522847 19.5522847,23 19,23 C18.4477153,23 18,22.5522847 18,22 L18,18 Z" id="Line" fill="#141414" fill-rule="nonzero"></path>
        </g>
    </g>
</svg>