<?xml version="1.0" encoding="UTF-8"?>
<svg width="24px" height="24px" viewBox="0 0 24 24" version="1.1" xmlns="http://www.w3.org/2000/svg" xmlns:xlink="http://www.w3.org/1999/xlink">
    <!-- Generator: Sketch 48.1 (47250) - http://www.bohemiancoding.com/sketch -->
    <title>Icon / person / bold / square</title>
    <desc>Created with Sketch.</desc>
    <defs></defs>
    <g id="Symbols" stroke="none" stroke-width="1" fill="none" fill-rule="evenodd">
        <g id="Icon-/-person-/-bold-/-square">
            <g id="Grid"></g>
            <path d="M12,10 C14.209139,10 16,8.209139 16,6 C16,3.790861 14.209139,2 12,2 C9.790861,2 8,3.790861 8,6 C8,8.209139 9.790861,10 12,10 Z M12,12 C8.6862915,12 6,9.3137085 6,6 C6,2.6862915 8.6862915,0 12,0 C15.3137085,0 18,2.6862915 18,6 C18,9.3137085 15.3137085,12 12,12 Z" id="Oval-2" fill="#141414" fill-rule="nonzero"></path>
            <path d="M18,22 L18,18 C18,14.6862915 15.3137085,12 12,12 C8.6862915,12 6,14.6862915 6,18 L6,22 L18,22 Z M20,24 L4,24 L4,18 C4,13.581722 7.581722,10 12,10 C16.418278,10 20,13.581722 20,18 L20,24 Z" id="Combined-Shape" fill="#141414" fill-rule="nonzero"></path>
        </g>
    </g>
</svg>