<?xml version="1.0" encoding="UTF-8"?>
<svg width="24px" height="24px" viewBox="0 0 24 24" version="1.1" xmlns="http://www.w3.org/2000/svg" xmlns:xlink="http://www.w3.org/1999/xlink">
    <!-- Generator: Sketch 48.1 (47250) - http://www.bohemiancoding.com/sketch -->
    <title>Icon / bargraph / thin / rounded</title>
    <desc>Created with Sketch.</desc>
    <defs></defs>
    <g id="Symbols" stroke="none" stroke-width="1" fill="none" fill-rule="evenodd">
        <g id="Icon-/-bargraph-/-thin-/-rounded">
            <g id="Grid"></g>
            <path d="M4,13 C3.44771525,13 3,13.4477153 3,14 L3,22 C3,22.5522847 3.44771525,23 4,23 L6,23 C6.55228475,23 7,22.5522847 7,22 L7,14 C7,13.4477153 6.55228475,13 6,13 L4,13 Z M4,12 L6,12 C7.1045695,12 8,12.8954305 8,14 L8,22 C8,23.1045695 7.1045695,24 6,24 L4,24 C2.8954305,24 2,23.1045695 2,22 L2,14 C2,12.8954305 2.8954305,12 4,12 Z" id="Rectangle" fill="#141414" fill-rule="nonzero"></path>
            <path d="M11,1 C10.4477153,1 10,1.44771525 10,2 L10,22 C10,22.5522847 10.4477153,23 11,23 L13,23 C13.5522847,23 14,22.5522847 14,22 L14,2 C14,1.44771525 13.5522847,1 13,1 L11,1 Z M11,0 L13,0 C14.1045695,-2.02906125e-16 15,0.8954305 15,2 L15,22 C15,23.1045695 14.1045695,24 13,24 L11,24 C9.8954305,24 9,23.1045695 9,22 L9,2 C9,0.8954305 9.8954305,2.02906125e-16 11,0 Z" id="Rectangle-Copy" fill="#141414" fill-rule="nonzero"></path>
            <path d="M18,7 C17.4477153,7 17,7.44771525 17,8 L17,22 C17,22.5522847 17.4477153,23 18,23 L20,23 C20.5522847,23 21,22.5522847 21,22 L21,8 C21,7.44771525 20.5522847,7 20,7 L18,7 Z M18,6 L20,6 C21.1045695,6 22,6.8954305 22,8 L22,22 C22,23.1045695 21.1045695,24 20,24 L18,24 C16.8954305,24 16,23.1045695 16,22 L16,8 C16,6.8954305 16.8954305,6 18,6 Z" id="Rectangle-Copy-2" fill="#141414" fill-rule="nonzero"></path>
        </g>
    </g>
</svg>