<?xml version="1.0" encoding="UTF-8"?>
<svg width="24px" height="24px" viewBox="0 0 24 24" version="1.1" xmlns="http://www.w3.org/2000/svg" xmlns:xlink="http://www.w3.org/1999/xlink">
    <!-- Generator: Sketch 48.1 (47250) - http://www.bohemiancoding.com/sketch -->
    <title>Icon / compose / bold / rounded</title>
    <desc>Created with Sketch.</desc>
    <defs></defs>
    <g id="Symbols" stroke="none" stroke-width="1" fill="none" fill-rule="evenodd">
        <g id="Icon-/-compose-/-bold-/-rounded">
            <g id="Grid"></g>
            <path d="M6,4 L4,4 L4,6 C2.8954305,6 2,5.1045695 2,4 C2,2.8954305 2.8954305,2 4,2 C5.1045695,2 6,2.8954305 6,4 Z M4,18 L4,20 L6,20 C6,21.1045695 5.1045695,22 4,22 C2.8954305,22 2,21.1045695 2,20 C2,18.8954305 2.8954305,18 4,18 Z M18,20 L20,20 L20,18 C21.1045695,18 22,18.8954305 22,20 C22,21.1045695 21.1045695,22 20,22 C18.8954305,22 18,21.1045695 18,20 Z" id="Combined-Shape" fill="#141414"></path>
            <path d="M4,4 L14,4 C14.5522847,4 15,3.55228475 15,3 C15,2.44771525 14.5522847,2 14,2 L4,2 C3.44771525,2 3,2.44771525 3,3 C3,3.55228475 3.44771525,4 4,4 Z" id="Line" fill="#141414" fill-rule="nonzero"></path>
            <path d="M4,22 L20,22 C20.5522847,22 21,21.5522847 21,21 C21,20.4477153 20.5522847,20 20,20 L4,20 C3.44771525,20 3,20.4477153 3,21 C3,21.5522847 3.44771525,22 4,22 Z" id="Line" fill="#141414" fill-rule="nonzero"></path>
            <path d="M20,10 L20,20 C20,20.5522847 20.4477153,21 21,21 C21.5522847,21 22,20.5522847 22,20 L22,10 C22,9.44771525 21.5522847,9 21,9 C20.4477153,9 20,9.44771525 20,10 Z" id="Line-2" fill="#141414" fill-rule="nonzero"></path>
            <path d="M2,4 L2,20 C2,20.5522847 2.44771525,21 3,21 C3.55228475,21 4,20.5522847 4,20 L4,4 C4,3.44771525 3.55228475,3 3,3 C2.44771525,3 2,3.44771525 2,4 Z" id="Line-2" fill="#141414" fill-rule="nonzero"></path>
            <path d="M21,2 L11,12 L11,13 L12,13 L22,3 L21,2 Z M22.4142136,0.585786438 L23.4142136,1.58578644 C24.1952621,2.36683502 24.1952621,3.63316498 23.4142136,4.41421356 L13.4142136,14.4142136 C13.0391408,14.7892863 12.530433,15 12,15 L11,15 C9.8954305,15 9,14.1045695 9,13 L9,12 C9,11.469567 9.21071368,10.9608592 9.58578644,10.5857864 L19.5857864,0.585786438 C20.366835,-0.195262146 21.633165,-0.195262146 22.4142136,0.585786438 Z" id="Rectangle" fill="#141414" fill-rule="nonzero"></path>
            <rect id="Rectangle-2" fill="#141414" x="9" y="13" width="2" height="2"></rect>
        </g>
    </g>
</svg>