<?xml version="1.0" encoding="UTF-8"?>
<svg width="24px" height="24px" viewBox="0 0 24 24" version="1.1" xmlns="http://www.w3.org/2000/svg" xmlns:xlink="http://www.w3.org/1999/xlink">
    <!-- Generator: Sketch 48.1 (47250) - http://www.bohemiancoding.com/sketch -->
    <title>Icon / undo / thin / square</title>
    <desc>Created with Sketch.</desc>
    <defs></defs>
    <g id="Symbols" stroke="none" stroke-width="1" fill="none" fill-rule="evenodd">
        <g id="Icon-/-undo-/-thin-/-square">
            <g id="Grid"></g>
            <path d="M12,-8.8817842e-16 L12,1 C5.92486775,1 1,5.92486775 1,12 C1,18.0751322 5.92486775,23 12,23 C18.0751322,23 23,18.0751322 23,12 C23,8.18238038 21.0552293,4.81898631 18.102348,2.84647796 L18.6571069,2.01433959 C21.8784319,4.16616688 24,7.83532405 24,12 C24,18.627417 18.627417,24 12,24 C5.372583,24 0,18.627417 0,12 C0,5.372583 5.372583,-8.8817842e-16 12,-8.8817842e-16 Z" id="Combined-Shape" fill="#141414"></path>
            <polygon id="Line" fill="#141414" fill-rule="nonzero" points="19 3 19 8 18 8 18 2 24 2 24 3"></polygon>
        </g>
    </g>
</svg>