<?xml version="1.0" encoding="UTF-8"?>
<svg width="24px" height="24px" viewBox="0 0 24 24" version="1.1" xmlns="http://www.w3.org/2000/svg" xmlns:xlink="http://www.w3.org/1999/xlink">
    <!-- Generator: Sketch 48.1 (47250) - http://www.bohemiancoding.com/sketch -->
    <title>Icon / circlecross / thin / rounded</title>
    <desc>Created with Sketch.</desc>
    <defs></defs>
    <g id="Symbols" stroke="none" stroke-width="1" fill="none" fill-rule="evenodd">
        <g id="Icon-/-circlecross-/-thin-/-rounded">
            <g id="Grid"></g>
            <path d="M12,23 C18.0751322,23 23,18.0751322 23,12 C23,5.92486775 18.0751322,1 12,1 C5.92486775,1 1,5.92486775 1,12 C1,18.0751322 5.92486775,23 12,23 Z M12,24 C5.372583,24 0,18.627417 0,12 C0,5.372583 5.372583,0 12,0 C18.627417,0 24,5.372583 24,12 C24,18.627417 18.627417,24 12,24 Z" id="Oval-6" fill="#141414" fill-rule="nonzero"></path>
            <path d="M8.35355339,16.3535534 C8.15829124,16.5488155 7.84170876,16.5488155 7.64644661,16.3535534 C7.45118446,16.1582912 7.45118446,15.8417088 7.64644661,15.6464466 L15.6464466,7.64644661 C15.8417088,7.45118446 16.1582912,7.45118446 16.3535534,7.64644661 C16.5488155,7.84170876 16.5488155,8.15829124 16.3535534,8.35355339 L8.35355339,16.3535534 Z" id="Line" fill="#141414" fill-rule="nonzero"></path>
            <path d="M7.64644661,8.35355339 C7.45118446,8.15829124 7.45118446,7.84170876 7.64644661,7.64644661 C7.84170876,7.45118446 8.15829124,7.45118446 8.35355339,7.64644661 L16.3535534,15.6464466 C16.5488155,15.8417088 16.5488155,16.1582912 16.3535534,16.3535534 C16.1582912,16.5488155 15.8417088,16.5488155 15.6464466,16.3535534 L7.64644661,8.35355339 Z" id="Line" fill="#141414" fill-rule="nonzero"></path>
        </g>
    </g>
</svg>