<?xml version="1.0" encoding="UTF-8"?>
<svg width="24px" height="24px" viewBox="0 0 24 24" version="1.1" xmlns="http://www.w3.org/2000/svg" xmlns:xlink="http://www.w3.org/1999/xlink">
    <!-- Generator: Sketch 48.1 (47250) - http://www.bohemiancoding.com/sketch -->
    <title>Icon / search / thin / rounded</title>
    <desc>Created with Sketch.</desc>
    <defs></defs>
    <g id="Symbols" stroke="none" stroke-width="1" fill="none" fill-rule="evenodd">
        <g id="Icon-/-search-/-thin-/-rounded">
            <g id="Grid"></g>
            <path d="M10,20 C4.4771525,20 0,15.5228475 0,10 C0,4.4771525 4.4771525,0 10,0 C15.5228475,0 20,4.4771525 20,10 C20,15.5228475 15.5228475,20 10,20 Z M10,19 C14.9705627,19 19,14.9705627 19,10 C19,5.02943725 14.9705627,1 10,1 C5.02943725,1 1,5.02943725 1,10 C1,14.9705627 5.02943725,19 10,19 Z" id="Combined-Shape" fill="#141414"></path>
            <path d="M16.6464466,17.3535534 L23.1464466,23.8535534 C23.3417088,24.0488155 23.6582912,24.0488155 23.8535534,23.8535534 C24.0488155,23.6582912 24.0488155,23.3417088 23.8535534,23.1464466 L17.3535534,16.6464466 C17.1582912,16.4511845 16.8417088,16.4511845 16.6464466,16.6464466 C16.4511845,16.8417088 16.4511845,17.1582912 16.6464466,17.3535534 Z" id="Line-2" fill="#141414" fill-rule="nonzero"></path>
        </g>
    </g>
</svg>