<?xml version="1.0" encoding="UTF-8"?>
<svg width="24px" height="24px" viewBox="0 0 24 24" version="1.1" xmlns="http://www.w3.org/2000/svg" xmlns:xlink="http://www.w3.org/1999/xlink">
    <!-- Generator: Sketch 48.1 (47250) - http://www.bohemiancoding.com/sketch -->
    <title>Icon / attachment / bold / rounded</title>
    <desc>Created with Sketch.</desc>
    <defs></defs>
    <g id="Symbols" stroke="none" stroke-width="1" fill="none" fill-rule="evenodd">
        <g id="Icon-/-attachment-/-bold-/-rounded">
            <g id="Grid"></g>
            <g id="Group" transform="translate(12.000000, 12.000000) rotate(45.000000) translate(-12.000000, -12.000000) translate(5.000000, 0.000000)" fill="#141414" fill-rule="nonzero">
                <path d="M0,17 L2,17 C2,19.7614237 4.23857625,22 7,22 C9.76142375,22 12,19.7614237 12,17 L14,17 C14,20.8659932 10.8659932,24 7,24 C3.13400675,24 0,20.8659932 0,17 Z" id="Oval"></path>
                <path d="M10,5 L8,5 C8,3.34314575 6.65685425,2 5,2 C3.34314575,2 2,3.34314575 2,5 L0,5 C0,2.23857625 2.23857625,3.55271368e-15 5,3.55271368e-15 C7.76142375,3.55271368e-15 10,2.23857625 10,5 Z" id="Oval-2"></path>
                <path d="M0,5 C0,4.44771525 0.44771525,4 1,4 C1.55228475,4 2,4.44771525 2,5 L2,17 C2,17.5522847 1.55228475,18 1,18 C0.44771525,18 0,17.5522847 0,17 L0,5 Z" id="Line"></path>
                <path d="M4,7 C4,6.44771525 4.44771525,6 5,6 C5.55228475,6 6,6.44771525 6,7 L6,15 C6,15.5522847 5.55228475,16 5,16 C4.44771525,16 4,15.5522847 4,15 L4,7 Z" id="Line"></path>
                <path d="M12,7 C12,6.44771525 12.4477153,6 13,6 C13.5522847,6 14,6.44771525 14,7 L14,17 C14,17.5522847 13.5522847,18 13,18 C12.4477153,18 12,17.5522847 12,17 L12,7 Z" id="Line"></path>
                <path d="M8,5 C8,4.44771525 8.44771525,4 9,4 C9.55228475,4 10,4.44771525 10,5 L10,15 C10,15.5522847 9.55228475,16 9,16 C8.44771525,16 8,15.5522847 8,15 L8,5 Z" id="Line"></path>
                <path d="M4,15 L6,15 C6,15.5522847 6.44771525,16 7,16 C7.55228475,16 8,15.5522847 8,15 L10,15 C10,16.6568542 8.65685425,18 7,18 C5.34314575,18 4,16.6568542 4,15 Z" id="Oval-3"></path>
            </g>
        </g>
    </g>
</svg>