<?xml version="1.0" encoding="UTF-8"?>
<svg width="24px" height="24px" viewBox="0 0 24 24" version="1.1" xmlns="http://www.w3.org/2000/svg" xmlns:xlink="http://www.w3.org/1999/xlink">
    <!-- Generator: Sketch 48.1 (47250) - http://www.bohemiancoding.com/sketch -->
    <title>Icon / attachment / bold / square</title>
    <desc>Created with Sketch.</desc>
    <defs></defs>
    <g id="Symbols" stroke="none" stroke-width="1" fill="none" fill-rule="evenodd">
        <g id="Icon-/-attachment-/-bold-/-square">
            <g id="Grid"></g>
            <g id="Group" transform="translate(12.000000, 12.000000) rotate(45.000000) translate(-12.000000, -12.000000) translate(5.000000, 1.000000)" fill="#141414" fill-rule="nonzero">
                <path d="M0,16 L2,16 C2,18.7614237 4.23857625,21 7,21 C9.76142375,21 12,18.7614237 12,16 L14,16 C14,19.8659932 10.8659932,23 7,23 C3.13400675,23 0,19.8659932 0,16 Z" id="Oval"></path>
                <path d="M10,4 L8,4 C8,2.34314575 6.65685425,1 5,1 C3.34314575,1 2,2.34314575 2,4 L0,4 C0,1.23857625 2.23857625,-1 5,-1 C7.76142375,-1 10,1.23857625 10,4 Z" id="Oval-2"></path>
                <polygon id="Line" points="0 4 2 4 2 16 0 16"></polygon>
                <polygon id="Line" points="4 5 6 5 6 14 4 14"></polygon>
                <polygon id="Line" points="12 5 14 5 14 16 12 16"></polygon>
                <polygon id="Line" points="8 4 10 4 10 14 8 14"></polygon>
                <path d="M4,14 L6,14 C6,14.5522847 6.44771525,15 7,15 C7.55228475,15 8,14.5522847 8,14 L10,14 C10,15.6568542 8.65685425,17 7,17 C5.34314575,17 4,15.6568542 4,14 Z" id="Oval-3"></path>
            </g>
        </g>
    </g>
</svg>