<?xml version="1.0" encoding="UTF-8"?>
<svg width="24px" height="24px" viewBox="0 0 24 24" version="1.1" xmlns="http://www.w3.org/2000/svg" xmlns:xlink="http://www.w3.org/1999/xlink">
    <!-- Generator: Sketch 48.1 (47250) - http://www.bohemiancoding.com/sketch -->
    <title>Icon / group / bold / rounded</title>
    <desc>Created with Sketch.</desc>
    <defs></defs>
    <g id="Symbols" stroke="none" stroke-width="1" fill="none" fill-rule="evenodd">
        <g id="Icon-/-group-/-bold-/-rounded">
            <g id="Grid"></g>
            <path d="M12.6247845,10.9613433 C13.5636358,10.8443115 14.42166,10.4669884 15.1243655,9.90386537 C15.4061798,9.96680027 15.6992128,10 16,10 C18.209139,10 20,8.209139 20,6 C20,3.790861 18.209139,2 16,2 C15.6992128,2 15.4061798,2.03319973 15.1243655,2.09613463 C14.42166,1.5330116 13.5636358,1.15568845 12.6247845,1.03865673 C13.5864069,0.383193773 14.7484536,0 16,0 C19.3137085,0 22,2.6862915 22,6 C22,9.3137085 19.3137085,12 16,12 C14.7484536,12 13.5864069,11.6168062 12.6247845,10.9613433 Z" id="Combined-Shape" fill="#141414" fill-rule="nonzero"></path>
            <path d="M8.6247845,10.9613433 C9.56363578,10.8443115 10.42166,10.4669884 11.1243655,9.90386537 C11.4061798,9.96680027 11.6992128,10 12,10 C14.209139,10 16,8.209139 16,6 C16,3.790861 14.209139,2 12,2 C11.6992128,2 11.4061798,2.03319973 11.1243655,2.09613463 C10.42166,1.5330116 9.56363578,1.15568845 8.6247845,1.03865673 C9.58640691,0.383193773 10.7484536,0 12,0 C15.3137085,0 18,2.6862915 18,6 C18,9.3137085 15.3137085,12 12,12 C10.7484536,12 9.58640691,11.6168062 8.6247845,10.9613433 Z" id="Combined-Shape" fill="#141414" fill-rule="nonzero"></path>
            <path d="M8,10 C10.209139,10 12,8.209139 12,6 C12,3.790861 10.209139,2 8,2 C5.790861,2 4,3.790861 4,6 C4,8.209139 5.790861,10 8,10 Z M8,12 C4.6862915,12 2,9.3137085 2,6 C2,2.6862915 4.6862915,0 8,0 C11.3137085,0 14,2.6862915 14,6 C14,9.3137085 11.3137085,12 8,12 Z" id="Oval-2" fill="#141414" fill-rule="nonzero"></path>
            <path d="M2,20 L2,22 L4,22 C4,23.1045695 3.1045695,24 2,24 C0.8954305,24 0,23.1045695 0,22 C0,20.8954305 0.8954305,20 2,20 Z M20,22 L22,22 L22,20 C23.1045695,20 24,20.8954305 24,22 C24,23.1045695 23.1045695,24 22,24 C20.8954305,24 20,23.1045695 20,22 Z" id="Combined-Shape" fill="#141414"></path>
            <path d="M16,18 C16,18.5522847 15.5522847,19 15,19 C14.4477153,19 14,18.5522847 14,18 C14,14.6862915 11.3137085,12 8,12 C4.6862915,12 2,14.6862915 2,18 C2,18.5522847 1.55228475,19 1,19 C0.44771525,19 0,18.5522847 0,18 C0,13.581722 3.581722,10 8,10 C12.418278,10 16,13.581722 16,18 Z" id="Oval-5" fill="#141414" fill-rule="nonzero"></path>
            <path d="M20,18 C20,18.5522847 19.5522847,19 19,19 C18.4477153,19 18,18.5522847 18,18 C18,14.6862915 15.3137085,12 12,12 C11.4477153,12 11,11.5522847 11,11 C11,10.4477153 11.4477153,10 12,10 C16.418278,10 20,13.581722 20,18 Z" id="Oval-5" fill="#141414" fill-rule="nonzero"></path>
            <path d="M24,18 C24,18.5522847 23.5522847,19 23,19 C22.4477153,19 22,18.5522847 22,18 C22,14.6862915 19.3137085,12 16,12 C15.4477153,12 15,11.5522847 15,11 C15,10.4477153 15.4477153,10 16,10 C20.418278,10 24,13.581722 24,18 Z" id="Oval-5" fill="#141414" fill-rule="nonzero"></path>
            <path d="M0,18 C0,17.4477153 0.44771525,17 1,17 C1.55228475,17 2,17.4477153 2,18 L2,22 C2,22.5522847 1.55228475,23 1,23 C0.44771525,23 0,22.5522847 0,22 L0,18 Z" id="Line" fill="#141414" fill-rule="nonzero"></path>
            <path d="M22,22 C22.5522847,22 23,22.4477153 23,23 C23,23.5522847 22.5522847,24 22,24 L2,24 C1.44771525,24 1,23.5522847 1,23 C1,22.4477153 1.44771525,22 2,22 L22,22 Z" id="Line" fill="#141414" fill-rule="nonzero"></path>
            <path d="M14,18 C14,17.4477153 14.4477153,17 15,17 C15.5522847,17 16,17.4477153 16,18 L16,22 C16,22.5522847 15.5522847,23 15,23 C14.4477153,23 14,22.5522847 14,22 L14,18 Z" id="Line" fill="#141414" fill-rule="nonzero"></path>
            <path d="M18,18 C18,17.4477153 18.4477153,17 19,17 C19.5522847,17 20,17.4477153 20,18 L20,22 C20,22.5522847 19.5522847,23 19,23 C18.4477153,23 18,22.5522847 18,22 L18,18 Z" id="Line" fill="#141414" fill-rule="nonzero"></path>
            <path d="M22,18 C22,17.4477153 22.4477153,17 23,17 C23.5522847,17 24,17.4477153 24,18 L24,22 C24,22.5522847 23.5522847,23 23,23 C22.4477153,23 22,22.5522847 22,22 L22,18 Z" id="Line" fill="#141414" fill-rule="nonzero"></path>
        </g>
    </g>
</svg>