<?xml version="1.0" encoding="UTF-8"?>
<svg width="24px" height="24px" viewBox="0 0 24 24" version="1.1" xmlns="http://www.w3.org/2000/svg" xmlns:xlink="http://www.w3.org/1999/xlink">
    <!-- Generator: Sketch 48.1 (47250) - http://www.bohemiancoding.com/sketch -->
    <title>Icon / message / thin / rounded</title>
    <desc>Created with Sketch.</desc>
    <defs></defs>
    <g id="Symbols" stroke="none" stroke-width="1" fill="none" fill-rule="evenodd">
        <g id="Icon-/-message-/-thin-/-rounded">
            <g id="Grid"></g>
            <path d="M12,22 C5.39143177,22 0,17.5462085 0,12 C0,6.45379146 5.39143177,2 12,2 C18.6085682,2 24,6.45379146 24,12 C24,13.8131187 23.4206188,15.5540326 22.3433458,17.0762039 L23.9670074,21.3213828 C24.1253903,21.7354863 23.7064222,22.1355759 23.3000557,21.9582819 L19.0415366,20.1003281 C17.0108328,21.3277612 14.5655019,22 12,22 Z M21.3123112,17.1797732 C21.2509011,17.019212 21.2762786,16.8383621 21.379508,16.7009037 C22.4348924,15.2955724 23,13.6812378 23,12 C23,7.05279829 18.093981,3 12,3 C5.90601898,3 1,7.05279829 1,12 C1,16.9472017 5.90601898,21 12,21 C14.4738083,21 16.8204284,20.3293663 18.7331884,19.115077 C18.8734657,19.0260239 19.0488178,19.0124733 19.2011113,19.0789176 L22.6070216,20.5648858 L21.3123112,17.1797732 Z" id="Oval-10" fill="#141414" fill-rule="nonzero"></path>
        </g>
    </g>
</svg>