<?xml version="1.0" encoding="UTF-8"?>
<svg width="24px" height="24px" viewBox="0 0 24 24" version="1.1" xmlns="http://www.w3.org/2000/svg" xmlns:xlink="http://www.w3.org/1999/xlink">
    <!-- Generator: Sketch 48.1 (47250) - http://www.bohemiancoding.com/sketch -->
    <title>Icon / person / thin / rounded</title>
    <desc>Created with Sketch.</desc>
    <defs></defs>
    <g id="Symbols" stroke="none" stroke-width="1" fill="none" fill-rule="evenodd">
        <g id="Icon-/-person-/-thin-/-rounded">
            <g id="Grid"></g>
            <path d="M12,11 C14.7614237,11 17,8.76142375 17,6 C17,3.23857625 14.7614237,1 12,1 C9.23857625,1 7,3.23857625 7,6 C7,8.76142375 9.23857625,11 12,11 Z M12,12 C8.6862915,12 6,9.3137085 6,6 C6,2.6862915 8.6862915,0 12,0 C15.3137085,0 18,2.6862915 18,6 C18,9.3137085 15.3137085,12 12,12 Z" id="Oval-2" fill="#141414" fill-rule="nonzero"></path>
            <path d="M20,19 C20,19.2761424 19.7761424,19.5 19.5,19.5 C19.2238576,19.5 19,19.2761424 19,19 C19,15.1340068 15.8659932,12 12,12 C8.13400675,12 5,15.1340068 5,19 C5,19.2761424 4.77614237,19.5 4.5,19.5 C4.22385763,19.5 4,19.2761424 4,19 C4,14.581722 7.581722,11 12,11 C16.418278,11 20,14.581722 20,19 Z" id="Combined-Shape" fill="#141414" fill-rule="nonzero"></path>
            <path d="M4,19 C4,18.7238576 4.22385763,18.5 4.5,18.5 C4.77614237,18.5 5,18.7238576 5,19 L5,22 C5,22.2761424 4.77614237,22.5 4.5,22.5 C4.22385763,22.5 4,22.2761424 4,22 L4,19 Z" id="Line" fill="#141414" fill-rule="nonzero"></path>
            <path d="M18,23 C18.2761424,23 18.5,23.2238576 18.5,23.5 C18.5,23.7761424 18.2761424,24 18,24 L6,24 C5.72385763,24 5.5,23.7761424 5.5,23.5 C5.5,23.2238576 5.72385763,23 6,23 L18,23 Z" id="Line" fill="#141414" fill-rule="nonzero"></path>
            <path d="M19,19 C19,18.7238576 19.2238576,18.5 19.5,18.5 C19.7761424,18.5 20,18.7238576 20,19 L20,22 C20,22.2761424 19.7761424,22.5 19.5,22.5 C19.2238576,22.5 19,22.2761424 19,22 L19,19 Z" id="Line" fill="#141414" fill-rule="nonzero"></path>
            <path d="M4,22 C4,21.7238576 4.22385763,21.5 4.5,21.5 C4.77614237,21.5 5,21.7238576 5,22 C5,22.5522847 5.44771525,23 6,23 C6.27614237,23 6.5,23.2238576 6.5,23.5 C6.5,23.7761424 6.27614237,24 6,24 C4.8954305,24 4,23.1045695 4,22 Z" id="Oval-3" fill="#141414" fill-rule="nonzero"></path>
            <path d="M18,24 C17.7238576,24 17.5,23.7761424 17.5,23.5 C17.5,23.2238576 17.7238576,23 18,23 C18.5522847,23 19,22.5522847 19,22 C19,21.7238576 19.2238576,21.5 19.5,21.5 C19.7761424,21.5 20,21.7238576 20,22 C20,23.1045695 19.1045695,24 18,24 Z" id="Oval-3" fill="#141414" fill-rule="nonzero"></path>
        </g>
    </g>
</svg>