<?xml version="1.0" encoding="UTF-8"?>
<svg width="24px" height="24px" viewBox="0 0 24 24" version="1.1" xmlns="http://www.w3.org/2000/svg" xmlns:xlink="http://www.w3.org/1999/xlink">
    <!-- Generator: Sketch 48.1 (47250) - http://www.bohemiancoding.com/sketch -->
    <title>Icon / person / thin / square</title>
    <desc>Created with Sketch.</desc>
    <defs></defs>
    <g id="Symbols" stroke="none" stroke-width="1" fill="none" fill-rule="evenodd">
        <g id="Icon-/-person-/-thin-/-square">
            <g id="Grid"></g>
            <path d="M12,11 C14.7614237,11 17,8.76142375 17,6 C17,3.23857625 14.7614237,1 12,1 C9.23857625,1 7,3.23857625 7,6 C7,8.76142375 9.23857625,11 12,11 Z M12,12 C8.6862915,12 6,9.3137085 6,6 C6,2.6862915 8.6862915,0 12,0 C15.3137085,0 18,2.6862915 18,6 C18,9.3137085 15.3137085,12 12,12 Z" id="Oval-2" fill="#141414" fill-rule="nonzero"></path>
            <path d="M19,19 C19,15.1340068 15.8659932,12 12,12 C8.13400675,12 5,15.1340068 5,19 L5,23 L19,23 L19,19 Z M20,24 L4,24 L4,19 C4,14.581722 7.581722,11 12,11 C16.418278,11 20,14.581722 20,19 L20,24 Z" id="Combined-Shape" fill="#141414" fill-rule="nonzero"></path>
        </g>
    </g>
</svg>