<?xml version="1.0" encoding="UTF-8"?>
<svg width="24px" height="24px" viewBox="0 0 24 24" version="1.1" xmlns="http://www.w3.org/2000/svg" xmlns:xlink="http://www.w3.org/1999/xlink">
    <!-- Generator: Sketch 48.1 (47250) - http://www.bohemiancoding.com/sketch -->
    <title>Icon / group / thin / rounded</title>
    <desc>Created with Sketch.</desc>
    <defs></defs>
    <g id="Symbols" stroke="none" stroke-width="1" fill="none" fill-rule="evenodd">
        <g id="Icon-/-group-/-thin-/-rounded">
            <g id="Grid"></g>
            <path d="M13.2810546,11.35002 C13.7676802,11.2339271 14.2292108,11.0531629 14.6560586,10.8173153 C15.0836939,10.936364 15.5344155,11 16,11 C18.7614237,11 21,8.76142375 21,6 C21,3.23857625 18.7614237,1 16,1 C15.5344155,1 15.0836939,1.063636 14.6560586,1.18268472 C14.2292108,0.946837098 13.7676802,0.766072892 13.2810546,0.649979973 C14.0972699,0.234343033 15.0212681,0 16,0 C19.3137085,0 22,2.6862915 22,6 C22,9.3137085 19.3137085,12 16,12 C15.0212681,12 14.0972699,11.765657 13.2810546,11.35002 Z" id="Combined-Shape" fill="#141414" fill-rule="nonzero"></path>
            <path d="M9.28105459,11.35002 C9.76768017,11.2339271 10.2292108,11.0531629 10.6560586,10.8173153 C11.0836939,10.936364 11.5344155,11 12,11 C14.7614237,11 17,8.76142375 17,6 C17,3.23857625 14.7614237,1 12,1 C11.5344155,1 11.0836939,1.063636 10.6560586,1.18268472 C10.2292108,0.946837098 9.76768017,0.766072892 9.28105459,0.649979973 C10.0972699,0.234343033 11.0212681,0 12,0 C15.3137085,0 18,2.6862915 18,6 C18,9.3137085 15.3137085,12 12,12 C11.0212681,12 10.0972699,11.765657 9.28105459,11.35002 Z" id="Combined-Shape" fill="#141414" fill-rule="nonzero"></path>
            <path d="M8,11 C10.7614237,11 13,8.76142375 13,6 C13,3.23857625 10.7614237,1 8,1 C5.23857625,1 3,3.23857625 3,6 C3,8.76142375 5.23857625,11 8,11 Z M8,12 C4.6862915,12 2,9.3137085 2,6 C2,2.6862915 4.6862915,0 8,0 C11.3137085,0 14,2.6862915 14,6 C14,9.3137085 11.3137085,12 8,12 Z" id="Oval-2" fill="#141414" fill-rule="nonzero"></path>
            <path d="M16,19 C16,19.2761424 15.7761424,19.5 15.5,19.5 C15.2238576,19.5 15,19.2761424 15,19 C15,15.1340068 11.8659932,12 8,12 C4.13400675,12 1,15.1340068 1,19 C1,19.2761424 0.776142375,19.5 0.5,19.5 C0.223857625,19.5 0,19.2761424 0,19 C0,14.581722 3.581722,11 8,11 C12.418278,11 16,14.581722 16,19 Z" id="Combined-Shape" fill="#141414" fill-rule="nonzero"></path>
            <path d="M20,19 C20,19.2761424 19.7761424,19.5 19.5,19.5 C19.2238576,19.5 19,19.2761424 19,19 C19,15.1340068 15.8659932,12 12,12 C11.7238576,12 11.5,11.7761424 11.5,11.5 C11.5,11.2238576 11.7238576,11 12,11 C16.418278,11 20,14.581722 20,19 Z" id="Combined-Shape" fill="#141414" fill-rule="nonzero"></path>
            <path d="M24,19 C24,19.2761424 23.7761424,19.5 23.5,19.5 C23.2238576,19.5 23,19.2761424 23,19 C23,15.1340068 19.8659932,12 16,12 C15.7238576,12 15.5,11.7761424 15.5,11.5 C15.5,11.2238576 15.7238576,11 16,11 C20.418278,11 24,14.581722 24,19 Z" id="Combined-Shape" fill="#141414" fill-rule="nonzero"></path>
            <path d="M0,19 C0,18.7238576 0.223857625,18.5 0.5,18.5 C0.776142375,18.5 1,18.7238576 1,19 L1,22 C1,22.2761424 0.776142375,22.5 0.5,22.5 C0.223857625,22.5 0,22.2761424 0,22 L0,19 Z" id="Line" fill="#141414" fill-rule="nonzero"></path>
            <path d="M22,23 C22.2761424,23 22.5,23.2238576 22.5,23.5 C22.5,23.7761424 22.2761424,24 22,24 L2,24 C1.72385763,24 1.5,23.7761424 1.5,23.5 C1.5,23.2238576 1.72385763,23 2,23 L22,23 Z" id="Line" fill="#141414" fill-rule="nonzero"></path>
            <path d="M23,19 C23,18.7238576 23.2238576,18.5 23.5,18.5 C23.7761424,18.5 24,18.7238576 24,19 L24,22 C24,22.2761424 23.7761424,22.5 23.5,22.5 C23.2238576,22.5 23,22.2761424 23,22 L23,19 Z" id="Line" fill="#141414" fill-rule="nonzero"></path>
            <path d="M19,19 C19,18.7238576 19.2238576,18.5 19.5,18.5 C19.7761424,18.5 20,18.7238576 20,19 L20,23.5 C20,23.7761424 19.7761424,24 19.5,24 C19.2238576,24 19,23.7761424 19,23.5 L19,19 Z" id="Line" fill="#141414" fill-rule="nonzero"></path>
            <path d="M15,19 C15,18.7238576 15.2238576,18.5 15.5,18.5 C15.7761424,18.5 16,18.7238576 16,19 L16,23.5 C16,23.7761424 15.7761424,24 15.5,24 C15.2238576,24 15,23.7761424 15,23.5 L15,19 Z" id="Line" fill="#141414" fill-rule="nonzero"></path>
            <path d="M0,22 C0,21.7238576 0.223857625,21.5 0.5,21.5 C0.776142375,21.5 1,21.7238576 1,22 C1,22.5522847 1.44771525,23 2,23 C2.27614237,23 2.5,23.2238576 2.5,23.5 C2.5,23.7761424 2.27614237,24 2,24 C0.8954305,24 0,23.1045695 0,22 Z" id="Oval-3" fill="#141414" fill-rule="nonzero"></path>
            <path d="M22,24 C21.7238576,24 21.5,23.7761424 21.5,23.5 C21.5,23.2238576 21.7238576,23 22,23 C22.5522847,23 23,22.5522847 23,22 C23,21.7238576 23.2238576,21.5 23.5,21.5 C23.7761424,21.5 24,21.7238576 24,22 C24,23.1045695 23.1045695,24 22,24 Z" id="Oval-3" fill="#141414" fill-rule="nonzero"></path>
        </g>
    </g>
</svg>