<?xml version="1.0" encoding="UTF-8"?>
<svg width="24px" height="24px" viewBox="0 0 24 24" version="1.1" xmlns="http://www.w3.org/2000/svg" xmlns:xlink="http://www.w3.org/1999/xlink">
    <!-- Generator: Sketch 48.1 (47250) - http://www.bohemiancoding.com/sketch -->
    <title>Icon / group / thin / square</title>
    <desc>Created with Sketch.</desc>
    <defs></defs>
    <g id="Symbols" stroke="none" stroke-width="1" fill="none" fill-rule="evenodd">
        <g id="Icon-/-group-/-thin-/-square">
            <g id="Grid"></g>
            <path d="M13.2810546,11.35002 C13.7676802,11.2339271 14.2292108,11.0531629 14.6560586,10.8173153 C15.0836939,10.936364 15.5344155,11 16,11 C18.7614237,11 21,8.76142375 21,6 C21,3.23857625 18.7614237,1 16,1 C15.5344155,1 15.0836939,1.063636 14.6560586,1.18268472 C14.2292108,0.946837098 13.7676802,0.766072892 13.2810546,0.649979973 C14.0972699,0.234343033 15.0212681,0 16,0 C19.3137085,0 22,2.6862915 22,6 C22,9.3137085 19.3137085,12 16,12 C15.0212681,12 14.0972699,11.765657 13.2810546,11.35002 Z" id="Combined-Shape" fill="#141414" fill-rule="nonzero"></path>
            <path d="M9.28105459,11.35002 C9.76768017,11.2339271 10.2292108,11.0531629 10.6560586,10.8173153 C11.0836939,10.936364 11.5344155,11 12,11 C14.7614237,11 17,8.76142375 17,6 C17,3.23857625 14.7614237,1 12,1 C11.5344155,1 11.0836939,1.063636 10.6560586,1.18268472 C10.2292108,0.946837098 9.76768017,0.766072892 9.28105459,0.649979973 C10.0972699,0.234343033 11.0212681,0 12,0 C15.3137085,0 18,2.6862915 18,6 C18,9.3137085 15.3137085,12 12,12 C11.0212681,12 10.0972699,11.765657 9.28105459,11.35002 Z" id="Combined-Shape" fill="#141414" fill-rule="nonzero"></path>
            <path d="M8,11 C10.7614237,11 13,8.76142375 13,6 C13,3.23857625 10.7614237,1 8,1 C5.23857625,1 3,3.23857625 3,6 C3,8.76142375 5.23857625,11 8,11 Z M8,12 C4.6862915,12 2,9.3137085 2,6 C2,2.6862915 4.6862915,0 8,0 C11.3137085,0 14,2.6862915 14,6 C14,9.3137085 11.3137085,12 8,12 Z" id="Oval-2" fill="#141414" fill-rule="nonzero"></path>
            <path d="M16,19 L15,19 C15,15.1340068 11.8659932,12 8,12 C4.13400675,12 1,15.1340068 1,19 L0,19 C0,14.581722 3.581722,11 8,11 C12.418278,11 16,14.581722 16,19 Z" id="Oval-4" fill="#141414" fill-rule="nonzero"></path>
            <path d="M20,19 L19,19 C19,15.1340068 15.8659932,12 12,12 L12,11 C16.418278,11 20,14.581722 20,19 Z" id="Oval-4" fill="#141414" fill-rule="nonzero"></path>
            <path d="M24,19 L23,19 C23,15.1340068 19.8659932,12 16,12 L16,11 C20.418278,11 24,14.581722 24,19 Z" id="Oval-4" fill="#141414" fill-rule="nonzero"></path>
            <polygon id="Line" fill="#141414" fill-rule="nonzero" points="23 23 23 19 24 19 24 24 0 24 0 19 1 19 1 23"></polygon>
            <polygon id="Line-2" fill="#141414" fill-rule="nonzero" points="15 19 16 19 16 24 15 24"></polygon>
            <polygon id="Line-2" fill="#141414" fill-rule="nonzero" points="19 19 20 19 20 24 19 24"></polygon>
        </g>
    </g>
</svg>