<?xml version="1.0" encoding="UTF-8"?>
<svg width="24px" height="24px" viewBox="0 0 24 24" version="1.1" xmlns="http://www.w3.org/2000/svg" xmlns:xlink="http://www.w3.org/1999/xlink">
    <!-- Generator: Sketch 48.1 (47250) - http://www.bohemiancoding.com/sketch -->
    <title>Icon / heart / thin / rounded</title>
    <desc>Created with Sketch.</desc>
    <defs></defs>
    <g id="Symbols" stroke="none" stroke-width="1" fill="none" fill-rule="evenodd">
        <g id="Icon-/-heart-/-thin-/-rounded">
            <g id="Grid"></g>
            <path d="M12.5,8.25 C12.5,8.52614237 12.2761424,8.75 12,8.75 C11.7238576,8.75 11.5,8.52614237 11.5,8.25 C11.5,5.35050506 9.14949494,3 6.25,3 C3.35050506,3 1,5.35050506 1,8.25 C1,12.5489998 4.74612267,17.5166842 12.2971955,23.0979119 C12.5192626,23.2620485 12.5662246,23.5751284 12.4020881,23.7971955 C12.2379515,24.0192626 11.9248716,24.0662246 11.7028045,23.9020881 C3.920544,18.1499825 0,12.9510002 0,8.25 C0,4.79822031 2.79822031,2 6.25,2 C9.70177969,2 12.5,4.79822031 12.5,8.25 Z" id="Oval" fill="#141414" fill-rule="nonzero"></path>
            <path d="M12.2971955,23.9020881 C12.0751284,24.0662246 11.7620485,24.0192626 11.5979119,23.7971955 C11.4337754,23.5751284 11.4807374,23.2620485 11.7028045,23.0979119 C19.2538773,17.5166842 23,12.5489998 23,8.25 C23,5.35050506 20.6494949,3 17.75,3 C14.8505051,3 12.5,5.35050506 12.5,8.25 C12.5,8.52614237 12.2761424,8.75 12,8.75 C11.7238576,8.75 11.5,8.52614237 11.5,8.25 C11.5,4.79822031 14.2982203,2 17.75,2 C21.2017797,2 24,4.79822031 24,8.25 C24,12.9510002 20.079456,18.1499825 12.2971955,23.9020881 Z" id="Oval-Copy" fill="#141414" fill-rule="nonzero"></path>
        </g>
    </g>
</svg>