<?xml version="1.0" encoding="UTF-8"?>
<svg width="24px" height="24px" viewBox="0 0 24 24" version="1.1" xmlns="http://www.w3.org/2000/svg" xmlns:xlink="http://www.w3.org/1999/xlink">
    <!-- Generator: Sketch 48.1 (47250) - http://www.bohemiancoding.com/sketch -->
    <title>Icon / previous / thin / rounded</title>
    <desc>Created with Sketch.</desc>
    <defs></defs>
    <g id="Symbols" stroke="none" stroke-width="1" fill="none" fill-rule="evenodd">
        <g id="Icon-/-previous-/-thin-/-rounded">
            <g id="Grid"></g>
            <path d="M20,7.76619038 L20,16.2338096 C20,16.7860944 19.5522847,17.2338096 19,17.2338096 C18.8187561,17.2338096 18.6409196,17.1845518 18.4855042,17.0913025 L11.4291549,12.8574929 C10.9555746,12.5733448 10.8020095,11.9590845 11.0861577,11.4855042 C11.1706075,11.3447546 11.2884053,11.2269568 11.4291549,11.1425071 L18.4855042,6.90869745 C18.9590845,6.62454929 19.5733448,6.77811436 19.8574929,7.25169462 C19.9507422,7.40711003 20,7.58494643 20,7.76619038 Z" id="Rectangle-28" fill="#141414"></path>
            <path d="M10,7.76619038 L10,16.2338096 C10,16.7860944 9.55228475,17.2338096 9,17.2338096 C8.81875605,17.2338096 8.64091965,17.1845518 8.48550424,17.0913025 L1.42915488,12.8574929 C0.95557461,12.5733448 0.802009546,11.9590845 1.08615771,11.4855042 C1.17060747,11.3447546 1.28840527,11.2269568 1.42915488,11.1425071 L8.48550424,6.90869745 C8.95908451,6.62454929 9.57334477,6.77811436 9.85749293,7.25169462 C9.95074217,7.40711003 10,7.58494643 10,7.76619038 Z" id="Rectangle-28" fill="#141414"></path>
        </g>
    </g>
</svg>