<?xml version="1.0" encoding="UTF-8"?>
<svg width="24px" height="24px" viewBox="0 0 24 24" version="1.1" xmlns="http://www.w3.org/2000/svg" xmlns:xlink="http://www.w3.org/1999/xlink">
    <!-- Generator: Sketch 48.1 (47250) - http://www.bohemiancoding.com/sketch -->
    <title>Icon / list / thin / rounded</title>
    <desc>Created with Sketch.</desc>
    <defs></defs>
    <g id="Symbols" stroke="none" stroke-width="1" fill="none" fill-rule="evenodd">
        <g id="Icon-/-list-/-thin-/-rounded">
            <g id="Grid"></g>
            <path d="M6.5,6.5 C6.22385763,6.5 6,6.27614237 6,6 C6,5.72385763 6.22385763,5.5 6.5,5.5 L21.5,5.5 C21.7761424,5.5 22,5.72385763 22,6 C22,6.27614237 21.7761424,6.5 21.5,6.5 L6.5,6.5 Z" id="Line" fill="#141414" fill-rule="nonzero"></path>
            <circle id="Oval-2" fill="#141414" cx="3" cy="6" r="1"></circle>
            <circle id="Oval-2" fill="#141414" cx="3" cy="12" r="1"></circle>
            <circle id="Oval-2" fill="#141414" cx="3" cy="18" r="1"></circle>
            <path d="M6.5,12.5 C6.22385763,12.5 6,12.2761424 6,12 C6,11.7238576 6.22385763,11.5 6.5,11.5 L21.5,11.5 C21.7761424,11.5 22,11.7238576 22,12 C22,12.2761424 21.7761424,12.5 21.5,12.5 L6.5,12.5 Z" id="Line" fill="#141414" fill-rule="nonzero"></path>
            <path d="M6.5,18.5 C6.22385763,18.5 6,18.2761424 6,18 C6,17.7238576 6.22385763,17.5 6.5,17.5 L21.5,17.5 C21.7761424,17.5 22,17.7238576 22,18 C22,18.2761424 21.7761424,18.5 21.5,18.5 L6.5,18.5 Z" id="Line" fill="#141414" fill-rule="nonzero"></path>
        </g>
    </g>
</svg>