<?xml version="1.0" encoding="UTF-8"?>
<svg width="24px" height="24px" viewBox="0 0 24 24" version="1.1" xmlns="http://www.w3.org/2000/svg" xmlns:xlink="http://www.w3.org/1999/xlink">
    <!-- Generator: Sketch 48.1 (47250) - http://www.bohemiancoding.com/sketch -->
    <title>Icon / info / thin / rounded</title>
    <desc>Created with Sketch.</desc>
    <defs></defs>
    <g id="Symbols" stroke="none" stroke-width="1" fill="none" fill-rule="evenodd">
        <g id="Icon-/-info-/-thin-/-rounded">
            <g id="Grid"></g>
            <path d="M12,24 C5.372583,24 0,18.627417 0,12 C0,5.372583 5.372583,0 12,0 C18.627417,0 24,5.372583 24,12 C24,18.627417 18.627417,24 12,24 Z M12,23 C18.0751322,23 23,18.0751322 23,12 C23,5.92486775 18.0751322,1 12,1 C5.92486775,1 1,5.92486775 1,12 C1,18.0751322 5.92486775,23 12,23 Z" id="Combined-Shape" fill="#141414"></path>
            <path d="M10.5,10.5 L10,10.5 C9.72385763,10.5 9.5,10.2761424 9.5,10 C9.5,9.72385763 9.72385763,9.5 10,9.5 L10.5,9.5 C11.6045695,9.5 12.5,10.3954305 12.5,11.5 L12.5,17 L14.5,17 C14.7761424,17 15,17.2238576 15,17.5 C15,17.7761424 14.7761424,18 14.5,18 L9.5,18 C9.22385763,18 9,17.7761424 9,17.5 C9,17.2238576 9.22385763,17 9.5,17 L11.5,17 L11.5,11.5 C11.5,10.9477153 11.0522847,10.5 10.5,10.5 Z" id="Combined-Shape" fill="#141414" fill-rule="nonzero"></path>
            <circle id="Oval-2" fill="#141414" cx="12" cy="7" r="1"></circle>
        </g>
    </g>
</svg>