<?xml version="1.0" encoding="UTF-8"?>
<svg width="24px" height="24px" viewBox="0 0 24 24" version="1.1" xmlns="http://www.w3.org/2000/svg" xmlns:xlink="http://www.w3.org/1999/xlink">
    <!-- Generator: Sketch 48.1 (47250) - http://www.bohemiancoding.com/sketch -->
    <title>Icon / info / thin / square</title>
    <desc>Created with Sketch.</desc>
    <defs></defs>
    <g id="Symbols" stroke="none" stroke-width="1" fill="none" fill-rule="evenodd">
        <g id="Icon-/-info-/-thin-/-square">
            <g id="Grid"></g>
            <path d="M12,24 C5.372583,24 0,18.627417 0,12 C0,5.372583 5.372583,0 12,0 C18.627417,0 24,5.372583 24,12 C24,18.627417 18.627417,24 12,24 Z M12,23 C18.0751322,23 23,18.0751322 23,12 C23,5.92486775 18.0751322,1 12,1 C5.92486775,1 1,5.92486775 1,12 C1,18.0751322 5.92486775,23 12,23 Z" id="Combined-Shape" fill="#141414"></path>
            <polygon id="Rectangle-3" fill="#141414" points="9.5 9.5 12.5 9.5 12.5 17 15 17 15 18 9 18 9 17 11.5 17 11.5 10.5 9.5 10.5"></polygon>
            <circle id="Oval-2" fill="#141414" cx="12" cy="7" r="1"></circle>
        </g>
    </g>
</svg>