<?xml version="1.0" encoding="UTF-8"?>
<svg width="24px" height="24px" viewBox="0 0 24 24" version="1.1" xmlns="http://www.w3.org/2000/svg" xmlns:xlink="http://www.w3.org/1999/xlink">
    <!-- Generator: Sketch 48.1 (47250) - http://www.bohemiancoding.com/sketch -->
    <title>Icon / cloud / thin / square</title>
    <desc>Created with Sketch.</desc>
    <defs></defs>
    <g id="Symbols" stroke="none" stroke-width="1" fill="none" fill-rule="evenodd">
        <g id="Icon-/-cloud-/-thin-/-square">
            <g id="Grid"></g>
            <path d="M10.6237176,7.5794306 L9.99832962,8.70721073 L9.06176185,7.82073515 C8.50780926,7.29641063 7.77846249,7 7,7 C5.34314575,7 4,8.34314575 4,10 C4,10.1030651 4.00516023,10.2053266 4.01539579,10.3065736 L4.08904934,11.0351313 L3.41672113,11.3252968 C1.96197335,11.9531413 1,13.3880814 1,15 C1,17.209139 2.790861,19 5,19 L19,19 C21.209139,19 23,17.209139 23,15 C23,13.3901739 22.0405349,11.9567504 20.5886116,11.3276029 L19.9409481,11.0469573 L19.9884785,10.3427054 C19.9961466,10.229088 20,10.1148155 20,10 C20,7.23857625 17.7614237,5 15,5 C13.1615103,5 11.4995475,6.0000213 10.6237176,7.5794306 Z M15,4 C18.3137085,4 21,6.6862915 21,10 C21,10.1378156 20.9953536,10.2745459 20.9862088,10.4100429 C22.7594762,11.1784352 24,12.9443477 24,15 C24,17.7614237 21.7614237,20 19,20 L5,20 C2.23857625,20 0,17.7614237 0,15 C0,12.941769 1.24363809,11.1740052 3.02046705,10.4071559 C3.00693255,10.2732768 3,10.137448 3,10 C3,7.790861 4.790861,6 7,6 C7.70270912,6 8.36309586,6.18120366 8.93698321,6.49943399 C9.47844763,6.83314466 9.74917984,7 9.74917984,7 C9.74917984,7 9.93690986,6.75149921 10.3123699,6.25449762 C11.4118708,4.88022647 13.1031415,4 15,4 Z" id="Combined-Shape" fill="#141414" fill-rule="nonzero"></path>
        </g>
    </g>
</svg>