<?xml version="1.0" encoding="UTF-8"?>
<svg width="24px" height="24px" viewBox="0 0 24 24" version="1.1" xmlns="http://www.w3.org/2000/svg" xmlns:xlink="http://www.w3.org/1999/xlink">
    <!-- Generator: Sketch 48.1 (47250) - http://www.bohemiancoding.com/sketch -->
    <title>Icon / duplicate / thin / rounded</title>
    <desc>Created with Sketch.</desc>
    <defs></defs>
    <g id="Symbols" stroke="none" stroke-width="1" fill="none" fill-rule="evenodd">
        <g id="Icon-/-duplicate-/-thin-/-rounded">
            <g id="Grid"></g>
            <path d="M6,4 L22,4 C23.1045695,4 24,4.8954305 24,6 L24,22 C24,23.1045695 23.1045695,24 22,24 L6,24 C4.8954305,24 4,23.1045695 4,22 L4,6 C4,4.8954305 4.8954305,4 6,4 Z M6,5 C5.44771525,5 5,5.44771525 5,6 L5,22 C5,22.5522847 5.44771525,23 6,23 L22,23 C22.5522847,23 23,22.5522847 23,22 L23,6 C23,5.44771525 22.5522847,5 22,5 L6,5 Z" id="Combined-Shape" fill="#141414"></path>
            <path d="M13.5,8.5 C13.5,8.22385763 13.7238576,8 14,8 C14.2761424,8 14.5,8.22385763 14.5,8.5 L14.5,19.5 C14.5,19.7761424 14.2761424,20 14,20 C13.7238576,20 13.5,19.7761424 13.5,19.5 L13.5,8.5 Z" id="Line" fill="#141414" fill-rule="nonzero"></path>
            <path d="M8.5,14.5 C8.22385763,14.5 8,14.2761424 8,14 C8,13.7238576 8.22385763,13.5 8.5,13.5 L19.5,13.5 C19.7761424,13.5 20,13.7238576 20,14 C20,14.2761424 19.7761424,14.5 19.5,14.5 L8.5,14.5 Z" id="Line" fill="#141414" fill-rule="nonzero"></path>
            <path d="M2,0 L18,0 C19.1045695,-2.02906125e-16 20,0.8954305 20,2 L20,4 L19,4 L19,2 C19,1.44771525 18.5522847,1 18,1 L2,1 C1.44771525,1 1,1.44771525 1,2 L1,18 C1,18.5522847 1.44771525,19 2,19 L4,19 L4,20 L2,20 C0.8954305,20 1.3527075e-16,19.1045695 0,18 L0,2 C-1.3527075e-16,0.8954305 0.8954305,2.02906125e-16 2,0 Z" id="Rectangle-2" fill="#141414"></path>
        </g>
    </g>
</svg>