<?xml version="1.0" encoding="UTF-8"?>
<svg width="24px" height="24px" viewBox="0 0 24 24" version="1.1" xmlns="http://www.w3.org/2000/svg" xmlns:xlink="http://www.w3.org/1999/xlink">
    <!-- Generator: Sketch 48.1 (47250) - http://www.bohemiancoding.com/sketch -->
    <title>Icon / redo / bold / rounded</title>
    <desc>Created with Sketch.</desc>
    <defs></defs>
    <g id="Symbols" stroke="none" stroke-width="1" fill="none" fill-rule="evenodd">
        <g id="Icon-/-redo-/-bold-/-rounded">
            <g id="Grid"></g>
            <path d="M4.42237038,2.69474357 C4.85043146,2.34577056 5.48034205,2.40988411 5.82931505,2.83794519 C6.17828806,3.26600626 6.11417451,3.89591685 5.68611343,4.24488985 C3.36945544,6.13352478 2,8.95352342 2,12 C2,17.5228475 6.4771525,22 12,22 C17.5228475,22 22,17.5228475 22,12 C22,6.4771525 17.5228475,2 12,2 C11.4477153,2 11,1.55228475 11,1 C11,0.44771525 11.4477153,0 12,0 C18.627417,0 24,5.372583 24,12 C24,18.627417 18.627417,24 12,24 C5.372583,24 0,18.627417 0,12 C0,8.34594299 1.644654,4.95925227 4.42237038,2.69474357 Z" id="Oval-2" fill="#141414" fill-rule="nonzero"></path>
            <path d="M1,4 C0.44771525,4 0,3.55228475 0,3 C0,2.44771525 0.44771525,2 1,2 L5,2 C5.55228475,2 6,2.44771525 6,3 C6,3.55228475 5.55228475,4 5,4 L1,4 Z" id="Line" fill="#141414" fill-rule="nonzero"></path>
            <path d="M5,4 C5,3.44771525 5.44771525,3 6,3 C6.55228475,3 7,3.44771525 7,4 L7,8 C7,8.55228475 6.55228475,9 6,9 C5.44771525,9 5,8.55228475 5,8 L5,4 Z" id="Line" fill="#141414" fill-rule="nonzero"></path>
            <path d="M3,4 C3,2.8954305 3.8954305,2 5,2 C6.1045695,2 7,2.8954305 7,4 C7,5.1045695 6.1045695,6 5,6 L5,4 L3,4 Z" id="Combined-Shape" fill="#141414"></path>
        </g>
    </g>
</svg>