<?xml version="1.0" encoding="UTF-8"?>
<svg width="24px" height="24px" viewBox="0 0 24 24" version="1.1" xmlns="http://www.w3.org/2000/svg" xmlns:xlink="http://www.w3.org/1999/xlink">
    <!-- Generator: Sketch 48.1 (47250) - http://www.bohemiancoding.com/sketch -->
    <title>Icon / minimize / thin / rounded</title>
    <desc>Created with Sketch.</desc>
    <defs></defs>
    <g id="Symbols" stroke="none" stroke-width="1" fill="none" fill-rule="evenodd">
        <g id="Icon-/-minimize-/-thin-/-rounded">
            <g id="Grid"></g>
            <path d="M9,16 C9,15.4477153 8.55228475,15 8,15 L0.5,15 C0.223857625,15 0,14.7761424 0,14.5 C0,14.2238576 0.223857625,14 0.5,14 L8,14 C9.1045695,14 10,14.8954305 10,16 L10,23.5 C10,23.7761424 9.77614237,24 9.5,24 C9.22385763,24 9,23.7761424 9,23.5 L9,16 Z" id="Combined-Shape" fill="#141414" fill-rule="nonzero"></path>
            <path d="M16,9 L23.5,9 C23.7761424,9 24,9.22385763 24,9.5 C24,9.77614237 23.7761424,10 23.5,10 L16,10 C14.8954305,10 14,9.1045695 14,8 L14,0.5 C14,0.223857625 14.2238576,0 14.5,0 C14.7761424,0 15,0.223857625 15,0.5 L15,8 C15,8.55228475 15.4477153,9 16,9 Z" id="Combined-Shape" fill="#141414" fill-rule="nonzero"></path>
        </g>
    </g>
</svg>