<?xml version="1.0" encoding="UTF-8"?>
<svg width="24px" height="24px" viewBox="0 0 24 24" version="1.1" xmlns="http://www.w3.org/2000/svg" xmlns:xlink="http://www.w3.org/1999/xlink">
    <!-- Generator: Sketch 48.1 (47250) - http://www.bohemiancoding.com/sketch -->
    <title>Icon / upload / thin / rounded</title>
    <desc>Created with Sketch.</desc>
    <defs></defs>
    <g id="Symbols" stroke="none" stroke-width="1" fill="none" fill-rule="evenodd">
        <g id="Icon-/-upload-/-thin-/-rounded">
            <g id="Grid"></g>
            <path d="M11.5,0.5 L11.5,21.5 C11.5,21.7761424 11.7238576,22 12,22 C12.2761424,22 12.5,21.7761424 12.5,21.5 L12.5,0.5 C12.5,0.223857625 12.2761424,0 12,0 C11.7238576,0 11.5,0.223857625 11.5,0.5 Z" id="Line-3" fill="#141414" fill-rule="nonzero"></path>
            <path d="M17.6464466,6.85355339 C17.8417088,7.04881554 18.1582912,7.04881554 18.3535534,6.85355339 C18.5488155,6.65829124 18.5488155,6.34170876 18.3535534,6.14644661 L12.3535534,0.146446609 C12.1582912,-0.0488155365 11.8417088,-0.0488155365 11.6464466,0.146446609 L5.64644661,6.14644661 C5.45118446,6.34170876 5.45118446,6.65829124 5.64644661,6.85355339 C5.84170876,7.04881554 6.15829124,7.04881554 6.35355339,6.85355339 L12,1.20710678 L17.6464466,6.85355339 Z" id="Line" fill="#141414" fill-rule="nonzero"></path>
            <path d="M2.5,24 L21.5,24 C21.7761424,24 22,23.7761424 22,23.5 C22,23.2238576 21.7761424,23 21.5,23 L2.5,23 C2.22385763,23 2,23.2238576 2,23.5 C2,23.7761424 2.22385763,24 2.5,24 Z" id="Line" fill="#141414" fill-rule="nonzero"></path>
        </g>
    </g>
</svg>