<?xml version="1.0" encoding="UTF-8"?>
<svg width="24px" height="24px" viewBox="0 0 24 24" version="1.1" xmlns="http://www.w3.org/2000/svg" xmlns:xlink="http://www.w3.org/1999/xlink">
    <!-- Generator: Sketch 48.1 (47250) - http://www.bohemiancoding.com/sketch -->
    <title>Icon / cross / thin / rounded</title>
    <desc>Created with Sketch.</desc>
    <defs></defs>
    <g id="Symbols" stroke="none" stroke-width="1" fill="none" fill-rule="evenodd">
        <g id="Icon-/-cross-/-thin-/-rounded">
            <g id="Grid"></g>
            <path d="M4.35355339,20.3535534 C4.15829124,20.5488155 3.84170876,20.5488155 3.64644661,20.3535534 C3.45118446,20.1582912 3.45118446,19.8417088 3.64644661,19.6464466 L19.6464466,3.64644661 C19.8417088,3.45118446 20.1582912,3.45118446 20.3535534,3.64644661 C20.5488155,3.84170876 20.5488155,4.15829124 20.3535534,4.35355339 L4.35355339,20.3535534 Z" id="Line" fill="#141414" fill-rule="nonzero"></path>
            <path d="M20.3535534,19.6464466 C20.5488155,19.8417088 20.5488155,20.1582912 20.3535534,20.3535534 C20.1582912,20.5488155 19.8417088,20.5488155 19.6464466,20.3535534 L3.64644661,4.35355339 C3.45118446,4.15829124 3.45118446,3.84170876 3.64644661,3.64644661 C3.84170876,3.45118446 4.15829124,3.45118446 4.35355339,3.64644661 L20.3535534,19.6464466 Z" id="Line" fill="#141414" fill-rule="nonzero"></path>
        </g>
    </g>
</svg>