<?xml version="1.0" encoding="UTF-8"?>
<svg width="24px" height="24px" viewBox="0 0 24 24" version="1.1" xmlns="http://www.w3.org/2000/svg" xmlns:xlink="http://www.w3.org/1999/xlink">
    <!-- Generator: Sketch 48.1 (47250) - http://www.bohemiancoding.com/sketch -->
    <title>Icon / bookmark / thin / rounded</title>
    <desc>Created with Sketch.</desc>
    <defs></defs>
    <g id="Symbols" stroke="none" stroke-width="1" fill="none" fill-rule="evenodd">
        <g id="Icon-/-bookmark-/-thin-/-rounded">
            <g id="Grid"></g>
            <path d="M7.5,2 C7.77614237,2 8,2.22385763 8,2.5 C8,2.77614237 7.77614237,3 7.5,3 C6.94771525,3 6.5,3.44771525 6.5,4 C6.5,4.27614237 6.27614237,4.5 6,4.5 C5.72385763,4.5 5.5,4.27614237 5.5,4 C5.5,2.8954305 6.3954305,2 7.5,2 Z" id="Oval-2" fill="#141414" fill-rule="nonzero"></path>
            <path d="M7.5,3 C7.22385763,3 7,2.77614237 7,2.5 C7,2.22385763 7.22385763,2 7.5,2 L16.5,2 C16.7761424,2 17,2.22385763 17,2.5 C17,2.77614237 16.7761424,3 16.5,3 L7.5,3 Z" id="Line" fill="#141414" fill-rule="nonzero"></path>
            <path d="M12,18.2071068 L6.35355339,23.8535534 C6.03857096,24.1685358 5.5,23.9454524 5.5,23.5 L5.5,4 C5.5,3.72385763 5.72385763,3.5 6,3.5 C6.27614237,3.5 6.5,3.72385763 6.5,4 L6.5,22.2928932 L11.6464466,17.1464466 C11.8417088,16.9511845 12.1582912,16.9511845 12.3535534,17.1464466 L17.5,22.2928932 L17.5,4 C17.5,3.72385763 17.7238576,3.5 18,3.5 C18.2761424,3.5 18.5,3.72385763 18.5,4 L18.5,23.5 C18.5,23.9454524 17.961429,24.1685358 17.6464466,23.8535534 L12,18.2071068 Z" id="Line-2" fill="#141414" fill-rule="nonzero"></path>
            <path d="M18.5,4 C18.5,4.27614237 18.2761424,4.5 18,4.5 C17.7238576,4.5 17.5,4.27614237 17.5,4 C17.5,3.44771525 17.0522847,3 16.5,3 C16.2238576,3 16,2.77614237 16,2.5 C16,2.22385763 16.2238576,2 16.5,2 C17.6045695,2 18.5,2.8954305 18.5,4 Z" id="Oval-2" fill="#141414" fill-rule="nonzero"></path>
        </g>
    </g>
</svg>