<?xml version="1.0" encoding="UTF-8"?>
<svg width="24px" height="24px" viewBox="0 0 24 24" version="1.1" xmlns="http://www.w3.org/2000/svg" xmlns:xlink="http://www.w3.org/1999/xlink">
    <!-- Generator: Sketch 48.1 (47250) - http://www.bohemiancoding.com/sketch -->
    <title>Icon / lock / bold / rounded</title>
    <desc>Created with Sketch.</desc>
    <defs></defs>
    <g id="Symbols" stroke="none" stroke-width="1" fill="none" fill-rule="evenodd">
        <g id="Icon-/-lock-/-bold-/-rounded">
            <g id="Grid"></g>
            <path d="M8,12 L6,12 L6,14 C4.8954305,14 4,13.1045695 4,12 C4,10.8954305 4.8954305,10 6,10 C7.1045695,10 8,10.8954305 8,12 Z M6,20 L6,22 L8,22 C8,23.1045695 7.1045695,24 6,24 C4.8954305,24 4,23.1045695 4,22 C4,20.8954305 4.8954305,20 6,20 Z M16,12 C16,10.8954305 16.8954305,10 18,10 C19.1045695,10 20,10.8954305 20,12 C20,13.1045695 19.1045695,14 18,14 L18,12 L16,12 Z M16,22 L18,22 L18,20 C19.1045695,20 20,20.8954305 20,22 C20,23.1045695 19.1045695,24 18,24 C16.8954305,24 16,23.1045695 16,22 Z" id="Combined-Shape" fill="#141414"></path>
            <rect id="Rectangle-2" fill="#141414" x="6" y="6" width="2" height="4"></rect>
            <rect id="Rectangle-2-Copy-2" fill="#141414" x="16" y="6" width="2" height="4"></rect>
            <path d="M16,6 C16,3.790861 14.209139,2 12,2 C9.790861,2 8,3.790861 8,6 L6,6 C6,2.6862915 8.6862915,0 12,0 C15.3137085,0 18,2.6862915 18,6 L16,6 Z" id="Combined-Shape" fill="#141414"></path>
            <rect id="Rectangle-15" fill="#141414" x="6" y="10" width="12" height="2"></rect>
            <rect id="Rectangle-15-Copy" fill="#141414" x="6" y="22" width="12" height="2"></rect>
            <rect id="Rectangle-3" fill="#141414" x="4" y="12" width="2" height="10"></rect>
            <rect id="Rectangle-3-Copy" fill="#141414" x="18" y="12" width="2" height="10"></rect>
        </g>
    </g>
</svg>