<?xml version="1.0" encoding="UTF-8"?>
<svg width="24px" height="24px" viewBox="0 0 24 24" version="1.1" xmlns="http://www.w3.org/2000/svg" xmlns:xlink="http://www.w3.org/1999/xlink">
    <!-- Generator: Sketch 48.1 (47250) - http://www.bohemiancoding.com/sketch -->
    <title>Icon / lock / bold / square</title>
    <desc>Created with Sketch.</desc>
    <defs></defs>
    <g id="Symbols" stroke="none" stroke-width="1" fill="none" fill-rule="evenodd">
        <g id="Icon-/-lock-/-bold-/-square">
            <g id="Grid"></g>
            <path d="M6,12 L6,22 L18,22 L18,12 L6,12 Z M4,10 L20,10 L20,24 L4,24 L4,10 Z" id="Rectangle" fill="#141414" fill-rule="nonzero"></path>
            <rect id="Rectangle-2" fill="#141414" x="6" y="6" width="2" height="4"></rect>
            <rect id="Rectangle-2-Copy-2" fill="#141414" x="16" y="6" width="2" height="4"></rect>
            <path d="M16,6 C16,3.790861 14.209139,2 12,2 C9.790861,2 8,3.790861 8,6 L6,6 C6,2.6862915 8.6862915,0 12,0 C15.3137085,0 18,2.6862915 18,6 L16,6 Z" id="Combined-Shape" fill="#141414"></path>
        </g>
    </g>
</svg>