<?xml version="1.0" encoding="UTF-8"?>
<svg width="24px" height="24px" viewBox="0 0 24 24" version="1.1" xmlns="http://www.w3.org/2000/svg" xmlns:xlink="http://www.w3.org/1999/xlink">
    <!-- Generator: Sketch 48.1 (47250) - http://www.bohemiancoding.com/sketch -->
    <title>Icon / delete / bold / rounded</title>
    <desc>Created with Sketch.</desc>
    <defs></defs>
    <g id="Symbols" stroke="none" stroke-width="1" fill="none" fill-rule="evenodd">
        <g id="Icon-/-delete-/-bold-/-rounded">
            <g id="Grid"></g>
            <path d="M10,2 L10,4 L14,4 L14,2 L10,2 Z M10,0 L14,0 C15.1045695,0 16,0.8954305 16,2 L16,4 C16,5.1045695 15.1045695,6 14,6 L10,6 C8.8954305,6 8,5.1045695 8,4 L8,2 C8,0.8954305 8.8954305,0 10,0 Z" id="Rectangle-2" fill="#141414" fill-rule="nonzero"></path>
            <path d="M3,6 C2.44771525,6 2,5.55228475 2,5 C2,4.44771525 2.44771525,4 3,4 L21,4 C21.5522847,4 22,4.44771525 22,5 C22,5.55228475 21.5522847,6 21,6 L3,6 Z" id="Line" fill="#141414" fill-rule="nonzero"></path>
            <path d="M6,6 L6,20 L18,20 L18,6 L6,6 Z M6,4 L18,4 C19.1045695,4 20,4.8954305 20,6 L20,20 C20,21.1045695 19.1045695,22 18,22 L6,22 C4.8954305,22 4,21.1045695 4,20 L4,6 C4,4.8954305 4.8954305,4 6,4 Z" id="Rectangle" fill="#141414" fill-rule="nonzero"></path>
            <rect id="Rectangle-3" fill="#141414" x="8" y="8" width="2" height="10" rx="1"></rect>
            <rect id="Rectangle-3-Copy" fill="#141414" x="11" y="8" width="2" height="10" rx="1"></rect>
            <rect id="Rectangle-3-Copy-2" fill="#141414" x="14" y="8" width="2" height="10" rx="1"></rect>
        </g>
    </g>
</svg>