<?xml version="1.0" encoding="UTF-8"?>
<svg width="24px" height="24px" viewBox="0 0 24 24" version="1.1" xmlns="http://www.w3.org/2000/svg" xmlns:xlink="http://www.w3.org/1999/xlink">
    <!-- Generator: Sketch 48.1 (47250) - http://www.bohemiancoding.com/sketch -->
    <title>Icon / delete / bold / square</title>
    <desc>Created with Sketch.</desc>
    <defs></defs>
    <g id="Symbols" stroke="none" stroke-width="1" fill="none" fill-rule="evenodd">
        <g id="Icon-/-delete-/-bold-/-square">
            <g id="Grid"></g>
            <path d="M6,6 L6,20 L18,20 L18,6 L6,6 Z M4,4 L20,4 L20,22 L4,22 L4,4 Z" id="Rectangle" fill="#141414" fill-rule="nonzero"></path>
            <polygon id="Line" fill="#141414" fill-rule="nonzero" points="2 6 2 4 22 4 22 6"></polygon>
            <path d="M10,2 L10,4 L14,4 L14,2 L10,2 Z M8,0 L16,0 L16,6 L8,6 L8,0 Z" id="Rectangle-2" fill="#141414" fill-rule="nonzero"></path>
            <rect id="Rectangle-3" fill="#141414" x="8" y="8" width="2" height="10"></rect>
            <rect id="Rectangle-3-Copy" fill="#141414" x="11" y="8" width="2" height="10"></rect>
            <rect id="Rectangle-3-Copy-2" fill="#141414" x="14" y="8" width="2" height="10"></rect>
        </g>
    </g>
</svg>