<?xml version="1.0" encoding="UTF-8"?>
<svg width="24px" height="24px" viewBox="0 0 24 24" version="1.1" xmlns="http://www.w3.org/2000/svg" xmlns:xlink="http://www.w3.org/1999/xlink">
    <!-- Generator: Sketch 48.1 (47250) - http://www.bohemiancoding.com/sketch -->
    <title>Icon / shareios / bold / rounded</title>
    <desc>Created with Sketch.</desc>
    <defs></defs>
    <g id="Symbols" stroke="none" stroke-width="1" fill="none" fill-rule="evenodd">
        <g id="Icon-/-shareios-/-bold-/-rounded">
            <g id="Grid"></g>
            <path d="M16,8 C15.4477153,8 15,7.55228475 15,7 C15,6.44771525 15.4477153,6 16,6 L18,6 C19.1045695,6 20,6.8954305 20,8 L20,20 C19.9999994,21.1045701 19.1045692,22 18,22 L6,22 C4.89542994,21.9999994 4,21.1045692 4,20 L4,8 C4,6.8954305 4.8954305,6 6,6 L8,6 C8.55228475,6 9,6.44771525 9,7 C9,7.55228475 8.55228475,8 8,8 L6,8 L6,10 L6,18 L6,20 L8,20 L16,20 L18,20 L18,18 L18,10 L18,8 L16,8 Z" id="Combined-Shape" fill="#141414"></path>
            <path d="M11,1 C11,0.44771525 11.4477153,1.11022302e-15 12,1.11022302e-15 C12.5522847,1.11022302e-15 13,0.44771525 13,1 L13,14 C13,14.5522847 12.5522847,15 12,15 C11.4477153,15 11,14.5522847 11,14 L11,1 Z" id="Line-2" fill="#141414" fill-rule="nonzero"></path>
            <path d="M12,2.41421356 L14.2928932,4.70710678 C14.6834175,5.09763107 15.3165825,5.09763107 15.7071068,4.70710678 C16.0976311,4.31658249 16.0976311,3.68341751 15.7071068,3.29289322 L12.7071068,0.292893219 C12.3165825,-0.0976310729 11.6834175,-0.0976310729 11.2928932,0.292893219 L8.29289322,3.29289322 C7.90236893,3.68341751 7.90236893,4.31658249 8.29289322,4.70710678 C8.68341751,5.09763107 9.31658249,5.09763107 9.70710678,4.70710678 L12,2.41421356 Z" id="Line-4" fill="#141414" fill-rule="nonzero"></path>
        </g>
    </g>
</svg>